<?xml version="1.0" encoding="UTF-8" standalone="no"?>
<!DOCTYPE svg PUBLIC "-//W3C//DTD SVG 1.1//EN" "http://www.w3.org/Graphics/SVG/1.1/DTD/svg11.dtd">
<svg width="100%" height="100%" viewBox="0 0 271 152" version="1.1" xmlns="http://www.w3.org/2000/svg" xmlns:xlink="http://www.w3.org/1999/xlink" xml:space="preserve" xmlns:serif="http://www.serif.com/" style="fill-rule:evenodd;clip-rule:evenodd;stroke-linejoin:round;stroke-miterlimit:2;">
    <g id="Mesa-de-trabajo1" serif:id="Mesa de trabajo1" transform="matrix(0.615227,0,0,0.158264,0.007355,0)">
        <rect x="0" y="0" width="440" height="956" style="fill:none;"/>
    </g>
    <g id="Mesa-de-trabajo11" serif:id="Mesa de trabajo1" transform="matrix(1,0,0,1,-84.645743,-402.345263)">
        <g>
            <path d="M286.819,521.206C286.701,521.694 285.775,525.541 287.767,527.408C288.179,527.794 292.351,530.431 296.306,528.931C299.582,527.689 294.378,525.819 296.449,523.045C313.181,528.152 301.958,504.88 311.215,494.952C316.415,489.376 324.031,486.041 328.77,485.417C335.267,484.562 318.485,482.283 319.083,470.574C319.646,459.566 336.407,452.839 340.526,467.376C341.931,472.334 337.7,481.684 331.125,476.017C326.566,472.088 329.436,467.933 331.712,467.192C337.46,465.321 326.508,462.673 325.402,468.969C323.263,481.139 336.451,478.625 354.167,489.177C354.308,489.261 356.374,492.077 352.686,490.592C351.272,490.023 340.742,487.439 338.989,489.827C337.773,491.483 337.148,495.818 331.749,496.734C328.872,497.222 332.328,490.926 329.561,492.609C325.68,494.969 325.852,495.44 321.362,495.963C319.67,496.16 321.938,493.229 322.086,493.039C327.228,486.397 307.796,498.628 313.607,508.97C316.312,513.784 322.103,509.946 319.696,509.187C312.486,506.912 319.746,494.847 328.258,501.475C334.53,506.359 327.98,521.503 314.867,518.103C313.149,517.657 311.928,515.647 311.343,518.682C307.758,537.276 293.029,527.565 288.916,540.402C287.638,544.39 282.127,536.845 284.779,532.592C287.514,528.205 263.054,527.404 264.238,540.462C264.294,541.081 264.646,544.964 269.149,546.484C269.186,546.497 271.483,546.601 269.593,544.702C265.875,540.966 273.104,534.294 277.63,539.898C279.872,542.674 274.763,557.503 262.586,549.442C259.941,547.691 256.351,556.443 248.929,552.708C240.936,548.686 250.608,537.859 254.409,544.602C255.437,546.426 251.621,551.394 255.351,549.004C262.333,544.531 253.56,526.542 277.957,526.277C280.158,526.253 281.074,526.612 280.864,524.415C279.818,513.465 295.375,508.581 295.394,519.558C295.396,520.74 295.211,520.632 294.701,521.922C294.38,522.33 290.025,527.865 288.208,522.057C287.962,521.89 287.716,521.722 287.47,521.555C287.254,521.438 287.037,521.322 286.821,521.205L286.819,521.206Z" style="fill:rgb(5,5,5);"/>
            <path d="M144.335,523.497C143.08,526.946 140.985,528.328 144.59,529.271C149.107,530.452 156.544,525.732 152.731,520.984C151.592,519.566 151.503,526.789 147.099,524.221C139.66,519.882 149.02,507.286 156.446,516.522C160.658,521.761 156.965,526.816 160.686,526.329C166.893,525.516 177.695,527.849 180.065,537.212C180.078,537.263 182.099,549.898 185.592,549.415C187.431,549.16 182.786,544.025 187.934,542.689C194.948,540.869 196.636,553.895 187.17,553.616C181.649,553.453 179.422,548.105 177.512,549.243C176.615,549.778 172.304,554.415 165.721,549.786C160.357,546.015 159.721,537.726 167.088,537.665C170.36,537.638 171.872,542.134 170.405,544.52C167.069,549.944 179.662,543.453 174.721,536.17C173.832,534.859 168.139,526.467 155.735,530.557C152.928,531.483 157.027,533.276 155.432,536.625C153.53,540.619 154.189,541.934 151.77,541.486C150.985,541.341 151.2,536.597 144.543,533.368C144.001,533.105 138.274,532.108 134.143,529.233C128.463,525.28 129.382,516.214 126.913,517.112C121.005,519.26 120.747,519.511 114.989,516.926C104.523,512.227 110.14,495.511 119.756,500.193C123.085,501.814 123.975,508.121 121.189,508.961C116.639,510.333 123.702,513.141 125.765,509.688C132.593,498.256 112.097,485.892 118.629,493.964C119.539,495.089 119.17,496.012 118.143,495.816C113.635,494.954 113.145,494.946 110.816,493.138C110.697,493.046 108.607,491.423 109.082,493.86C110.357,500.4 103.476,494.848 102.394,492.851C99.34,487.212 97.912,488.792 91.553,489.59C88.698,489.948 88.784,490.083 86,491.029C84.561,491.518 83.893,490.073 85.922,488.993C108.272,477.099 113.744,480.308 114.649,472.153C115.669,462.964 103.502,463.84 107.387,466.846C110.249,469.06 111.547,468.641 111.047,472.199C110.514,475.992 100.77,483.919 99.111,469.721C98.121,461.249 111.865,452.549 119.401,465.904C125.302,476.361 111.702,483.046 110.263,483.753C105.573,486.059 128.425,485.655 132.342,502.747C133.325,507.034 130.554,526.571 141.405,523.655C142.903,523.252 142.872,522.89 144.332,523.497L144.335,523.497Z" style="fill:rgb(5,5,5);"/>
            <path d="M352.043,451.191C352.912,451.116 352.966,451.363 353.581,450.74C354.86,449.445 355.522,450.326 355.316,452.098C354.377,460.178 349.392,460.038 350.776,473.019C351.22,477.18 359.027,488.423 352.518,482.025C336.575,466.352 355.017,454.129 342.11,449.241C339.65,448.31 336.476,451.93 339.818,451.357C345.394,450.401 343.577,455.996 342.907,456.82C336.924,464.176 326.52,448.934 333.347,444.808C340.569,440.444 326.947,443.961 322.514,438.136C316.33,430.011 327.62,423.511 329.387,431.201C330.115,434.371 325.433,434.211 327.571,436.192C331.489,439.821 340.418,427.1 319.766,417.461C314.371,414.943 311.783,426.639 315.792,423.31C320.144,419.697 323.392,426.533 318.86,429.443C313.04,433.18 307.325,423.605 310.478,417.765C311.795,415.325 310.492,415.389 308.716,413.341C302.285,405.924 314.462,398.534 316.101,404.581C317.624,410.199 312.098,409.341 311.91,409.622C311.532,410.188 310.957,412.066 319.696,413.06C324.31,413.585 332.146,419.452 333.841,421.832C337.931,427.574 338.239,434.605 338.356,435.187C339.964,443.17 351.403,437.399 352.044,451.19L352.043,451.191Z" style="fill:rgb(5,5,5);"/>
            <path d="M117.863,431.532C123.952,442.64 106.67,442.731 106.312,443.514C105.759,444.725 109.751,445.783 109.791,450.485C109.855,457.964 97.685,460.565 98.361,453.712C98.737,449.899 105.762,452.158 102.667,449.893C100.52,448.322 94.356,450.319 95.403,456.937C95.931,460.275 99.227,468.44 92.081,477.507C91.865,477.781 88.175,482.463 88.168,479.428C88.159,475.511 96.723,473.691 89.49,457.565C89.261,457.055 85.705,449.127 89.154,450.587C93.135,452.273 88.91,444.402 97.187,441.588C101.6,440.087 102.752,440.602 103.395,435.982C103.944,432.034 103.906,425.945 112.583,420.122C120.86,414.567 129.771,416.872 126.94,413.524C126.55,413.062 122.282,414.304 123.096,409.546C124.226,402.94 135.929,410.539 129.788,417.237C129.347,417.718 127.363,418.807 127.757,419.951C129.438,424.843 130.153,425.085 127.864,429.669C125.848,433.707 121.005,431.534 120.451,431.286C116.148,425.979 121.027,424.246 123.588,425.962C127.047,428.28 125.335,418.002 119.084,421.132C101.04,430.167 109.952,441.573 113.144,437.545C114.042,436.412 108.742,434.147 112.736,430.738C114.636,429.117 117.531,431.282 117.864,431.53L117.863,431.532Z" style="fill:rgb(8,8,8);"/>
            <path d="M117.863,431.532C117.531,431.283 114.635,429.119 112.735,430.74C108.741,434.148 114.042,436.413 113.143,437.547C109.951,441.575 101.038,430.169 119.083,421.134C125.334,418.004 127.046,428.281 123.587,425.964C121.026,424.248 116.147,425.981 120.45,431.288C119.941,431.231 120.144,431.766 119.641,431.71C119.068,431.646 119.418,431.166 118.88,431.113C118.515,431.077 118.228,431.57 117.862,431.534L117.863,431.532Z" style="fill:rgb(247,247,247);"/>
            <path d="M286.819,521.206L287.468,521.556C287.714,521.723 287.96,521.891 288.206,522.058C290.023,527.866 294.378,522.332 294.699,521.923C295.282,522.297 295.866,522.672 296.449,523.046C294.378,525.819 299.582,527.689 296.306,528.932C292.351,530.432 288.179,527.795 287.767,527.409C285.775,525.542 286.702,521.695 286.819,521.207L286.819,521.206Z" style="fill:rgb(248,248,248);"/>
        </g>
    </g>
</svg>
