<?xml version="1.0" encoding="UTF-8" standalone="no"?>
<!DOCTYPE svg PUBLIC "-//W3C//DTD SVG 1.1//EN" "http://www.w3.org/Graphics/SVG/1.1/DTD/svg11.dtd">
<svg width="100%" height="100%" viewBox="0 0 271 118" version="1.1" xmlns="http://www.w3.org/2000/svg" xmlns:xlink="http://www.w3.org/1999/xlink" xml:space="preserve" xmlns:serif="http://www.serif.com/" style="fill-rule:evenodd;clip-rule:evenodd;stroke-linejoin:round;stroke-miterlimit:2;">
    <g id="Mesa-de-trabajo1" serif:id="Mesa de trabajo1" transform="matrix(0.615227,0,0,0.122908,0,0)">
        <rect x="0" y="0" width="440" height="956" style="fill:none;"/>
    </g>
    <g id="Mesa-de-trabajo11" serif:id="Mesa de trabajo1" transform="matrix(1.150916,0,0,1.279323,-117.852962,-513.426688)">
        <path d="M334.955,418.94L334.956,418.941L334.953,418.941L334.955,418.94ZM334.955,418.94C331.021,415.806 331.035,415.79 330.643,415.597C324.431,412.537 337.594,422.254 337.603,422.709C337.643,424.613 334.315,421.513 333.125,420.902C328.529,418.544 336.594,425.575 336.679,425.813C337.666,428.606 329.238,421.603 331.435,425.722C332.484,427.69 333.729,428.417 333.884,428.79C335.379,432.385 330.158,427.808 329.434,427.774C326.919,427.653 331.275,432.527 331.285,432.557C332.634,436.989 327.546,429.038 325.238,430.287C323.319,431.326 327.251,435.478 327.324,435.692C328.292,438.548 323.503,433.96 322.673,433.759C319.721,433.043 323.885,438.493 323.92,438.709C324.493,442.195 320.724,436.222 318.423,437.059C315.502,438.121 320.182,440.976 320.323,441.767C320.845,444.696 316.102,439.882 314.665,439.854C310.621,439.776 316.203,445.604 316.316,446.113C317.073,449.531 311.723,442.059 309.852,443.248C307.668,444.636 311.618,448.984 311.632,449.177C311.838,451.983 308.885,447.266 306.678,446.648C301.511,445.201 308.39,452.773 308.267,453.423C307.888,455.426 304.848,450.911 302.39,450.267C297.207,448.909 303.633,456.064 303.585,456.567C303.418,458.298 300.948,455.722 299.214,454.836C291.806,451.049 298.854,460.205 298.857,460.258C299.037,463.437 295.909,457.843 293.185,456.972C288.361,455.429 294.182,463.791 294.139,463.94C293.703,465.464 291.797,463.06 291.663,462.891C291.415,462.579 288.816,459.299 287.671,459.908C286.127,460.729 289.372,465.405 289.452,465.795C290.373,470.287 285.964,461.965 283.272,462.283C279.873,462.685 287.326,469.218 285.072,470.007C284.158,470.327 284.35,469.75 282.357,466.643C281.853,465.858 278.652,463.336 278.385,465.806C278.09,468.543 280.563,472.21 280.658,472.595C281.53,476.133 276.719,469.801 275.722,469.082C269.584,464.653 275.917,474.856 275.814,475.633C275.422,478.583 272.317,470.514 269.11,470.499C266.107,470.485 270.718,477.816 270.693,478.113C270.325,482.61 267.526,472.193 264.821,472.686C261.52,473.287 265.783,477.685 265.676,480.003C265.459,484.744 263.058,474.811 260.481,474.814C255.745,474.82 261.715,482.357 260.985,483.585C259.74,485.678 257.653,477.363 255.526,477.039C251.009,476.352 257.823,485.024 255.606,485.124C255.063,485.149 253.319,481.495 253.158,481.159C253.043,480.918 252.201,479.153 250.622,478.988C245.681,478.472 251.721,486.686 250.726,487.456C249.542,488.373 247.089,481.8 245.756,481.602C242.228,481.079 246.621,488.593 246.273,489.167C245.058,491.172 243.018,483.903 241.384,483.768C238.897,483.563 242.167,490.289 242.188,490.397C242.794,493.458 239.48,491.008 237.874,483.008C237.311,480.203 246.631,479.477 270.273,467.522C294.967,455.034 302.494,446.108 314.417,437.182C316.915,435.312 318.628,433.787 319.755,432.754C327.535,425.623 327.97,425.113 328.603,424.371C333.761,418.321 318.577,406.279 329.551,401.383C331.527,400.501 334.822,410.305 334.813,410.345C334.153,413.419 330.275,404.314 329.461,404.156C325.81,403.444 333.684,413.057 333.719,413.472C334.039,417.221 328.407,407.223 327.792,409.227C326.874,412.219 336.973,417.703 335.464,418.911C335.332,419.018 335.088,418.836 334.955,418.94ZM137.574,448.333C144.087,454.802 156.4,461.419 158.155,462.363C159.245,462.949 170.617,470.058 181.672,474.456C188.551,477.192 197.617,481.048 198.997,481.636C204.066,483.792 202.481,485.43 200.272,490.479C200.165,490.724 198.618,494.258 197.865,492.796C197.438,491.967 201.978,483.487 198.229,485.353C197.503,485.714 194.238,493.201 193.788,490.505C193.683,489.874 197.569,482.945 194.613,482.959C192.912,482.968 190.009,491.003 189.245,488.522C189.051,487.893 193.811,480.557 189.7,480.37C186.576,480.228 184.988,489.045 184.066,486.168C183.534,484.507 188.696,478.212 184.74,478.47C182.318,478.628 179.98,488.007 179.11,484.949C178.632,483.269 184.198,476.72 179.841,476.26C176.836,475.943 175.267,485.444 174.462,481.763C174.03,479.787 178.835,473.965 174.924,474.07C172.884,474.125 170.541,482.179 169.525,479.893C169.194,479.148 175.741,468.508 168.92,472.83C167.206,473.916 164.507,479.807 164.3,476.909C164.288,476.739 170.116,466.36 164.605,470.317C163.498,471.112 158.373,477.804 159.517,473.8C159.6,473.51 161.464,471.055 161.726,468.234C162.022,465.038 158.941,465.733 156.752,469.673C156.658,469.842 154.544,473.648 154.579,470.725C154.599,469.098 160.27,463.322 156.407,463.76C153.609,464.077 150.992,470.355 150.632,467.751C150.615,467.625 155.52,457.825 150.345,462.178C149.637,462.773 145.687,468.274 146.008,465.186C146.052,464.761 150.938,458.815 147.865,458.22C146.19,457.895 143.649,461.023 143.372,461.363C143.286,461.469 139.048,464.397 141.942,460.428C144.066,457.515 144.421,457.637 144.4,456.56C144.327,452.914 138.725,457.79 138.348,458.118C137.083,459.219 136.246,457.926 136.788,457.203C139.471,453.629 140.93,453.481 139.449,452.04C137.108,449.763 132.137,457.308 131.9,454.701C131.836,453.994 138.224,447.151 133.666,447.93C131.866,448.238 127.197,454.056 128.533,450.358C128.609,450.147 132.943,445.25 130.031,444.642C127.453,444.104 123.24,450.993 123.893,447.344C123.936,447.106 128.591,442.332 126.191,441.373C124.062,440.522 118.7,446.819 119.785,443.114C119.787,443.107 126.218,436.964 121.36,438.112C118.264,438.843 116.633,442.626 116.227,440.665C116.143,440.259 122.217,430.226 114.542,437.429C113.487,438.419 112.107,437.743 113.328,436.231C116.852,431.865 114.373,431.524 113.992,431.52C112.276,431.503 108.826,437.063 108.665,434.408C108.653,434.205 113.811,428.182 110.214,429.287C109.848,429.399 105.879,433.129 106.001,430.709C106.004,430.646 110.992,424.914 107.807,425.752C107.471,425.84 102.643,429.759 103.527,427.022C103.699,426.489 109.319,422.783 107.794,422.154C107.089,421.863 101.49,426.606 102.527,423.994C102.655,423.67 115.395,414.284 109.657,416.929C108.481,417.471 104.305,421.85 104.57,419.609C104.661,418.842 114.432,411.93 112.136,410.374C111.474,409.925 111.491,410.52 107.304,415.675C105.337,415.1 107.319,413.444 109.87,409.935C112.781,405.93 111.258,405.47 110.894,405.492C109.799,405.558 105.656,415.293 105.308,411.633C105.307,411.622 108.776,402.015 110.352,402.741C121.656,407.949 106.975,419.578 110.982,425.103C111.416,425.701 122.032,436.319 123.204,436.215L137.574,448.333Z" style="fill:rgb(11,11,11);"/>
    </g>
</svg>
