<?xml version="1.0" encoding="UTF-8" standalone="no"?>
<!DOCTYPE svg PUBLIC "-//W3C//DTD SVG 1.1//EN" "http://www.w3.org/Graphics/SVG/1.1/DTD/svg11.dtd">
<svg width="100%" height="100%" viewBox="0 0 275 97" version="1.1" xmlns="http://www.w3.org/2000/svg" xmlns:xlink="http://www.w3.org/1999/xlink" xml:space="preserve" xmlns:serif="http://www.serif.com/" style="fill-rule:evenodd;clip-rule:evenodd;stroke-linejoin:round;stroke-miterlimit:2;">
    <g id="Mesa-de-trabajo1" serif:id="Mesa de trabajo1" transform="matrix(0.623182,0,0,0.10136,0,0)">
        <rect x="0" y="0" width="440" height="956" style="fill:none;"/>
    </g>
    <g id="Mesa-de-trabajo11" serif:id="Mesa de trabajo1">
        <g transform="matrix(1,0,0,1,-82.904295,-362.864917)">
            <path d="M317.43,458.428C316.337,457.041 309.8,447.72 308.879,445.996C307.492,443.398 309.457,415.568 307.968,403.275C307.317,397.901 307.315,392.216 305.828,394.779C305.11,396.016 300.648,403.707 295.642,409.47C291.616,414.104 287.144,402.511 286.775,401.894C286.113,400.788 281.535,393.144 280.64,386.988C278.978,375.558 287.26,380.436 297.189,380.588C298.052,380.601 297.873,380.228 307.308,376.835C308.671,376.345 311.516,369.688 311.824,368.987C315.443,360.772 319.828,360.904 323.748,368.995C330.751,383.448 338.071,391.293 327.514,391.295C318.182,391.296 313.973,389.915 316.941,392.071C344.302,411.944 345.326,411.845 354.649,416.59C356.233,417.396 357.254,435.278 357.076,435.911C356.768,437.008 355.516,437.738 344.8,428.683C316.521,404.79 318.387,402.875 315.913,400.83C311.459,397.147 318.484,403.107 321.749,431.285C323.978,450.519 321.517,450.398 319.969,458.497C319.602,460.417 318.666,459.925 317.43,458.429L317.43,458.428Z" style="fill:rgb(25,25,25);"/>
        </g>
        <g transform="matrix(1,0,0,1,-82.904295,-362.864917)">
            <path d="M122.377,458.48C121.036,460.033 120.277,459.646 119.762,457.7C118.451,452.751 114.516,446.922 120.607,415.664C122.487,406.017 127.857,395.885 122.903,402.261C118.514,407.909 85.379,439.367 83.015,436.421C82.66,435.979 83.054,417.463 85.753,416.348C88.742,415.113 102.231,407.449 111.532,400.276C120.268,393.538 127.819,389.738 120.786,390.994C119.745,391.18 110.242,392.877 107.61,389.996C105.653,387.854 107.324,386.251 115.585,369.973C125.114,351.197 129.224,375.401 132.455,376.778C133.249,377.117 141.418,380.599 142.548,380.602C151.001,380.623 161.223,375.477 159.283,386.882C158.708,390.264 150.736,411.948 145.598,410.392C144.615,410.094 143.784,409.843 137.486,400.435C133.803,394.934 132.811,392.483 132.686,394.813C131.999,407.611 131.473,407.527 131.369,420.358C131.281,431.119 130.994,433.802 131.717,441.34C132.175,446.11 127.963,450.671 122.376,458.482L122.377,458.48Z" style="fill:rgb(26,26,26);"/>
        </g>
        <g transform="matrix(1.000861,0,0,1,-83.015371,-362.092193)">
            <path d="M130.838,392.548C131.87,396.056 128.059,396.1 129.424,438.23C129.604,443.777 130.096,444.12 125.176,451.251C122.428,455.235 121.78,456.138 121.555,456.037C116.075,453.584 121.449,406.05 130.838,392.548ZM311.704,397.959C313.264,402.309 324.593,433.895 318.869,455.279C318.579,456.363 318.085,456.168 317.442,455.302C306.966,441.18 310.418,439.267 310.479,438.235C310.672,434.979 310.581,409.024 310.25,405.606C309.725,400.186 307.028,386.883 310.8,396.053C311.067,396.703 311.437,397.308 311.704,397.959ZM126.407,395.655C123.391,398.851 100.595,423 86.429,433.329C83.674,435.337 84.944,432.344 85.223,428.915C85.569,424.656 84.986,419.193 88.232,417.42C117.324,401.528 129.153,387.037 129.361,390.81C129.402,391.555 126.675,395.288 126.407,395.655ZM314.12,396.414C311.952,393.654 311.946,393.718 311.483,392.966C308.385,387.939 313.151,390.968 313.304,391.109C314.996,392.667 322.06,399.175 336.238,408.443C344.368,413.757 344.839,412.855 352.987,418.221C354.616,419.294 355.108,432.216 355.155,433.445C355.163,433.665 354.828,434.654 352.532,432.622C335.328,417.395 334.374,418.454 314.12,396.414ZM154.95,393.923C153.784,396.839 147.846,409.626 145.869,408.351C145.778,408.292 134.192,393.84 135.585,392.408C136.082,391.897 136.722,392.149 138.991,389.528C143.249,384.609 141.55,382.637 144.116,382.521C153.389,382.104 159.392,378.616 157.048,387.645C156.915,388.158 156.892,388.11 154.95,393.923ZM304.222,392.358C304.176,392.659 305.146,393.197 302.758,396.345C294.337,407.447 293.988,410.407 292.123,407.687C290.583,405.441 277.01,381.563 284.765,381.445C287.324,381.406 296.993,382.682 297.214,383.038C298.81,385.605 297.218,387.356 304.222,392.358ZM314.291,388.579C313.664,388.414 312.179,388.436 312.024,386.923C311.262,379.496 308.43,379.607 309.93,377.017C314.129,369.765 315.245,364.848 317.435,364.732C320.45,364.572 330.621,386.528 330.825,387.701C331.145,389.539 328.555,389.921 314.291,388.579ZM125.447,388.604C110.478,389.976 108.158,389.588 109.262,386.995C111.325,382.149 119.687,364.822 122.335,364.714C124.677,364.618 130.27,378.149 130.197,378.412C129.002,382.755 128.337,382.523 127.832,386.95C127.66,388.454 125.876,388.494 125.447,388.604ZM305.572,390.517C300.469,388.585 298.779,382.527 299.847,381.841C306.52,377.556 309.815,378.227 310.033,386.131C310.047,386.631 310.067,387.322 305.572,390.517ZM133.044,389.459C129.41,387.2 129.11,386.423 131.248,380.893C131.5,380.242 132.683,377.181 139.926,381.814C141.244,382.657 139.634,386.52 136.063,389.771C134.761,390.956 134.588,390.318 133.044,389.459Z" style="fill:rgb(253,253,253);"/>
        </g>
    </g>
</svg>
