<?xml version="1.0" encoding="UTF-8" standalone="no"?>
<!DOCTYPE svg PUBLIC "-//W3C//DTD SVG 1.1//EN" "http://www.w3.org/Graphics/SVG/1.1/DTD/svg11.dtd">
<svg width="100%" height="100%" viewBox="0 0 304 235" version="1.1" xmlns="http://www.w3.org/2000/svg" xmlns:xlink="http://www.w3.org/1999/xlink" xml:space="preserve" xmlns:serif="http://www.serif.com/" style="fill-rule:evenodd;clip-rule:evenodd;stroke-linejoin:round;stroke-miterlimit:2;">
    <g id="Mesa-de-trabajo1" serif:id="Mesa de trabajo1" transform="matrix(0.690909,0,0,0.245084,0,0)">
        <rect x="0" y="0" width="440" height="956" style="fill:none;"/>
    </g>
    <g id="Mesa-de-trabajo11" serif:id="Mesa de trabajo1">
        <g transform="matrix(1,0,0,1,-68.006031,-330.290319)">
            <path d="M229.713,547.987C226.215,543.897 226.057,544.106 222.635,539.917C218,534.244 217.965,541.283 197.022,562.994C194.994,565.097 194.612,564.333 191.942,563.392C181.487,559.706 181.936,558.866 171.846,554.216C163.665,550.445 163.578,550.671 162.869,550.34C117.208,529.06 89.017,501.681 88.863,501.553C69.071,485.179 65.908,484.76 69.062,477.706C77.759,458.257 70.951,455.031 70.025,453.429C68.264,450.385 88.027,416.811 90.229,413.463C103.039,393.981 110.176,399.746 119.352,386.597C122.602,381.941 126.396,381.356 126.147,376.519C125.948,372.647 130.238,371.333 129.817,369.031C128.909,364.072 129.158,363.955 131.175,360.719C132.202,359.071 128.662,355.29 131.994,351.572C134.937,348.287 130.802,346.472 133.73,342.372C137.192,337.524 132.688,335.543 137.032,331.547C139.37,329.396 145.835,330.725 146.935,331.303C149.723,332.768 150.477,331.259 152.764,332.183C156.055,333.513 155.891,334.057 159.442,334.072C161.405,334.08 164.345,335.701 165.233,335.867C170.155,336.79 169.726,338.106 173.695,338.556C177.543,338.992 177.567,338.502 181.155,339.857C182.893,340.514 184.661,338.347 187.922,340.511C190.1,341.956 190.305,341.046 192.918,341.244C196.312,341.501 196.38,342.579 199.502,341.201C202.475,339.889 202.942,342.017 205.437,341.331C206.025,341.17 206.599,340.962 207.189,340.809C210.604,339.924 210.512,342.593 213.886,341.612C220.68,339.637 226.341,342.274 228.113,341.595C231.356,340.352 231.387,340.651 234.724,341.419C236.641,341.86 237.183,340.117 239.886,341.042C243.078,342.135 243.115,342.116 246.422,341.308C248.468,340.808 249.075,342.57 251.583,340.734C255.108,338.154 256.702,340.671 258.989,339.735C262.22,338.413 262.194,338.511 265.673,338.571C267.636,338.605 270.648,336.625 272.331,336.245C279.446,334.641 279.283,334.16 279.911,334.104C283.491,333.785 283.594,334.176 286.671,332.357C288.169,331.471 291.232,332.04 291.556,331.924C292.203,331.693 297.031,329.973 300,330.342C306.882,331.198 302.811,337.866 305.916,342.167C309.157,346.655 305.613,348.895 306.818,350.506C309.83,354.531 309.123,354.879 308.319,359.797C308.026,361.59 311.781,361.181 310.256,368.225C309.329,372.509 313.991,372.069 313.716,376.542C313.389,381.861 316.231,380.584 320.598,386.754C328.846,398.408 341.297,397.084 353.322,419.288C370.581,451.158 370.882,451.913 369.622,453.649C364.765,460.34 364.775,462.854 371.109,478.551C373.003,483.246 372.435,484.14 363.592,491.177C350.38,501.689 329.79,521.152 308.576,533.318C303.694,536.118 274.211,553.026 245.547,564.56C242.567,565.759 230.788,549.474 229.714,547.988L229.713,547.987Z" style="fill:rgb(21,21,21);"/>
            <path d="M200.461,395.569C219.967,398.313 234.705,395.835 250.609,394.804C274.062,393.284 289.879,382.697 292.395,385.767C295.553,389.62 295.46,393.347 299.453,401.447C300.784,404.148 303.96,410.59 312.575,436.727C312.801,437.411 313.325,437.389 313.314,459.33C313.308,472.442 303.099,491.364 281.301,507.48C263.177,520.88 262.315,519.646 244.969,534.026C244.389,534.507 244.408,534.514 237.777,540.111C232.869,544.254 231.893,547.436 227.577,542.648C227.106,542.125 223.388,538 221.753,536.055C218.94,532.709 218.23,536.22 210.376,544.552C208.111,546.955 205.896,543.884 199.635,538.746C180.571,523.101 180.734,522.982 172.256,517.49C143.805,499.058 145.111,496.843 132.928,481.721C123.9,470.516 125.62,449.779 125.552,440.938C125.537,438.979 125.689,439.01 132.696,417.512C136.893,404.635 138.454,405.333 142.968,392.505C146.707,381.881 149.83,385.241 151.85,385.917C183.327,396.457 196.913,395.322 200.461,395.567L200.461,395.569Z" style="fill:rgb(254,254,254);"/>
            <path d="M302.435,382.146C310.299,380.824 310.907,379.53 313.978,382.585C320.398,388.972 319.028,390.177 322.82,392.894C339.575,404.901 342.493,402.873 357.612,431.763C367.501,450.657 368.649,451.167 366.545,454.069C365.476,455.544 360.726,462.096 367.945,476.792C370.649,482.296 369.937,483.045 365.268,487C337.472,510.544 328.142,517.559 324.8,520.071C300.092,538.648 250.845,560.667 245.582,561.793C244.469,562.031 240.117,557.764 238.287,555.355C232.899,548.265 231.391,547.83 233.154,546.427C254.982,529.052 254.565,528.568 256.516,527.13C281.869,508.455 287.371,510.218 305.835,485.268C307.115,483.539 315.47,472.248 315.472,460.16C315.476,438.743 315.424,438.573 314.882,436.782C311.802,426.61 311.329,426.827 308.181,416.718C306.304,410.692 295.461,386.55 295.34,386.357C293.327,383.15 296.189,383.424 302.433,382.145L302.435,382.146Z" style="fill:rgb(254,254,254);"/>
            <path d="M141.105,382.937C143.607,383.455 145.508,382.561 144.414,384.894C142.084,389.866 141.749,389.655 139.977,394.841C138.811,398.254 133.335,407.82 130.415,417.577C127.628,426.889 127.399,426.753 124.253,435.889C123.603,437.775 121.826,459.826 125.418,470.957C128.739,481.249 139.322,497.042 156.893,509.575C178.926,525.291 179.772,524.065 186.722,530.767C188.975,532.939 202.539,544.08 206.053,546.615C208.821,548.611 206.147,549.072 201.731,555.206C200.699,556.64 195.375,561.93 194.559,561.842C189.626,561.311 158.885,545.85 150.136,541.544C116.975,525.225 90.483,499.646 72.763,485.679C68.353,482.203 70.218,481.179 72.215,475.967C80.022,455.589 72.071,454.598 72.136,451.801C72.152,451.132 89.547,414.646 98.698,406.149C109.995,395.66 113.082,399.08 121.271,387.608C126.528,380.243 128.501,380.534 129.344,380.659C130.054,380.764 130.022,380.772 141.106,382.939L141.105,382.937Z" style="fill:rgb(254,254,254);"/>
            <path d="M247.346,350.379C235.364,349.752 193.88,351.333 184.625,349.389C183.021,349.052 167.216,345.261 168.898,347.968C170.11,349.918 188.211,350.908 188.751,353.099C188.884,353.639 190.43,359.919 187.057,359.843C176.022,359.597 165.008,355.143 166.926,358.151C168.605,360.784 188.145,361.81 188.56,362.399C188.849,362.809 189.82,368.039 187.052,368.154C186.556,368.175 177.96,368.532 181.296,370.461C182.225,370.998 188.803,368.707 188.836,372.337C188.883,377.613 190.624,380.754 185.424,379.678C172.98,377.103 172.554,379.719 150.348,373.668C141.984,371.389 142.037,371.453 133.635,369.429C129.707,368.483 131.547,361.388 134.373,361.665C136.76,361.899 172.83,368.716 173.64,368.111C176.806,365.743 172.176,366.352 137.778,360.215C128.336,358.53 133.929,351.445 136.031,351.843C137.602,352.14 137.439,352.714 155.339,357.006C155.919,357.145 165.646,359.477 162.78,356.469C161.917,355.563 136.13,351.926 135.17,348.094C132.676,338.138 144.736,343.668 149.448,344.559C151.37,344.922 164.866,348.36 160.248,344.799C159.548,344.259 137.837,340.424 137.534,338.949C135.312,328.113 145.342,334.368 150.265,334.022C152.935,333.834 153.98,336.329 156.931,336.229C162.092,336.054 161.82,337.36 166.924,338.332C169.14,338.754 171.43,340.9 174.517,340.781C179.616,340.586 179.48,342.351 184.563,341.729C186.708,341.467 187.865,344.135 190.384,343.8C195.492,343.12 195.707,345.119 200.479,343.161C202.128,342.484 203.222,344.252 205.374,343.626C208.412,342.742 208.464,342.603 211.344,343.821C213.516,344.74 215.611,342.943 217.165,343.045C221.415,343.324 221.511,342.307 225.558,343.83C228.543,344.953 229.734,342.266 232.255,342.916C235.162,343.665 235.176,343.73 238.06,342.998C239.268,342.692 241.616,344.798 244.002,344.231C246.922,343.538 246.864,343.756 249.789,343.83C252.227,343.892 252.958,341.372 255.604,341.757C259.034,342.257 258.929,341.455 262.36,340.714C262.976,340.581 266.567,341.043 268.112,340.365C281.667,334.419 282.916,337.178 285.74,335.519C288.414,333.949 288.517,334.448 291.634,334.17C292.25,334.115 292.036,333.205 299.166,332.413C302.207,332.075 305.215,338.853 300.024,340.044C279.615,344.727 278.07,344.961 279.173,346.31C280.546,347.99 301.239,340.691 303.218,342.375C306.484,345.155 304.686,349.32 303.324,349.771C285.08,355.82 274.643,355.407 276.818,357.876C278.327,359.589 303.74,351.491 305.076,352.067C305.574,352.282 311.129,358.553 302.531,360.081C298.279,360.837 298.329,360.8 276.609,364.318C275.753,364.457 260.319,366.956 266.492,368.217C267.663,368.456 269.98,367.443 289.073,364.66C290.356,364.473 290.245,364.274 305.008,361.706C308.484,361.101 310.561,368.394 305.744,369.492C283.246,374.618 283.653,376.591 260.643,378.843C252.811,379.609 248.418,381.659 248.151,379.86C248.138,379.774 248.09,370.997 248.208,370.697C248.777,369.241 261.022,371.875 258.909,369.046C258.13,368.002 251.846,368.14 250.633,368.008C246.918,367.605 248.27,366.068 248.067,362.294C251.83,361.948 271.292,360.9 272.955,358.01C274.655,355.054 261.305,360.583 248.058,359.804C248.087,357.571 248.116,355.339 248.145,353.106C252.748,351.049 275.918,349.155 270.536,346.767C269.137,346.146 254.642,350.115 247.347,350.375L247.346,350.379Z" style="fill:rgb(252,252,252);"/>
            <path d="M248.318,383.294C249.627,383.008 255.47,381.354 259.87,381.045C286.565,379.173 293.902,373.377 306.658,371.477C309.053,371.12 311.577,374.996 311.466,376.509C311.228,379.766 304.976,377.783 269.881,389.145C254.75,394.043 228.581,393.916 224.734,394.361C218.457,395.086 218.497,394.177 212.146,394.211C205.385,394.248 205.493,393.613 198.763,393.256C197.758,393.203 187.456,392.657 186.202,392.558C168.825,391.189 169.859,386.692 131.859,378.977C131.457,378.895 126.997,377.99 128.695,374.937C131.536,369.83 133.658,371.161 151.197,376.139C172.285,382.124 178.395,379.879 187.1,382.262C190.377,383.159 187.441,388.669 190.393,389.104C190.764,389.159 245.933,389.129 246.442,389.113C248.287,389.055 248.18,386.322 248.318,383.293L248.318,383.294Z" style="fill:rgb(252,252,252);"/>
            <path d="M226.452,363.707C227.783,363.138 227.83,363.313 228.924,362.361C231.639,359.999 230.212,365.234 230.107,365.699C229.629,365.619 229.747,364.832 228.097,365.364C224.815,366.423 227.616,367.91 227.785,367.828C227.989,367.729 227.846,367.645 230.076,366.162C233.31,367.357 232.58,368.108 232.404,368.289C231.626,369.09 229.401,368.245 230.294,370.791C230.996,372.792 230.788,372.776 230.417,374.798C230.265,374.906 230.274,374.893 228.794,375.766C227.554,371.943 229.138,367.764 226.325,370.64C225.86,370.852 225.276,370.672 224.811,370.884C224.657,370.954 224.585,372.621 224.877,373.046C225.202,373.517 225.448,372.758 225.784,373.185C226.109,373.598 225.34,373.633 225.634,374.007C225.921,374.83 225.849,374.777 226.118,376.39C225.655,376.4 225.192,376.411 224.729,376.421L223.878,375.627C222.592,374.837 222.668,374.806 221.283,374.227C217.82,372.724 217.769,373.799 216.304,374.81L215.465,374.809C214.935,372.701 214.179,373.175 213.16,371.186C211.049,367.066 213.63,375.908 209.043,376.442C209.096,375.588 209.149,374.734 209.202,373.88C209.174,372.224 209.319,372.257 208.932,370.655L208.345,369.815C207.493,368.048 207.486,368.115 206.51,366.35C199.855,360.381 211.339,365.218 213.096,364.197C216.539,362.196 216.534,361.724 220.507,362.325C222.151,362.574 223.806,361.454 224.688,361.525C225.684,361.604 225.414,361.997 226.454,363.708L226.452,363.707Z" style="fill:rgb(212,212,212);"/>
            <path d="M224.875,358.762C231.711,360.785 232.282,360.183 236.733,365.738C237.428,374.314 234.873,375.265 231.329,377.546C230.546,375.816 230.542,375.831 230.484,375.678C230.316,375.24 230.593,375.256 230.418,374.798C230.789,372.776 230.997,372.793 230.295,370.791C229.402,368.244 231.627,369.09 232.405,368.289C232.581,368.108 233.31,367.357 230.077,366.162L230.108,365.699C230.213,365.234 231.64,359.998 228.925,362.361C227.831,363.313 227.784,363.138 226.453,363.707C225.414,361.996 225.683,361.604 224.687,361.524C223.805,361.454 222.15,362.573 220.506,362.324C216.533,361.723 216.539,362.196 213.095,364.196C211.338,365.217 199.854,360.379 206.509,366.349C205.927,366.779 205.345,367.209 204.763,367.638C203.138,369.048 204.768,369.381 204.68,371.505C204.663,371.913 204.638,372.517 209.202,373.879C209.149,374.733 209.096,375.587 209.043,376.441C208.658,377.104 208.274,377.768 207.889,378.431C207.241,377.94 206.403,377.505 206.268,377.435C195.992,372.102 200.655,363.083 206.259,360.833C215.53,357.111 223.399,358.5 224.875,358.761L224.875,358.762Z" style="fill:rgb(11,11,11);"/>
            <path d="M211.138,356.829C212.754,356.642 219.002,355.303 224.872,356.819L225.298,356.956C224.757,357.771 224.732,357.726 224.875,358.763C223.399,358.503 215.53,357.114 206.259,360.835C200.655,363.084 195.992,372.104 206.268,377.437C206.403,377.507 207.241,377.942 207.889,378.433C218.765,382.798 225.624,379.785 226.108,379.693C226.478,380.292 226.847,380.891 227.217,381.49C224.203,382.134 223.844,384.152 208.185,381.165C207.88,381.107 199.718,376.874 198.749,372.348C197.874,368.261 197.176,367.97 199.538,364.581C202.552,360.256 202.803,360.25 206.566,359.067C207.328,358.555 208.09,358.043 208.853,357.531L209.627,357.259C210.131,357.116 210.635,356.973 211.14,356.83L211.138,356.829Z" style="fill:rgb(159,159,159);"/>
            <path d="M226.326,370.641C229.139,367.765 227.555,371.944 228.795,375.767C229.595,376.882 229.551,376.88 229.759,378.261C229.464,378.367 227.252,379.165 226.108,379.693C225.624,379.785 218.765,382.798 207.889,378.433C208.274,377.77 208.658,377.106 209.043,376.443C213.63,375.909 211.049,367.067 213.16,371.187C214.179,373.176 214.935,372.702 215.465,374.81C213.106,375.533 212.429,374.942 212.233,376.541C212.074,377.833 212.604,377.809 213.838,377.437C214.43,377.259 214.997,377.002 215.593,376.838C219.803,375.683 220.496,378.467 223.878,375.627L224.729,376.421C225.192,376.411 225.655,376.4 226.118,376.39C225.849,374.777 225.921,374.831 225.634,374.007C226.345,372.381 226.365,372.44 226.324,370.641L226.326,370.641Z" style="fill:rgb(11,11,11);"/>
            <path d="M248.057,359.808C261.304,360.587 274.654,355.057 272.954,358.014C271.292,360.904 251.829,361.951 248.066,362.298C247.864,360.977 247.925,361.062 248.057,359.808Z" style="fill:rgb(38,38,38);"/>
            <path d="M238.202,364.575C239.213,366.211 238.982,366.257 239.316,368.126C239.166,368.678 239.017,369.229 238.867,369.781C238.554,378.769 228.501,381.181 227.217,381.489C226.847,380.89 226.478,380.291 226.108,379.692C227.252,379.165 229.464,378.367 229.759,378.26C230.282,378.022 230.806,377.784 231.329,377.546C234.873,375.265 237.428,374.314 236.733,365.738C237.223,365.35 237.712,364.962 238.202,364.574L238.202,364.575Z" style="fill:rgb(173,173,173);"/>
            <path d="M227.119,356.748C227.672,356.984 228.225,357.22 228.779,357.456C229.453,358.058 229.371,358.066 230.225,358.293C234.894,360.556 235.075,360.388 238.203,364.575C237.713,364.963 237.224,365.351 236.734,365.739C232.283,360.184 231.712,360.786 224.876,358.763C224.733,357.727 224.757,357.771 225.299,356.956C225.906,356.887 226.513,356.818 227.12,356.748L227.119,356.748Z" style="fill:rgb(181,181,181);"/>
            <path d="M221.284,374.228C222.669,374.807 222.593,374.838 223.879,375.628C220.497,378.468 219.803,375.685 215.594,376.839C214.998,377.003 214.431,377.259 213.839,377.438C212.605,377.81 212.075,377.834 212.234,376.542C212.43,374.943 213.107,375.533 215.466,374.811L216.305,374.812C218.037,374.903 217.948,374.884 219.669,374.99C220.876,375.064 220.639,374.533 221.284,374.229L221.284,374.228Z" style="fill:rgb(191,191,191);"/>
            <path d="M222.796,370.746C223.396,375.692 220.837,371.551 220.791,371.389C220.15,369.139 220.444,369.013 218.92,367.258C218.08,366.291 218.255,366.241 218.251,364.968C218.205,352.631 222.652,370.176 222.797,370.746L222.796,370.746Z" style="fill:rgb(18,18,18);"/>
            <path d="M204.763,367.639C206.629,369.278 206.268,371.257 208.345,369.814L208.932,370.654C209.319,372.256 209.174,372.224 209.202,373.879C204.638,372.518 204.663,371.914 204.68,371.505C204.768,369.381 203.138,369.048 204.763,367.638L204.763,367.639Z" style="fill:rgb(161,161,161);"/>
            <path d="M217.28,369.831C216.949,375.286 214.994,369.9 214.96,369.761C213.817,365.185 215.886,365.777 216.039,365.957C216.599,366.617 217.213,369.512 217.28,369.83L217.28,369.831Z" style="fill:rgb(14,14,14);"/>
            <path d="M225.004,365.586C225.179,368.866 224.738,368.739 224.648,368.921C224.531,368.699 224.032,368.971 223.915,368.749C223.729,368.397 222.327,365.739 223.675,363.782C224.637,362.385 224.964,365.419 225.004,365.586Z" style="fill:rgb(72,72,72);"/>
            <path d="M206.509,366.35C207.485,368.115 207.492,368.048 208.344,369.815C206.268,371.257 206.629,369.279 204.762,367.64C205.344,367.21 205.926,366.78 206.508,366.351L206.509,366.35Z" style="fill:rgb(81,81,81);"/>
            <path d="M230.108,365.7L230.077,366.163C227.847,367.646 227.99,367.73 227.786,367.829C227.618,367.911 224.816,366.424 228.098,365.365C229.748,364.833 229.63,365.62 230.108,365.7Z" style="fill:rgb(82,82,82);"/>
            <path d="M221.284,374.228C220.639,374.532 220.876,375.063 219.669,374.989C217.947,374.883 218.036,374.903 216.305,374.811C217.77,373.8 217.822,372.725 221.284,374.228Z" style="fill:rgb(97,97,97);"/>
            <path d="M210.419,369.529C208.012,366.511 209.273,366.143 209.553,366.131C211.878,366.029 210.866,367.204 210.419,369.529Z" style="fill:rgb(54,54,54);"/>
            <path d="M230.418,374.799C230.593,375.256 230.316,375.24 230.484,375.679C230.543,375.832 230.547,375.817 231.329,377.547C230.806,377.785 230.282,378.023 229.759,378.261C229.551,376.88 229.595,376.882 228.795,375.767C230.275,374.894 230.266,374.907 230.418,374.799Z" style="fill:rgb(105,105,105);"/>
            <path d="M226.326,370.641C226.366,372.44 226.347,372.381 225.636,374.007C225.341,373.633 226.111,373.598 225.786,373.185C225.45,372.758 225.204,373.517 224.879,373.046C224.587,372.622 224.658,370.954 224.813,370.884C225.278,370.672 225.862,370.852 226.327,370.64L226.326,370.641Z" style="fill:rgb(136,136,136);"/>
            <path d="M239.316,368.126C240.307,368.404 241.796,368.632 241.951,369.11C242.029,369.35 241.999,369.714 238.867,369.781C239.017,369.229 239.166,368.678 239.316,368.126Z" style="fill:rgb(91,91,91);"/>
            <path d="M247.346,350.379C254.642,350.119 269.137,346.15 270.535,346.771C275.916,349.159 252.747,351.053 248.144,353.11C248.012,352.668 248.243,352.697 248.115,352.27C248.068,352.114 248.058,352.13 247.345,350.38L247.346,350.379Z" style="fill:rgb(33,33,33);"/>
            <path d="M224.872,356.819C224.872,356.6 224.876,354.306 224.978,354.083C226.006,351.824 227.059,356.481 227.119,356.748C226.512,356.817 225.905,356.886 225.298,356.956L224.872,356.819Z" style="fill:rgb(84,84,84);"/>
            <path d="M228.778,357.456C230.424,355.794 230.354,355.693 230.553,355.664C232.219,355.421 230.344,358.119 230.223,358.293C229.369,358.066 229.452,358.059 228.777,357.456L228.778,357.456Z" style="fill:rgb(105,105,105);"/>
            <path d="M208.852,357.53C208.09,358.042 207.328,358.554 206.565,359.066C206.47,358.903 203.666,354.095 207.03,356.754C207.379,357.03 207.594,357.494 208.004,357.668C208.267,357.78 208.589,357.418 208.852,357.53Z" style="fill:rgb(94,94,94);"/>
            <path d="M210.438,354.713L211.083,355.051C211.101,355.644 211.12,356.236 211.138,356.829C210.634,356.972 210.13,357.115 209.625,357.258C209.876,355.932 209.822,355.963 210.438,354.713Z" style="fill:rgb(94,94,94);"/>
        </g>
    </g>
</svg>
