<?xml version="1.0" encoding="UTF-8" standalone="no"?>
<!DOCTYPE svg PUBLIC "-//W3C//DTD SVG 1.1//EN" "http://www.w3.org/Graphics/SVG/1.1/DTD/svg11.dtd">
<svg width="100%" height="100%" viewBox="0 0 304 235" version="1.1" xmlns="http://www.w3.org/2000/svg" xmlns:xlink="http://www.w3.org/1999/xlink" xml:space="preserve" xmlns:serif="http://www.serif.com/" style="fill-rule:evenodd;clip-rule:evenodd;stroke-linejoin:round;stroke-miterlimit:2;">
    <g id="Mesa-de-trabajo1" serif:id="Mesa de trabajo1" transform="matrix(0.690909,0,0,0.245084,0,0)">
        <rect x="0" y="0" width="440" height="956" style="fill:none;"/>
    </g>
    <g id="Mesa-de-trabajo11" serif:id="Mesa de trabajo1">
        <g transform="matrix(1.194627,0,0,1.197209,-110.819542,-409.64039)">
            <g>
                <path d="M109.54,484.18C91.882,471.089 92.38,469.594 92.969,467.827C96.35,457.679 100.721,453.213 95.079,445.482C94.701,444.964 93.718,443.618 97.082,437.715C97.937,436.215 102.942,427.433 107.411,418.759C118.656,396.933 130.873,397.015 134.636,391.381C137.416,387.219 137.485,387.323 141.038,383.739C143.063,381.697 140.472,380.556 143.051,377.415C145.06,374.968 144.569,374.72 144.318,372.718C143.805,368.624 145.943,368.118 146.118,367.146C146.616,364.387 143.433,363.619 147.253,359.258C148.492,357.844 145.46,355.454 148.32,351.825C150.979,348.452 147.112,345.937 151.161,342.857C152.961,341.488 158.255,342.527 158.688,342.752C160.978,343.943 161.2,342.782 163.563,343.569C166.416,344.519 166.186,345.253 169.22,345.23C171.521,345.213 173.034,346.658 174.799,346.941C179.457,347.69 179.189,349.032 183.899,348.971C187.171,348.929 186.977,350.389 190.224,349.937C193.027,349.547 193.787,351.828 195.735,351.508C199.774,350.843 199.984,352.899 202.621,351.478C205.622,349.861 206.028,351.846 207.747,351.413C210.571,350.702 210.623,350.541 213.317,351.634C214.518,352.121 219.506,349.881 225.196,351.641C227.193,352.259 227.756,350.439 230.094,350.768C232.509,351.108 232.51,351.587 234.894,350.903C236.53,350.434 237.677,351.853 239.114,351.98C241.983,352.231 241.905,351.233 244.752,351.552C246.149,351.709 247.207,349.637 249.606,349.914C252.222,350.216 252.193,350.107 254.584,349.168C257.71,347.94 258.075,349.578 261.674,347.921C263.638,347.017 265.81,346.903 266.33,346.685C269.396,345.399 269.351,345.293 272.696,345.307C274.374,345.314 275.686,343.395 277.596,343.409C279.774,343.424 279.751,343.37 281.751,342.593C282.317,342.373 286.892,342.107 287.342,342.201C292.882,343.364 289.3,348.541 291.945,351.997C294.58,355.44 290.939,356.756 293.723,360.121C296.609,363.608 292.654,365.6 294.725,368.285C297.754,372.214 293.96,373.796 295.947,376.099C298.504,379.063 298.124,379.316 298.332,382.586C298.387,383.456 302.806,387.041 304.521,389.75C310.196,398.711 316.449,394.717 327.786,410.606C328.776,411.993 347.296,442.612 345.197,445.287C338.842,453.383 344.565,459.016 347.179,467.945C348.376,472.034 330.913,483.292 324.78,489.151C303.418,509.561 267.635,526.067 267.004,526.321C255.22,531.055 241.975,539.317 240.072,537.507C232.729,530.521 233.338,530.013 231.464,527.96C221.574,517.129 221.298,513.315 218.237,516.855C202.081,535.535 200.253,539.001 198.021,537.586C196.021,536.318 192.345,535.826 186.181,532.526C164.825,521.093 145.754,516.757 109.542,484.183L109.54,484.18Z" style="fill:rgb(20,20,20);"/>
                <path d="M234.217,397.006C234.741,396.953 235.906,396.685 239.136,396.507C267.908,394.915 268.804,389.141 274.795,389.535C275.885,389.607 284.222,399.224 286.997,403.274C296.002,416.42 295.989,416.343 304.255,430.026C305.548,432.166 311.616,442.211 317.938,458.131C322.851,470.504 322.531,470.58 328.403,482.592C329.127,484.072 326.428,485.214 324.624,486.912C316.148,494.893 315.699,494.27 308.422,500.079C289.595,515.107 246.117,534.093 244.632,534.655C241.587,535.806 240.684,536.344 235.795,530.646C220.737,513.099 220.795,512.922 220.231,512.842C218.299,512.567 204.231,531.534 200.411,534.642C199.584,535.315 197.649,536.889 187.524,531.245C175.968,524.803 169.686,523.827 146.941,510.314C135.837,503.717 122.806,493.48 122.338,493.045C117.451,488.497 110.918,484.124 111.753,482.479C121.267,463.728 119.505,462.981 128.553,444.015C130.761,439.386 144.73,410.107 163.82,390.474C166.558,387.658 178.315,394.725 190.892,395.817C192.458,395.953 209.999,397.476 210.474,397.47C220.838,397.35 220.77,398.034 221.656,397.905C227.938,396.985 227.941,397.598 234.218,397.007L234.217,397.006Z" style="fill:rgb(254,254,254);"/>
                <path d="M243.606,366.429C243.716,361.301 243.521,361.328 243.655,360.907C243.72,360.702 261.999,357.974 262.636,357.116C264.771,354.239 251.963,357.97 244.745,358.84C244.297,358.894 203.562,358.834 199.981,358.829C186.602,358.809 179,354.753 177.627,355.991C176.007,357.451 178.88,357.72 192.928,360.297C194.302,360.549 194.023,365.363 193.997,365.811C193.815,368.965 176.369,363.7 175.779,364.565C174.009,367.16 190.936,368.44 192.291,368.542C194.985,368.746 193.998,372.609 193.976,372.815C193.802,374.463 188.673,373.419 187.583,374.363C185.427,376.231 192.88,375.642 192.961,375.644C194.676,375.696 194.584,384.032 192.966,383.771C178.56,381.449 178.319,382.971 164.33,379.007C147.764,374.313 146.586,375.27 146.179,372.739C145.187,366.564 151.363,368.889 151.767,368.945C154.577,369.336 180.38,373.945 181.039,373.847C185.784,373.136 174.78,370.786 172.032,370.471C161.765,369.292 161.94,368.467 151.738,367.133C143.678,366.08 147.214,359.269 150.963,360.418C152.63,360.929 169.588,366.126 172.198,365.325C176.726,363.934 159.812,361.832 150.476,358.466C149.653,358.169 147.631,355.658 149.886,352.715C151.827,350.18 168.596,356.851 170.391,355.634C171.854,354.643 166.734,353.437 166.375,353.352C159.108,351.64 159.127,351.75 151.891,350.048C150.394,349.696 150.334,343.54 153.857,343.906C157.581,344.293 157.591,344.229 157.881,344.373C160.986,345.923 161.577,344.102 164.396,346.063C167.092,347.939 168.342,346.528 170.721,347.298C177.165,349.382 177.153,349.277 177.678,349.535C181.928,351.625 182.432,349.766 186.728,351.703C188.756,352.617 190.717,351.088 192.128,352.028C195.286,354.13 195.674,352.643 199.351,353.63C202.018,354.346 204.01,352.519 204.825,352.741C207.003,353.334 207.003,353.425 209.204,352.813C212.229,351.971 212.656,354.116 214.626,353.614C223.641,351.315 223.921,354.73 227.336,353.369C229.678,352.435 229.734,352.588 232.126,353.252C234.353,353.87 234.525,352.207 236.438,352.96C239.111,354.012 239.161,354.006 241.961,353.269C244.165,352.689 245.019,354.456 247.492,352.421C249.59,350.694 250.718,352.653 253.141,351.814C255.842,350.878 255.815,350.846 258.707,350.851C258.975,350.852 267.451,348.096 269.13,347.4C271.302,346.499 273.144,347.62 274.712,346.705C277.041,345.345 277.032,345.269 279.694,345.333C281.589,345.378 281.29,344.214 283.196,344.161C285.429,344.099 290.234,342.763 289.006,349.021C288.612,351.03 270.965,353.383 269.75,354.432C265.68,357.949 286.492,352.176 286.769,352.109C290.782,351.132 292.07,354.243 290.612,357.83C289.875,359.643 267.734,363.365 267.457,364.489C266.7,367.559 287.224,361.014 288.886,360.484C293.533,359.002 293.511,364.162 292.044,366.17C291.434,367.005 260.818,371.537 258.883,372.331C258.708,372.403 257.574,374.195 260.851,373.639C289.166,368.829 289.114,368.632 291.593,368.346C294.06,368.061 295.389,374.138 292.271,374.807C275.994,378.302 271.469,381.306 256.625,382.567C245.533,383.509 245.631,384.274 244.671,384.179C244.028,384.116 243.218,384.036 243.736,376.16C243.832,374.699 251.264,376.142 252.498,375.638C255.989,374.213 246.647,373.717 246.114,373.688C243.008,373.523 243.779,372.297 243.691,369.169C249.667,367.932 264.377,367.635 264.468,365.057C264.545,362.868 251.519,368.428 243.611,366.43L243.606,366.429Z" style="fill:rgb(252,252,252);"/>
                <path d="M287.342,385.83C294.949,384.334 296.228,383.949 297.244,384.506C297.537,384.667 301.287,388.237 302.688,390.278C309.603,400.357 320.782,399.376 330.489,418.326C330.522,418.39 341.304,438.074 343.038,442.088C344.664,445.853 339.366,447.181 340.695,453.828C343.032,465.521 346.683,467.304 344.459,470.423C344.054,470.991 333.845,479.513 332.313,480.653C329.793,482.529 329.568,481.002 328.132,478.226C316.016,454.818 321.676,451.858 292.857,408.489C284.537,395.969 279.614,392.071 277.83,389.433C276.649,387.686 284.909,386.343 287.343,385.831L287.342,385.83Z" style="fill:rgb(254,254,254);"/>
                <path d="M152.483,385.789C156.551,386.616 163.123,387.569 162.22,389.525C161.568,390.938 160.272,389.94 149.992,404.659C118.351,449.965 123.052,457.715 110.916,480.283C109.471,482.971 108.122,481.007 104.904,478.309C94.954,469.963 94.109,469.505 95.341,466.552C101.429,451.953 100.215,449.878 96.77,444.624C95.766,443.093 96.158,442.782 106.506,423.922C118.711,401.677 121.484,403.857 133.408,394.91C137.598,391.767 136.473,390.779 140.554,386.737C145.198,382.138 146.067,384.529 152.482,385.789L152.483,385.789Z" style="fill:rgb(254,254,254);"/>
                <path d="M232.844,391.32C238.376,391.32 243.496,391.737 243.618,390.305C243.905,386.933 243.234,386.29 244.74,386.06C254.519,384.565 254.486,384.718 264.343,383.436C275.709,381.958 292.131,375.029 294.296,377.041C294.622,377.344 299.231,381.629 295.08,382.55C285.199,384.744 285.12,384.288 275.469,387.35C253.645,394.273 253.475,393.537 230.733,395.59C226.521,395.97 226.533,395.484 222.372,395.961C220.77,396.144 191.819,394.711 184.609,392.978C165.224,388.316 165.705,386.647 146.107,382.742C140.38,381.601 145.048,375.912 148.294,376.672C167.446,381.153 167.089,382.961 186.709,384.517C193.969,385.093 194.008,386.786 194.022,387.415C194.092,390.511 194.145,391.236 197.183,391.315C197.768,391.33 229.991,391.32 232.844,391.319L232.844,391.32Z" style="fill:rgb(252,252,252);"/>
                <path d="M228.644,367.167C233.854,369.946 234.168,371.222 234.281,374.135C234.724,385.567 213.422,385.881 209.122,381.742C208.263,380.915 202.023,379.333 204.064,372.065C206.104,369.23 205.885,368.91 209.129,367.529C214.307,365.988 214.178,365.204 219.583,365.49C224.213,365.735 224.072,366.256 228.644,367.166L228.644,367.167Z" style="fill:rgb(13,13,13);"/>
                <path d="M224.456,364.359C224.928,364.313 225.4,364.267 225.871,364.222C225.897,364.229 226.589,364.026 227.802,365.205L228.838,365.618C231.46,366.985 234.75,367.499 236.269,373.462L236.158,374.678C235.34,376.336 235.912,378.739 233.38,380.916C230.485,383.406 225.391,388.137 210.481,384.595C205.995,383.529 198.599,375.382 202.762,371.308L204.062,372.067C202.021,379.335 208.261,380.916 209.12,381.744C213.421,385.883 234.723,385.569 234.279,374.137C234.166,371.223 233.851,369.947 228.642,367.169C224.07,366.259 224.211,365.738 219.581,365.493C214.176,365.207 214.305,365.991 209.127,367.532C209.108,366.649 209.109,366.702 209.231,365.818C209.425,365.61 209.62,365.401 209.814,365.193C218.37,362.354 223.648,364.253 224.454,364.362L224.456,364.359Z" style="fill:rgb(168,168,168);"/>
                <path d="M225.2,369.846L224.455,370.648C224.1,370.473 223.994,369.96 223.639,369.785C222.199,369.075 223.258,375.113 224.111,374.659C224.297,374.56 224.153,374.168 224.339,374.068C224.86,373.832 225.382,373.596 225.903,373.36C226.43,374.102 226.148,374.13 226.006,375.067L225.703,375.369C224.407,375.897 223.517,375.548 224.032,376.855C224.471,377.969 224.42,377.906 224.951,379.058C224.982,379.198 225.561,381.861 223.764,380.406C223.105,379.872 223.123,379.92 222.475,379.427C222.205,379.29 221.935,379.153 221.666,379.015C219.266,378.004 219.235,378.224 218.192,378.372C217.472,378.368 216.753,378.364 216.033,378.36C214.88,377.253 215.302,377.054 214.466,375.712C214.373,375.563 214.059,375.698 213.966,375.549L213.412,375.583C213.6,375.193 213.189,375.208 213.366,374.841C213.577,374.404 213.798,374.678 214.047,374.266C214.199,374.015 214.672,373.236 213.25,370.69C214.405,370.44 214.41,370.472 214.497,370.42C218.908,367.763 219.24,369.038 221.579,368.93C222.91,368.869 224.596,366.615 225.197,369.844L225.2,369.846Z" style="fill:rgb(205,205,205);"/>
                <path d="M243.606,366.429C251.514,368.428 264.54,362.867 264.463,365.056C264.372,367.634 249.662,367.931 243.686,369.168C243.66,368.255 243.633,367.342 243.607,366.429L243.606,366.429Z" style="fill:rgb(44,44,44);"/>
                <path d="M213.253,370.692C214.675,373.239 214.202,374.018 214.05,374.268C213.8,374.679 213.579,374.406 213.369,374.843C213.192,375.21 213.603,375.195 213.415,375.585L213.28,376.246C212.838,378.527 213.026,378.549 211.907,380.609C211.69,380.582 211.57,380.989 211.353,380.962C210.683,380.878 211.368,379.254 211.04,376.274L210.626,375.521C209.658,373.592 209.861,373.537 208.556,371.899C204.376,367.794 212.247,370.473 213.253,370.692Z" style="fill:rgb(230,230,230);"/>
                <path d="M229.298,368.548C228.624,371.094 227.494,372.06 230.073,372.693C232.154,373.204 229.137,374.371 228.984,374.43C227.826,374.878 230.043,377.467 228.509,380.363C226.965,383.278 227.956,375.505 226.008,375.068C226.15,374.131 226.431,374.102 225.905,373.361C226.959,373.18 227.152,373.169 227.138,372.063C227.131,371.561 227.149,371.441 226.606,371.495C226.397,371.516 226.024,371.553 224.298,372.742C224.351,372.044 224.404,371.346 224.457,370.649L225.202,369.847C227.434,369.846 227.124,368.688 229.3,368.55L229.298,368.548Z" style="fill:rgb(218,218,218);"/>
                <path d="M218.193,378.375C219.674,381.073 221.079,379.295 221.667,379.018C221.937,379.155 222.207,379.292 222.476,379.43C222.431,379.905 222.88,381.599 220.951,381.172C220.477,381.067 220.025,380.864 219.546,380.786C216.494,380.295 216.6,381.941 213.444,381.5C213.569,380.508 213.527,380.23 215.634,379.319C216.008,379.371 215.966,379.53 216.71,379.468C218.028,379.357 218.09,378.452 218.193,378.375Z" style="fill:rgb(193,193,193);"/>
                <path d="M222.77,377.329C219.956,377.862 221.964,375.017 219.562,373.44C217.531,372.107 218.752,369.65 220.849,370.813C221.324,371.077 221.493,371.17 222.77,377.329Z" style="fill:rgb(19,19,19);"/>
                <path d="M209.233,365.815C209.111,366.699 209.11,366.646 209.129,367.529C205.885,368.91 206.105,369.23 204.064,372.065L202.764,371.306C204.431,368.227 205.51,367.344 209.233,365.815Z" style="fill:rgb(121,121,121);"/>
                <path d="M213.968,375.551C214.061,375.7 214.375,375.565 214.468,375.714C215.303,377.057 214.882,377.255 216.035,378.362C215.902,378.681 215.768,378.999 215.635,379.318C213.527,380.229 213.57,380.507 213.445,381.499C212.932,381.202 212.42,380.905 211.907,380.608C213.025,378.549 212.838,378.527 213.28,376.245C213.51,376.013 213.739,375.782 213.969,375.55L213.968,375.551Z" style="fill:rgb(32,32,32);"/>
                <path d="M207.029,373.504C207.228,373.586 207.462,373.29 207.661,373.372C208.445,373.696 208.229,373.862 208.704,374.575C209.692,376.056 210.007,375.478 210.625,375.52L211.039,376.273C208.568,379.399 206.924,377.467 207.029,373.504Z" style="fill:rgb(183,183,183);"/>
                <path d="M217.826,376.858C217.455,376.685 216.267,377.67 215.704,374.105C215.221,371.048 216.479,371.485 216.62,371.641C218,373.174 217.847,376.43 217.826,376.858Z" style="fill:rgb(25,25,25);"/>
                <path d="M224.455,370.648C224.402,371.346 224.349,372.044 224.296,372.741C224.31,373.183 224.325,373.626 224.339,374.068C224.153,374.167 224.297,374.559 224.111,374.659C223.258,375.113 222.199,369.074 223.639,369.785C223.994,369.96 224.1,370.473 224.455,370.648Z" style="fill:rgb(69,69,69);"/>
                <path d="M208.555,371.899C209.86,373.537 209.657,373.592 210.625,375.521C210.007,375.479 209.691,376.057 208.704,374.576C208.228,373.863 208.445,373.696 207.661,373.373C207.462,373.291 207.228,373.587 207.029,373.505C207.538,372.97 208.046,372.435 208.555,371.899Z" style="fill:rgb(78,78,78);"/>
                <path d="M224.297,372.742C226.023,371.553 226.396,371.516 226.605,371.495C227.148,371.441 227.13,371.561 227.137,372.063C227.151,373.17 226.958,373.18 225.904,373.361C225.383,373.597 224.861,373.833 224.34,374.069C224.326,373.627 224.311,373.184 224.297,372.742Z" style="fill:rgb(89,89,89);"/>
                <path d="M224.456,364.359C224.428,364.135 223.885,359.726 225.563,361.769C225.689,361.922 225.64,361.946 225.871,364.222C225.399,364.268 224.927,364.314 224.456,364.359Z" style="fill:rgb(97,97,97);"/>
                <path d="M218.193,378.375C219.235,378.226 219.267,378.007 221.667,379.018C221.079,379.296 219.674,381.074 218.193,378.375Z" style="fill:rgb(68,68,68);"/>
                <path d="M225.705,375.37C225.122,378.492 225.175,378.482 224.953,379.059C224.422,377.907 224.473,377.969 224.034,376.856C223.519,375.549 224.409,375.898 225.705,375.37Z" style="fill:rgb(133,133,133);"/>
                <path d="M211.867,374.855C210.404,372.267 210.925,372.062 211.155,372.019C213.518,371.581 211.972,374.646 211.867,374.855Z" style="fill:rgb(37,37,37);"/>
                <path d="M227.803,365.205C228.551,363.661 228.487,363.618 228.611,363.537C231.316,361.773 228.93,365.476 228.839,365.617L227.803,365.204L227.803,365.205Z" style="fill:rgb(84,84,84);"/>
                <path d="M236.27,373.462C237.856,374.471 239.793,374.162 238.276,375.312C238.135,375.419 237.987,375.531 236.159,374.677L236.27,373.461L236.27,373.462Z" style="fill:rgb(98,98,98);"/>
                <path d="M216.034,378.362C216.754,378.366 217.473,378.37 218.193,378.374C218.09,378.45 218.028,379.356 216.71,379.467C215.966,379.529 216.008,379.37 215.634,379.318C215.767,378.999 215.901,378.681 216.034,378.362Z" style="fill:rgb(102,102,102);"/>
                <path d="M209.816,365.19C209.622,365.398 209.427,365.607 209.233,365.815C207.736,364.119 208.266,363.886 208.433,363.853C208.433,363.853 209.706,365.083 209.817,365.19L209.816,365.19Z" style="fill:rgb(100,100,100);"/>
                <path d="M213.414,375.585L213.968,375.551C213.738,375.783 213.509,376.014 213.279,376.246L213.414,375.585Z" style="fill:rgb(112,112,112);"/>
            </g>
        </g>
    </g>
</svg>
