<?xml version="1.0" encoding="UTF-8" standalone="no"?>
<!DOCTYPE svg PUBLIC "-//W3C//DTD SVG 1.1//EN" "http://www.w3.org/Graphics/SVG/1.1/DTD/svg11.dtd">
<svg width="100%" height="100%" viewBox="0 0 2481 3508" version="1.1" xmlns="http://www.w3.org/2000/svg" xmlns:xlink="http://www.w3.org/1999/xlink" xml:space="preserve" xmlns:serif="http://www.serif.com/" style="fill-rule:evenodd;clip-rule:evenodd;stroke-linejoin:round;stroke-miterlimit:2;">
    <g transform="matrix(0.280827,0,0,0.280827,643.851622,135.409377)">
        <g transform="matrix(1020.507997,0,0,1020.507997,3864.183232,372.395538)">
        </g>
        <text x="336.753px" y="372.396px" style="font-family:'MonsterChiller', 'Monster Chiller';font-size:1020.508px;">a<tspan x="718.946px 1270.06px 1726.498px 2119.154px 2515.797px 2978.215px 3317.055px " y="372.396px 372.396px 372.396px 372.396px 372.396px 372.396px 372.396px ">delante</tspan></text>
    </g>
    <g transform="matrix(0.280827,0,0,0.280827,863.759186,1868.076293)">
        <g transform="matrix(1020.507997,0,0,1020.507997,2453.012017,372.395538)">
        </g>
        <text x="336.753px" y="372.396px" style="font-family:'MonsterChiller', 'Monster Chiller';font-size:1020.508px;">a<tspan x="718.946px 1057.786px 1549.105px 1931.297px " y="372.396px 372.396px 372.396px 372.396px ">tras</tspan></text>
    </g>
    <g transform="matrix(5.652125,0,0,5.652125,-3.310404,-1258.949364)">
        <path d="M177.21,285.324C179.791,285.546 179.721,285.631 182.058,286.582C183.679,287.241 186.197,285.723 188.351,286.941C190.678,288.256 190.703,288.247 193.405,288.024C194.638,287.922 197.033,289.477 198.922,288.649C201.736,287.416 201.788,287.695 204.746,288.288C206.456,288.631 206.905,286.435 211.302,288.063C213.427,288.85 220.437,287.369 223.361,287.721C225.075,287.928 224.914,288.322 226.667,288.638C227.152,288.726 229.52,287.516 230.691,287.45C234.013,287.262 233.995,288.52 237.228,287.618C239.304,287.039 241.025,289.504 243.582,288.746C247.243,287.661 247.672,289.476 250.913,287.337C253.918,285.353 255.866,287.477 258.169,286.424C262.631,284.384 262.995,286.238 266.377,285.034C274.694,282.074 274.637,282.167 275.338,281.872C279.694,280.036 280.298,282.049 284.363,279.586C286.265,278.433 288.879,279.234 289.989,278.764C290.586,278.512 294.614,276.809 297.991,277.533C304.496,278.929 299.839,284.118 303.441,289.139C306.301,293.125 302.51,295.278 304.726,297.669C308.407,301.641 305.744,304.233 305.587,306.02C305.472,307.318 308.667,307.73 307.471,314.09C306.642,318.501 311.042,317.741 310.79,322.237C310.529,326.894 314.251,327.422 317.39,331.985C326.172,344.755 335.827,339.646 349.419,364.162C366.593,395.136 365.714,395.983 364.81,397.154C357.653,406.419 364.95,414.684 367.383,423.624C367.897,425.511 364.6,428.711 364.229,429.017C333.023,454.787 318.057,468.882 288.418,483.875C260.936,497.776 245.469,504.054 245.081,504.255C244.329,504.644 243.378,505.135 236.862,497.587C222.021,480.396 222.402,480.062 220.881,478.806C217.575,476.076 199.118,506.001 194.84,504.178C182.538,498.937 182.463,499.13 181.443,498.573C172.669,493.786 130.93,476.514 101.889,451.03C75.289,427.687 74.687,428.299 72.955,425.761C70.129,421.62 83.797,407.321 75.239,397.464C74.689,396.831 73.476,395.434 77.909,387.323C89.963,365.266 95.961,351.705 106.065,345.237C124.243,333.6 122.792,331.217 125.277,328.683C126.345,327.593 127.46,326.548 128.503,325.435C130.186,323.638 127.91,322.556 129.8,319.558C131.696,316.551 132.871,316.799 132.184,313.273C131.304,308.753 134.381,306.928 134.251,306.034C133.556,301.255 132.76,300.898 135.695,297.02C136.88,295.454 133.506,293.249 136.581,288.953C138.574,286.169 137.684,285.92 137.7,282.536C137.73,276.223 146.77,277.251 148.948,278.249C151.943,279.622 152.362,277.82 155.236,279.43C157.953,280.953 157.905,281.081 160.983,281.081C165.121,281.08 171.377,285.501 177.211,285.323L177.21,285.324Z" style="fill:rgb(19,19,19);"/>
        <path d="M238.769,340.709C243.728,340.349 243.662,340.335 248.514,340.027C272.14,338.529 271.043,333.281 305.315,326.636C314.071,324.938 310.999,332.4 323.264,340.639C347.448,356.885 344.145,360.277 358.54,385.584C362.171,391.968 365.398,392.379 361.205,398.45C356.594,405.126 363.928,420.037 364.928,422.84C365.476,424.376 365.91,425.592 350.746,437.48C335.002,449.822 335.212,452.416 312.006,467.696C285.667,485.038 248.479,500.676 245.31,501.537C241.712,502.515 226.627,480.704 220.829,475.612C218.245,473.343 204.932,493.815 196.492,501.119C193.977,503.296 180.552,495.406 173.311,492.086C127.754,471.2 119.679,462.747 83.541,432.888C74.236,425.2 74.148,424.235 75.663,421.022C77.353,417.438 82.622,404.158 78.797,398.644C75.699,394.177 76.772,393.64 79.429,388.899C93.808,363.241 96.116,352.766 114.836,341.786C125.735,335.393 127.908,325.756 131.806,326.181C151.126,328.287 168.358,338.522 190.981,339.987C206.222,340.974 218.692,343.361 238.769,340.71L238.769,340.709Z" style="fill:rgb(254,254,254);"/>
        <path d="M246.973,296.937C244.924,296.743 244.948,296.83 196.647,296.777C181.527,296.761 172.99,292.35 170.856,293.368C166.726,295.339 183.308,297.393 188.672,298.495C188.864,298.534 190.12,298.221 189.74,304.444C189.643,306.034 188.757,307.725 169.879,303.08C168.849,302.827 168.308,303.868 168.561,304.291C170.559,307.627 189.598,307.058 189.774,309.32C190.441,317.873 184.016,312.417 182.099,314.98C180.619,316.959 187.415,316.234 187.752,316.235C190.076,316.244 190.045,319.095 189.725,324.773C189.629,326.478 185.918,324.895 180.445,324.481C165.015,323.314 165.191,322.335 135.757,315.175C133.894,314.722 133.313,309.621 136.016,307.988C137.068,307.352 173.228,314.481 174.772,314.168C181.935,312.717 158.452,309.452 139.867,306.274C131.452,304.835 136.974,298.685 137.37,298.513C138.686,297.942 163.289,305.812 164.811,304.179C167.11,301.712 161.188,303.362 139.115,296.281C137.777,295.852 136.052,291.881 139.196,289.148C140.911,287.657 159.498,293.734 161.864,293.263C169.926,291.658 140.358,287.676 140.069,285.726C138.498,275.1 148.481,281.015 150.428,281.17C153.441,281.41 153.55,280.906 156.144,282.493C157.613,283.392 163.921,282.862 172.236,286.771C175.114,288.124 177.798,287.297 178.796,287.505C182.095,288.193 181.985,289.031 185.342,288.538C188.169,288.123 188.545,291.024 191.747,290.451C195.068,289.857 194.989,290.959 197.446,290.994C200.817,291.042 200.726,289.45 204.007,290.373C206.052,290.949 207.496,288.637 211.044,290.21C213.504,291.301 213.532,290.482 216.126,289.958C219.351,289.307 219.323,290.043 222.581,289.843C224.167,289.746 226.125,291.384 228.218,290.541C232.523,288.808 232.797,291.145 237.186,289.871C239.078,289.322 240.61,291.596 243.71,290.834C247.885,289.808 248.408,291.742 251.912,289.195C253.87,287.771 256.086,289.149 257.408,288.839C260.668,288.074 260.531,287.399 263.906,287.569C267.691,287.759 274.095,282.916 280.946,283.242C283.747,283.375 284.786,280.864 287.409,281.033C292.386,281.353 301.847,275.38 299.774,285.851C299.438,287.548 277.86,290.341 277.139,292.285C276.667,293.557 277.92,293.887 293.942,289.961C300.407,288.377 303.781,288.316 302.02,294.692C301.695,295.869 300.963,297.454 276.954,302.283C273.54,302.97 275.428,304.555 276.069,304.477C285.8,303.282 297.747,299.366 299.587,298.763C305.306,296.888 304.934,303.215 303.489,305.096C302.439,306.462 275.532,310.119 265.435,312.28C264.149,312.555 264.371,313.774 264.774,314.069C265.545,314.634 298.385,308.581 301.297,308.045C307.251,306.948 306.639,314.695 303.532,315.373C285.244,319.366 285.694,321.273 267.125,323.66C249.976,325.864 250.03,326.235 248.528,326.226C247.094,326.217 247.155,323.444 247.342,317.334C247.42,314.772 256.418,316.886 257.344,316.362C257.981,316.001 258.724,314.34 254.999,314.178C253.383,314.108 251.763,314.112 250.148,314.009C246.359,313.768 247.307,312.276 247.204,308.495C248.666,307.931 272.009,307.52 271.312,303.554C271.065,302.146 263.398,305.975 249.333,306.128C248.17,306.141 248.205,306.389 247.178,306.001C247.264,302.674 247.327,302.749 247.407,299.453C251.169,297.697 268.238,296.326 269.366,294.57C271.232,291.666 262.046,295.049 246.972,296.938L246.973,296.937Z" style="fill:rgb(252,252,252);"/>
        <path d="M195.026,334.427C242.021,334.483 242.013,334.721 246.084,334.386C247.873,334.239 247.044,333.367 247.36,329.477C247.488,327.902 258.207,326.625 258.291,326.619C283.29,324.873 284.933,321.229 303.633,317.38C307.071,316.672 309.562,322.119 308.269,323.647C308.219,323.706 287.795,328.097 269.48,334.085C255.388,338.692 247.43,337.606 237.135,338.864C229.702,339.772 229.728,339.164 225.836,339.402C210.025,340.372 210.09,339.06 194.24,338.182C168.915,336.778 160.366,329.303 141.463,325.847C137.288,325.084 126.621,325.005 133.502,318.268C134.666,317.128 135.123,316.47 153.764,321.972C169.738,326.687 179.285,325.918 186.835,327.419C191.414,328.329 189.396,332.241 190.003,333.683C190.293,334.372 194.62,334.422 195.026,334.427Z" style="fill:rgb(252,252,252);"/>
        <path d="M226.582,303.004C225.102,303.55 224.973,303.283 223.967,304.549C222.834,304.563 222.884,304.533 221.772,304.496C212.506,304.193 212.707,305.568 208.003,306.74C202.246,308.174 194.513,317.23 208.715,324.213C218.95,327.132 219.229,327.391 229.855,323.826C230.401,323.585 230.947,323.343 231.494,323.102C235.287,319.779 235.961,319.927 236.423,314.938C237.866,315.784 237.84,315.781 238.07,315.887C238.412,321.335 234.484,322.926 230.917,325.804C229.816,326.692 221.691,328.681 217.742,328.258C200.27,326.386 200.106,319.102 198.593,315.451C198.244,313.692 198.249,313.605 200.577,309.916C202.848,306.319 203.255,306.726 207.216,305.232C207.762,304.777 208.307,304.322 208.853,303.866C221.516,300.445 224.996,305.451 224.784,301.066C224.714,299.611 226.628,299.603 226.55,301.207C226.506,302.106 226.565,302.058 226.582,303.003L226.582,303.004Z" style="fill:rgb(159,159,159);"/>
        <path d="M223.967,304.549C227.488,306.66 228.1,305.118 231.497,307.453C231.195,307.79 230.893,308.127 230.592,308.464C228.208,307.463 228.465,309.363 225.931,309.717C225.852,309.316 225.772,308.916 225.693,308.515C225.556,308.439 225.198,307.308 223.464,307.877C219.811,309.074 219.52,307.368 215.996,308.947C214.81,309.522 214.796,309.319 213.662,310.078C211.733,311.367 206.743,308.704 205.636,309.424C204.083,310.435 205.949,310.669 207.472,313.218C206.862,313.352 206.252,313.485 205.642,313.619C204.692,314.046 204.377,313.963 204.595,314.992C204.658,315.291 205.372,315.821 205.325,316.61C205.174,319.181 206.214,318.671 208.768,319.066L209.631,318.997C209.476,320.635 209.425,320.576 209.642,322.224C209.333,322.887 209.024,323.55 208.716,324.213C194.514,317.231 202.247,308.175 208.004,306.74C212.708,305.568 212.507,304.193 221.773,304.496C222.885,304.532 222.834,304.563 223.968,304.549L223.967,304.549Z" style="fill:rgb(14,14,14);"/>
        <path d="M215.995,308.947C216.371,309.252 216.356,309.893 216.732,310.198C216.732,310.198 218.399,310.29 218.544,310.298C217.401,311.92 218.984,313.351 219.179,313.527C221.701,315.806 220.113,317.624 221.678,318.399C222.601,318.856 222.578,318.446 223.033,317.507L224.079,317.229C224.814,318.586 224.831,318.471 225.55,319.811C225.562,319.993 225.701,322.083 225.701,322.083C224.615,323.009 224.643,322.049 223.491,321.16C222.34,320.291 222.335,320.466 220.949,319.867C219.523,319.344 217.971,317.643 217.859,320.423C215.839,320.625 215.918,320.646 215.296,320.64C214.793,317.52 212.708,316.113 212.335,315.861C211.693,319.439 211.713,319.419 211.642,319.725C211.44,320.591 211.234,320.47 211.033,321.331L210.411,322.169L209.64,322.224C209.423,320.576 209.474,320.635 209.629,318.997C209.522,316.032 208.943,316.224 207.469,313.218C205.946,310.669 204.08,310.435 205.633,309.424C206.74,308.703 211.731,311.367 213.659,310.078C214.793,309.32 214.807,309.522 215.993,308.947L215.995,308.947Z" style="fill:rgb(208,208,208);"/>
        <path d="M225.692,308.515C224.928,309.04 224.164,309.566 223.4,310.091C223.36,312.412 223.082,312.425 223.622,313.917C225.066,317.904 224.873,311.16 224.865,310.899L225.93,309.717C228.465,309.364 228.207,307.463 230.591,308.464C230.023,310.421 230.086,310.39 229.944,312.457C230.093,312.494 231.555,312.854 231.781,313.02C233.777,314.495 229.229,314.118 229.912,316.556C230.489,318.615 230.476,318.571 230.039,320.711C229.886,321.091 229.919,321.071 229.455,323.14C226.534,318.809 229.802,314.504 226.319,316.289C225.019,316.581 224.239,317.118 224.079,317.228L223.033,317.506C221.429,311.706 221.549,311.681 221.372,311.189C221.122,310.495 220.887,310.778 218.543,310.297C218.398,310.289 216.731,310.197 216.731,310.197C216.355,309.892 216.37,309.251 215.994,308.946C219.519,307.367 219.81,309.072 223.462,307.876C225.196,307.308 225.554,308.438 225.691,308.514L225.692,308.515Z" style="fill:rgb(213,213,213);"/>
        <path d="M226.319,316.29C229.801,314.505 226.533,318.81 229.455,323.141L229.856,323.825C219.23,327.389 218.951,327.131 208.716,324.212C209.025,323.549 209.334,322.886 209.642,322.223L210.413,322.168C213.226,323.171 213.259,323.185 216.164,322.46C220.074,321.484 221.228,324.499 223.492,321.16C224.644,322.049 224.616,323.009 225.702,322.083C225.702,322.083 225.563,319.992 225.551,319.811C225.807,318.637 226.063,317.464 226.319,316.29Z" style="fill:rgb(11,11,11);"/>
        <path d="M231.497,307.453C234.262,309.12 234.216,309.1 236.257,311.671C236.312,312.76 236.368,313.848 236.423,314.937C235.961,319.926 235.287,319.778 231.494,323.101C231.009,322.305 230.523,321.508 230.038,320.712C230.475,318.572 230.488,318.616 229.911,316.557C229.228,314.119 233.776,314.496 231.78,313.021C231.555,312.855 230.093,312.494 229.943,312.458C230.086,310.391 230.022,310.422 230.59,308.465C230.892,308.128 231.194,307.791 231.495,307.454L231.497,307.453Z" style="fill:rgb(10,10,10);"/>
        <path d="M247.18,306C248.207,306.388 248.172,306.139 249.335,306.127C263.4,305.974 271.067,302.146 271.314,303.553C272.011,307.519 248.668,307.93 247.206,308.494C247.054,307.176 247.097,307.259 247.18,306Z" style="fill:rgb(38,38,38);"/>
        <path d="M246.973,296.937C262.047,295.047 271.234,291.664 269.367,294.569C268.239,296.324 251.17,297.695 247.408,299.452C247.263,298.614 247.118,297.776 246.973,296.938L246.973,296.937Z" style="fill:rgb(29,29,29);"/>
        <path d="M226.582,303.004C227.343,303.329 228.105,303.653 228.866,303.978C229.131,304.169 229.396,304.36 229.662,304.551C234.062,306.546 234.504,306.077 237.182,310.063C236.874,310.599 236.566,311.135 236.258,311.671C234.217,309.1 234.262,309.119 231.498,307.453C228.101,305.118 227.489,306.66 223.968,304.549C224.974,303.283 225.103,303.55 226.583,303.004L226.582,303.004Z" style="fill:rgb(185,185,185);"/>
        <path d="M220.95,319.868C222.335,320.467 222.341,320.292 223.492,321.161C221.228,324.5 220.073,321.486 216.164,322.461C213.259,323.186 213.226,323.172 210.413,322.169L211.035,321.331C212.482,321.466 212.49,321.571 213.828,320.939C213.936,320.888 213.937,320.917 215.298,320.64C215.92,320.647 215.841,320.626 217.861,320.423C218.594,320.573 218.538,320.52 219.335,320.683C220.586,320.938 220.923,319.882 220.952,319.868L220.95,319.868Z" style="fill:rgb(175,175,175);"/>
        <path d="M218.543,310.298C220.886,310.779 221.122,310.496 221.372,311.19C221.549,311.682 221.429,311.707 223.033,317.507C222.578,318.446 222.6,318.856 221.678,318.399C220.113,317.624 221.7,315.806 219.179,313.527C218.984,313.35 217.401,311.92 218.544,310.298L218.543,310.298Z" style="fill:rgb(25,25,25);"/>
        <path d="M212.336,315.861C212.709,316.113 214.794,317.52 215.297,320.64C213.936,320.917 213.935,320.887 213.827,320.939C212.49,321.572 212.481,321.466 211.034,321.331C211.235,320.47 211.441,320.591 211.643,319.725C211.714,319.419 211.694,319.439 212.336,315.861Z" style="fill:rgb(12,12,12);"/>
        <path d="M205.64,313.619C207.728,316.077 207.46,316.177 208.767,319.066C206.213,318.671 205.172,319.181 205.324,316.61C205.371,315.821 204.657,315.291 204.594,314.992C204.376,313.962 204.691,314.046 205.641,313.619L205.64,313.619Z" style="fill:rgb(184,184,184);"/>
        <path d="M215.312,311.756C215.574,311.96 216.037,311.406 216.554,312.722C218.632,318.013 216.66,317.93 216.269,317.814C214.667,317.34 214.922,312.697 214.947,312.24L215.313,311.756L215.312,311.756Z" style="fill:rgb(24,24,24);"/>
        <path d="M237.181,310.063C238.448,311.958 238.289,311.972 238.793,314.139C238.713,314.584 238.634,315.03 238.554,315.475L238.07,315.886C237.84,315.78 237.866,315.783 236.423,314.937C236.368,313.848 236.312,312.76 236.257,311.671C236.565,311.135 236.873,310.599 237.181,310.063Z" style="fill:rgb(207,207,207);"/>
        <path d="M205.64,313.619C206.25,313.485 206.86,313.352 207.47,313.218C208.944,316.224 209.523,316.033 209.63,318.997L208.767,319.066C207.46,316.177 207.729,316.077 205.64,313.619Z" style="fill:rgb(83,83,83);"/>
        <path d="M223.4,310.091C223.959,310.429 224.018,310.221 224.394,310.692C224.579,310.924 224.679,310.666 224.866,310.9C224.873,311.161 225.067,317.905 223.623,313.918C223.082,312.426 223.361,312.413 223.401,310.092L223.4,310.091Z" style="fill:rgb(63,63,63);"/>
        <path d="M212.201,314.642C211.772,314.798 211.673,315.466 211.243,315.622C209.854,316.126 209.209,313.037 209.151,312.76C209.011,312.091 210.945,311.7 211.216,313.334C211.363,314.219 211.682,313.953 212.201,314.642Z" style="fill:rgb(59,59,59);"/>
        <path d="M226.319,316.29C226.063,317.464 225.807,318.637 225.551,319.811C224.832,318.471 224.814,318.586 224.08,317.229C224.24,317.119 225.019,316.582 226.32,316.29L226.319,316.29Z" style="fill:rgb(130,130,130);"/>
        <path d="M220.95,319.868C220.921,319.883 220.584,320.939 219.333,320.683C218.537,320.521 218.592,320.573 217.859,320.423C217.972,317.643 219.523,319.344 220.949,319.867L220.95,319.868Z" style="fill:rgb(62,62,62);"/>
        <path d="M228.866,303.978C230.322,302.421 231.667,300.667 231.235,302.804C231.198,302.988 231.12,302.932 229.662,304.551C229.397,304.36 229.132,304.169 228.866,303.978Z" style="fill:rgb(84,84,84);"/>
        <path d="M230.038,320.712C230.523,321.508 231.009,322.305 231.494,323.101C230.948,323.342 230.402,323.584 229.855,323.825L229.454,323.141C229.917,321.072 229.884,321.092 230.038,320.712Z" style="fill:rgb(77,77,77);"/>
        <path d="M228.288,311.666C228.001,314.869 226.691,313.535 226.559,313.391C225.248,311.956 228.093,311.684 228.288,311.666Z" style="fill:rgb(35,35,35);"/>
        <path d="M238.793,314.14C240.103,314.361 240.098,314.344 240.208,314.378C247.941,316.782 238.709,315.514 238.555,315.476C238.635,315.031 238.714,314.585 238.794,314.14L238.793,314.14Z" style="fill:rgb(96,96,96);"/>
        <path d="M225.692,308.515C225.771,308.916 225.851,309.316 225.93,309.717L224.865,310.899C224.679,310.666 224.578,310.923 224.393,310.691C224.017,310.22 223.958,310.428 223.399,310.09C224.163,309.565 224.927,309.039 225.691,308.514L225.692,308.515Z" style="fill:rgb(135,135,135);"/>
        <path d="M208.853,303.867C208.307,304.322 207.762,304.777 207.216,305.233C205.913,303.215 206.194,302.144 207.177,302.826C207.552,303.086 207.637,303.662 208.025,303.903C208.26,304.049 208.618,303.721 208.853,303.867Z" style="fill:rgb(99,99,99);"/>
    </g>
    <g transform="matrix(5.652125,0,0,5.652125,-3.310404,473.717552)">
        <path d="M177.21,285.324C179.791,285.546 179.721,285.631 182.058,286.582C183.679,287.241 186.197,285.723 188.351,286.941C190.678,288.256 190.703,288.247 193.405,288.024C194.638,287.922 197.033,289.477 198.922,288.649C201.736,287.416 201.788,287.695 204.746,288.288C206.456,288.631 206.905,286.435 211.302,288.063C213.427,288.85 220.437,287.369 223.361,287.721C225.075,287.928 224.914,288.322 226.667,288.638C227.152,288.726 229.52,287.516 230.691,287.45C234.013,287.262 233.995,288.52 237.228,287.618C239.304,287.039 241.025,289.504 243.582,288.746C247.243,287.661 247.672,289.476 250.913,287.337C253.918,285.353 255.866,287.477 258.169,286.424C262.631,284.384 262.995,286.238 266.377,285.034C274.694,282.074 274.637,282.167 275.338,281.872C279.694,280.036 280.298,282.049 284.363,279.586C286.265,278.433 288.879,279.234 289.989,278.764C290.586,278.512 294.614,276.809 297.991,277.533C304.496,278.929 299.839,284.118 303.441,289.139C306.301,293.125 302.51,295.278 304.726,297.669C308.407,301.641 305.744,304.233 305.587,306.02C305.472,307.318 308.667,307.73 307.471,314.09C306.642,318.501 311.042,317.741 310.79,322.237C310.529,326.894 314.251,327.422 317.39,331.985C326.172,344.755 335.827,339.646 349.419,364.162C366.593,395.136 365.714,395.983 364.81,397.154C357.653,406.419 364.95,414.684 367.383,423.624C367.897,425.511 364.6,428.711 364.229,429.017C333.023,454.787 318.057,468.882 288.418,483.875C260.936,497.776 245.469,504.054 245.081,504.255C244.329,504.644 243.378,505.135 236.862,497.587C222.021,480.396 222.402,480.062 220.881,478.806C217.575,476.076 199.118,506.001 194.84,504.178C182.538,498.937 182.463,499.13 181.443,498.573C172.669,493.786 130.93,476.514 101.889,451.03C75.289,427.687 74.687,428.299 72.955,425.761C70.129,421.62 83.797,407.321 75.239,397.464C74.689,396.831 73.476,395.434 77.909,387.323C89.963,365.266 95.961,351.705 106.065,345.237C124.243,333.6 122.792,331.217 125.277,328.683C126.345,327.593 127.46,326.548 128.503,325.435C130.186,323.638 127.91,322.556 129.8,319.558C131.696,316.551 132.871,316.799 132.184,313.273C131.304,308.753 134.381,306.928 134.251,306.034C133.556,301.255 132.76,300.898 135.695,297.02C136.88,295.454 133.506,293.249 136.581,288.953C138.574,286.169 137.684,285.92 137.7,282.536C137.73,276.223 146.77,277.251 148.948,278.249C151.943,279.622 152.362,277.82 155.236,279.43C157.953,280.953 157.905,281.081 160.983,281.081C165.121,281.08 171.377,285.501 177.211,285.323L177.21,285.324Z" style="fill:rgb(19,19,19);"/>
        <path d="M238.769,340.709C243.728,340.349 243.662,340.335 248.514,340.027C272.14,338.529 271.043,333.281 305.315,326.636C314.071,324.938 310.999,332.4 323.264,340.639C347.448,356.885 344.145,360.277 358.54,385.584C362.171,391.968 365.398,392.379 361.205,398.45C356.594,405.126 363.928,420.037 364.928,422.84C365.476,424.376 365.91,425.592 350.746,437.48C335.002,449.822 335.212,452.416 312.006,467.696C285.667,485.038 248.479,500.676 245.31,501.537C241.712,502.515 226.627,480.704 220.829,475.612C218.245,473.343 204.932,493.815 196.492,501.119C193.977,503.296 180.552,495.406 173.311,492.086C127.754,471.2 119.679,462.747 83.541,432.888C74.236,425.2 74.148,424.235 75.663,421.022C77.353,417.438 82.622,404.158 78.797,398.644C75.699,394.177 76.772,393.64 79.429,388.899C93.808,363.241 96.116,352.766 114.836,341.786C125.735,335.393 127.908,325.756 131.806,326.181C151.126,328.287 168.358,338.522 190.981,339.987C206.222,340.974 218.692,343.361 238.769,340.71L238.769,340.709Z" style="fill:rgb(254,254,254);"/>
        <path d="M246.973,296.937C244.924,296.743 244.948,296.83 196.647,296.777C181.527,296.761 172.99,292.35 170.856,293.368C166.726,295.339 183.308,297.393 188.672,298.495C188.864,298.534 190.12,298.221 189.74,304.444C189.643,306.034 188.757,307.725 169.879,303.08C168.849,302.827 168.308,303.868 168.561,304.291C170.559,307.627 189.598,307.058 189.774,309.32C190.441,317.873 184.016,312.417 182.099,314.98C180.619,316.959 187.415,316.234 187.752,316.235C190.076,316.244 190.045,319.095 189.725,324.773C189.629,326.478 185.918,324.895 180.445,324.481C165.015,323.314 165.191,322.335 135.757,315.175C133.894,314.722 133.313,309.621 136.016,307.988C137.068,307.352 173.228,314.481 174.772,314.168C181.935,312.717 158.452,309.452 139.867,306.274C131.452,304.835 136.974,298.685 137.37,298.513C138.686,297.942 163.289,305.812 164.811,304.179C167.11,301.712 161.188,303.362 139.115,296.281C137.777,295.852 136.052,291.881 139.196,289.148C140.911,287.657 159.498,293.734 161.864,293.263C169.926,291.658 140.358,287.676 140.069,285.726C138.498,275.1 148.481,281.015 150.428,281.17C153.441,281.41 153.55,280.906 156.144,282.493C157.613,283.392 163.921,282.862 172.236,286.771C175.114,288.124 177.798,287.297 178.796,287.505C182.095,288.193 181.985,289.031 185.342,288.538C188.169,288.123 188.545,291.024 191.747,290.451C195.068,289.857 194.989,290.959 197.446,290.994C200.817,291.042 200.726,289.45 204.007,290.373C206.052,290.949 207.496,288.637 211.044,290.21C213.504,291.301 213.532,290.482 216.126,289.958C219.351,289.307 219.323,290.043 222.581,289.843C224.167,289.746 226.125,291.384 228.218,290.541C232.523,288.808 232.797,291.145 237.186,289.871C239.078,289.322 240.61,291.596 243.71,290.834C247.885,289.808 248.408,291.742 251.912,289.195C253.87,287.771 256.086,289.149 257.408,288.839C260.668,288.074 260.531,287.399 263.906,287.569C267.691,287.759 274.095,282.916 280.946,283.242C283.747,283.375 284.786,280.864 287.409,281.033C292.386,281.353 301.847,275.38 299.774,285.851C299.438,287.548 277.86,290.341 277.139,292.285C276.667,293.557 277.92,293.887 293.942,289.961C300.407,288.377 303.781,288.316 302.02,294.692C301.695,295.869 300.963,297.454 276.954,302.283C273.54,302.97 275.428,304.555 276.069,304.477C285.8,303.282 297.747,299.366 299.587,298.763C305.306,296.888 304.934,303.215 303.489,305.096C302.439,306.462 275.532,310.119 265.435,312.28C264.149,312.555 264.371,313.774 264.774,314.069C265.545,314.634 298.385,308.581 301.297,308.045C307.251,306.948 306.639,314.695 303.532,315.373C285.244,319.366 285.694,321.273 267.125,323.66C249.976,325.864 250.03,326.235 248.528,326.226C247.094,326.217 247.155,323.444 247.342,317.334C247.42,314.772 256.418,316.886 257.344,316.362C257.981,316.001 258.724,314.34 254.999,314.178C253.383,314.108 251.763,314.112 250.148,314.009C246.359,313.768 247.307,312.276 247.204,308.495C248.666,307.931 272.009,307.52 271.312,303.554C271.065,302.146 263.398,305.975 249.333,306.128C248.17,306.141 248.205,306.389 247.178,306.001C247.264,302.674 247.327,302.749 247.407,299.453C251.169,297.697 268.238,296.326 269.366,294.57C271.232,291.666 262.046,295.049 246.972,296.938L246.973,296.937Z" style="fill:rgb(252,252,252);"/>
        <path d="M195.026,334.427C242.021,334.483 242.013,334.721 246.084,334.386C247.873,334.239 247.044,333.367 247.36,329.477C247.488,327.902 258.207,326.625 258.291,326.619C283.29,324.873 284.933,321.229 303.633,317.38C307.071,316.672 309.562,322.119 308.269,323.647C308.219,323.706 287.795,328.097 269.48,334.085C255.388,338.692 247.43,337.606 237.135,338.864C229.702,339.772 229.728,339.164 225.836,339.402C210.025,340.372 210.09,339.06 194.24,338.182C168.915,336.778 160.366,329.303 141.463,325.847C137.288,325.084 126.621,325.005 133.502,318.268C134.666,317.128 135.123,316.47 153.764,321.972C169.738,326.687 179.285,325.918 186.835,327.419C191.414,328.329 189.396,332.241 190.003,333.683C190.293,334.372 194.62,334.422 195.026,334.427Z" style="fill:rgb(252,252,252);"/>
        <path d="M226.582,303.004C225.102,303.55 224.973,303.283 223.967,304.549C222.834,304.563 222.884,304.533 221.772,304.496C212.506,304.193 212.707,305.568 208.003,306.74C202.246,308.174 194.513,317.23 208.715,324.213C218.95,327.132 219.229,327.391 229.855,323.826C230.401,323.585 230.947,323.343 231.494,323.102C235.287,319.779 235.961,319.927 236.423,314.938C237.866,315.784 237.84,315.781 238.07,315.887C238.412,321.335 234.484,322.926 230.917,325.804C229.816,326.692 221.691,328.681 217.742,328.258C200.27,326.386 200.106,319.102 198.593,315.451C198.244,313.692 198.249,313.605 200.577,309.916C202.848,306.319 203.255,306.726 207.216,305.232C207.762,304.777 208.307,304.322 208.853,303.866C221.516,300.445 224.996,305.451 224.784,301.066C224.714,299.611 226.628,299.603 226.55,301.207C226.506,302.106 226.565,302.058 226.582,303.003L226.582,303.004Z" style="fill:rgb(159,159,159);"/>
        <path d="M223.967,304.549C227.488,306.66 228.1,305.118 231.497,307.453C231.195,307.79 230.893,308.127 230.592,308.464C228.208,307.463 228.465,309.363 225.931,309.717C225.852,309.316 225.772,308.916 225.693,308.515C225.556,308.439 225.198,307.308 223.464,307.877C219.811,309.074 219.52,307.368 215.996,308.947C214.81,309.522 214.796,309.319 213.662,310.078C211.733,311.367 206.743,308.704 205.636,309.424C204.083,310.435 205.949,310.669 207.472,313.218C206.862,313.352 206.252,313.485 205.642,313.619C204.692,314.046 204.377,313.963 204.595,314.992C204.658,315.291 205.372,315.821 205.325,316.61C205.174,319.181 206.214,318.671 208.768,319.066L209.631,318.997C209.476,320.635 209.425,320.576 209.642,322.224C209.333,322.887 209.024,323.55 208.716,324.213C194.514,317.231 202.247,308.175 208.004,306.74C212.708,305.568 212.507,304.193 221.773,304.496C222.885,304.532 222.834,304.563 223.968,304.549L223.967,304.549Z" style="fill:rgb(14,14,14);"/>
        <path d="M215.995,308.947C216.371,309.252 216.356,309.893 216.732,310.198C216.732,310.198 218.399,310.29 218.544,310.298C217.401,311.92 218.984,313.351 219.179,313.527C221.701,315.806 220.113,317.624 221.678,318.399C222.601,318.856 222.578,318.446 223.033,317.507L224.079,317.229C224.814,318.586 224.831,318.471 225.55,319.811C225.562,319.993 225.701,322.083 225.701,322.083C224.615,323.009 224.643,322.049 223.491,321.16C222.34,320.291 222.335,320.466 220.949,319.867C219.523,319.344 217.971,317.643 217.859,320.423C215.839,320.625 215.918,320.646 215.296,320.64C214.793,317.52 212.708,316.113 212.335,315.861C211.693,319.439 211.713,319.419 211.642,319.725C211.44,320.591 211.234,320.47 211.033,321.331L210.411,322.169L209.64,322.224C209.423,320.576 209.474,320.635 209.629,318.997C209.522,316.032 208.943,316.224 207.469,313.218C205.946,310.669 204.08,310.435 205.633,309.424C206.74,308.703 211.731,311.367 213.659,310.078C214.793,309.32 214.807,309.522 215.993,308.947L215.995,308.947Z" style="fill:rgb(208,208,208);"/>
        <path d="M225.692,308.515C224.928,309.04 224.164,309.566 223.4,310.091C223.36,312.412 223.082,312.425 223.622,313.917C225.066,317.904 224.873,311.16 224.865,310.899L225.93,309.717C228.465,309.364 228.207,307.463 230.591,308.464C230.023,310.421 230.086,310.39 229.944,312.457C230.093,312.494 231.555,312.854 231.781,313.02C233.777,314.495 229.229,314.118 229.912,316.556C230.489,318.615 230.476,318.571 230.039,320.711C229.886,321.091 229.919,321.071 229.455,323.14C226.534,318.809 229.802,314.504 226.319,316.289C225.019,316.581 224.239,317.118 224.079,317.228L223.033,317.506C221.429,311.706 221.549,311.681 221.372,311.189C221.122,310.495 220.887,310.778 218.543,310.297C218.398,310.289 216.731,310.197 216.731,310.197C216.355,309.892 216.37,309.251 215.994,308.946C219.519,307.367 219.81,309.072 223.462,307.876C225.196,307.308 225.554,308.438 225.691,308.514L225.692,308.515Z" style="fill:rgb(213,213,213);"/>
        <path d="M226.319,316.29C229.801,314.505 226.533,318.81 229.455,323.141L229.856,323.825C219.23,327.389 218.951,327.131 208.716,324.212C209.025,323.549 209.334,322.886 209.642,322.223L210.413,322.168C213.226,323.171 213.259,323.185 216.164,322.46C220.074,321.484 221.228,324.499 223.492,321.16C224.644,322.049 224.616,323.009 225.702,322.083C225.702,322.083 225.563,319.992 225.551,319.811C225.807,318.637 226.063,317.464 226.319,316.29Z" style="fill:rgb(11,11,11);"/>
        <path d="M231.497,307.453C234.262,309.12 234.216,309.1 236.257,311.671C236.312,312.76 236.368,313.848 236.423,314.937C235.961,319.926 235.287,319.778 231.494,323.101C231.009,322.305 230.523,321.508 230.038,320.712C230.475,318.572 230.488,318.616 229.911,316.557C229.228,314.119 233.776,314.496 231.78,313.021C231.555,312.855 230.093,312.494 229.943,312.458C230.086,310.391 230.022,310.422 230.59,308.465C230.892,308.128 231.194,307.791 231.495,307.454L231.497,307.453Z" style="fill:rgb(10,10,10);"/>
        <path d="M247.18,306C248.207,306.388 248.172,306.139 249.335,306.127C263.4,305.974 271.067,302.146 271.314,303.553C272.011,307.519 248.668,307.93 247.206,308.494C247.054,307.176 247.097,307.259 247.18,306Z" style="fill:rgb(38,38,38);"/>
        <path d="M246.973,296.937C262.047,295.047 271.234,291.664 269.367,294.569C268.239,296.324 251.17,297.695 247.408,299.452C247.263,298.614 247.118,297.776 246.973,296.938L246.973,296.937Z" style="fill:rgb(29,29,29);"/>
        <path d="M226.582,303.004C227.343,303.329 228.105,303.653 228.866,303.978C229.131,304.169 229.396,304.36 229.662,304.551C234.062,306.546 234.504,306.077 237.182,310.063C236.874,310.599 236.566,311.135 236.258,311.671C234.217,309.1 234.262,309.119 231.498,307.453C228.101,305.118 227.489,306.66 223.968,304.549C224.974,303.283 225.103,303.55 226.583,303.004L226.582,303.004Z" style="fill:rgb(185,185,185);"/>
        <path d="M220.95,319.868C222.335,320.467 222.341,320.292 223.492,321.161C221.228,324.5 220.073,321.486 216.164,322.461C213.259,323.186 213.226,323.172 210.413,322.169L211.035,321.331C212.482,321.466 212.49,321.571 213.828,320.939C213.936,320.888 213.937,320.917 215.298,320.64C215.92,320.647 215.841,320.626 217.861,320.423C218.594,320.573 218.538,320.52 219.335,320.683C220.586,320.938 220.923,319.882 220.952,319.868L220.95,319.868Z" style="fill:rgb(175,175,175);"/>
        <path d="M218.543,310.298C220.886,310.779 221.122,310.496 221.372,311.19C221.549,311.682 221.429,311.707 223.033,317.507C222.578,318.446 222.6,318.856 221.678,318.399C220.113,317.624 221.7,315.806 219.179,313.527C218.984,313.35 217.401,311.92 218.544,310.298L218.543,310.298Z" style="fill:rgb(25,25,25);"/>
        <path d="M212.336,315.861C212.709,316.113 214.794,317.52 215.297,320.64C213.936,320.917 213.935,320.887 213.827,320.939C212.49,321.572 212.481,321.466 211.034,321.331C211.235,320.47 211.441,320.591 211.643,319.725C211.714,319.419 211.694,319.439 212.336,315.861Z" style="fill:rgb(12,12,12);"/>
        <path d="M205.64,313.619C207.728,316.077 207.46,316.177 208.767,319.066C206.213,318.671 205.172,319.181 205.324,316.61C205.371,315.821 204.657,315.291 204.594,314.992C204.376,313.962 204.691,314.046 205.641,313.619L205.64,313.619Z" style="fill:rgb(184,184,184);"/>
        <path d="M215.312,311.756C215.574,311.96 216.037,311.406 216.554,312.722C218.632,318.013 216.66,317.93 216.269,317.814C214.667,317.34 214.922,312.697 214.947,312.24L215.313,311.756L215.312,311.756Z" style="fill:rgb(24,24,24);"/>
        <path d="M237.181,310.063C238.448,311.958 238.289,311.972 238.793,314.139C238.713,314.584 238.634,315.03 238.554,315.475L238.07,315.886C237.84,315.78 237.866,315.783 236.423,314.937C236.368,313.848 236.312,312.76 236.257,311.671C236.565,311.135 236.873,310.599 237.181,310.063Z" style="fill:rgb(207,207,207);"/>
        <path d="M205.64,313.619C206.25,313.485 206.86,313.352 207.47,313.218C208.944,316.224 209.523,316.033 209.63,318.997L208.767,319.066C207.46,316.177 207.729,316.077 205.64,313.619Z" style="fill:rgb(83,83,83);"/>
        <path d="M223.4,310.091C223.959,310.429 224.018,310.221 224.394,310.692C224.579,310.924 224.679,310.666 224.866,310.9C224.873,311.161 225.067,317.905 223.623,313.918C223.082,312.426 223.361,312.413 223.401,310.092L223.4,310.091Z" style="fill:rgb(63,63,63);"/>
        <path d="M212.201,314.642C211.772,314.798 211.673,315.466 211.243,315.622C209.854,316.126 209.209,313.037 209.151,312.76C209.011,312.091 210.945,311.7 211.216,313.334C211.363,314.219 211.682,313.953 212.201,314.642Z" style="fill:rgb(59,59,59);"/>
        <path d="M226.319,316.29C226.063,317.464 225.807,318.637 225.551,319.811C224.832,318.471 224.814,318.586 224.08,317.229C224.24,317.119 225.019,316.582 226.32,316.29L226.319,316.29Z" style="fill:rgb(130,130,130);"/>
        <path d="M220.95,319.868C220.921,319.883 220.584,320.939 219.333,320.683C218.537,320.521 218.592,320.573 217.859,320.423C217.972,317.643 219.523,319.344 220.949,319.867L220.95,319.868Z" style="fill:rgb(62,62,62);"/>
        <path d="M228.866,303.978C230.322,302.421 231.667,300.667 231.235,302.804C231.198,302.988 231.12,302.932 229.662,304.551C229.397,304.36 229.132,304.169 228.866,303.978Z" style="fill:rgb(84,84,84);"/>
        <path d="M230.038,320.712C230.523,321.508 231.009,322.305 231.494,323.101C230.948,323.342 230.402,323.584 229.855,323.825L229.454,323.141C229.917,321.072 229.884,321.092 230.038,320.712Z" style="fill:rgb(77,77,77);"/>
        <path d="M228.288,311.666C228.001,314.869 226.691,313.535 226.559,313.391C225.248,311.956 228.093,311.684 228.288,311.666Z" style="fill:rgb(35,35,35);"/>
        <path d="M238.793,314.14C240.103,314.361 240.098,314.344 240.208,314.378C247.941,316.782 238.709,315.514 238.555,315.476C238.635,315.031 238.714,314.585 238.794,314.14L238.793,314.14Z" style="fill:rgb(96,96,96);"/>
        <path d="M225.692,308.515C225.771,308.916 225.851,309.316 225.93,309.717L224.865,310.899C224.679,310.666 224.578,310.923 224.393,310.691C224.017,310.22 223.958,310.428 223.399,310.09C224.163,309.565 224.927,309.039 225.691,308.514L225.692,308.515Z" style="fill:rgb(135,135,135);"/>
        <path d="M208.853,303.867C208.307,304.322 207.762,304.777 207.216,305.233C205.913,303.215 206.194,302.144 207.177,302.826C207.552,303.086 207.637,303.662 208.025,303.903C208.26,304.049 208.618,303.721 208.853,303.867Z" style="fill:rgb(99,99,99);"/>
    </g>
</svg>
