<?xml version="1.0" encoding="UTF-8" standalone="no"?>
<!DOCTYPE svg PUBLIC "-//W3C//DTD SVG 1.1//EN" "http://www.w3.org/Graphics/SVG/1.1/DTD/svg11.dtd">
<svg width="100%" height="100%" viewBox="0 0 304 235" version="1.1" xmlns="http://www.w3.org/2000/svg" xmlns:xlink="http://www.w3.org/1999/xlink" xml:space="preserve" xmlns:serif="http://www.serif.com/" style="fill-rule:evenodd;clip-rule:evenodd;stroke-linejoin:round;stroke-miterlimit:2;">
    <g id="Mesa-de-trabajo1" serif:id="Mesa de trabajo1" transform="matrix(0.690909,0,0,0.245084,0,0)">
        <rect x="0" y="0" width="440" height="956" style="fill:none;"/>
    </g>
    <g id="Mesa-de-trabajo11" serif:id="Mesa de trabajo1" transform="matrix(0.980271,0,0,0.981076,-63.661683,-291.484942)">
        <g>
            <path d="M84.9,470.175C70.877,459.233 71.171,458.893 69.948,457.948C62.1,451.879 65.315,450.099 67.382,444.665C74.258,426.593 68.731,425.577 67.108,422.511C65.701,419.853 83.827,387.969 88.008,381.664C100.085,363.449 111.361,363.967 116.011,356.887C119.469,351.623 120.113,352.233 123.862,347.642C125.838,345.222 122.804,343.854 126.721,339.381C130.369,335.214 125.704,333.466 128.247,329.845C129.661,327.832 129.979,327.797 129.296,325.477C127.599,319.719 132.116,318.522 131.538,316.18C130.076,310.261 131.862,310.447 133.493,307.75C133.573,307.618 132.3,296.449 139.268,297.138C146.626,297.865 146.376,298.799 146.979,298.865C150.603,299.261 150.74,298.672 153.894,300.582C155.378,301.481 158.294,300.653 160.633,301.472C166.736,303.611 166.815,303.285 167.341,303.48C171.534,305.034 171.404,305.616 175.892,305.561C179.853,305.513 179.635,307.283 183.531,306.661C186.935,306.118 188.021,308.798 189.501,308.751C192.227,308.665 192.184,308.295 194.735,308.999C198.091,309.925 199.762,307.416 201.41,307.822C204.056,308.474 204.059,308.791 206.665,307.986C210.324,306.855 211.261,309.514 213.468,308.899C217.584,307.752 217.644,308.641 221.941,308.049C224.442,307.704 226.48,309.371 227.949,308.861C231.241,307.718 231.293,307.443 234.672,308.472C236.677,309.083 238.134,307.418 239.717,307.859C243.144,308.814 243.113,309.445 246.595,308.527C248.304,308.077 250.284,309.195 251.588,308.348C254.694,306.33 254.849,306.674 258.508,307.036C259.713,307.155 261.595,305.566 263.61,305.566C268.106,305.566 267.971,305.006 272.22,303.609C279.841,301.103 283.103,301.089 284.072,301.085C286.962,301.073 286.957,298.581 290.9,298.784C294.033,298.945 300.22,295.829 303.485,297.772C307.83,300.358 306.115,306.448 306.105,306.814C306.069,308.091 309.782,310.322 308.815,314.472C308.14,317.368 308.38,317.468 310.254,319.75C312.837,322.895 308.461,325.869 311.116,329.12C314.567,333.346 309.73,335.743 312.987,339.208C317.569,344.084 314.123,345.629 315.883,347.489C325.035,357.16 324.388,357.701 325.219,358.505C334.391,367.376 343.172,361.809 363.797,402.379C372.888,420.262 374.107,421.07 372.333,423.226C364.815,432.358 372.058,440.826 375,450.819C376.325,455.317 355.798,468.799 348.8,475.451C313.501,509.005 254.256,531.738 246.522,535.838C243.617,537.378 229.877,518.482 222.546,510.564C218.632,506.337 218.184,510.22 213.267,515.399C205.751,523.315 196.286,537.756 193.21,535.603C191.691,534.54 182.488,531.414 181.1,530.633C159.93,518.715 129.176,510.423 84.904,470.175L84.9,470.175Z" style="fill:rgb(18,18,18);"/>
            <path d="M255.087,362.751C264.18,361.383 264.103,361.373 272.975,358.706C274.127,358.36 275.599,357.917 283.684,369.264C293.898,383.6 293.519,383.845 294.41,385.088C307.245,403.011 317.653,426.714 322.565,435.33C330.927,449.998 329.036,450.855 337.026,466.869C339.042,470.909 324.68,477.332 316.516,483.249C300.218,495.061 299.215,493.434 293.506,497.715C280.035,507.818 250.97,519.728 248.114,521.057C239.158,525.222 238.426,525.781 236.262,523.244C235.525,522.38 235.557,522.396 235.493,522.324C220.75,505.795 220.873,504.96 219.356,505.362C218.72,505.531 203.086,523.956 203.081,523.962C202.143,525.234 201.547,525.642 192.181,521.208C176.531,513.798 172.108,513.5 156.49,504.064C154.419,502.813 130.986,488.655 130.63,488.373C119.487,479.565 100.776,471.123 102.809,467.016C109.847,452.798 108.283,452.132 115.785,438.198C134.318,403.775 136.042,395.144 163.18,360.526C165.553,357.499 166.215,358.629 169.906,359.668C185.531,364.067 191.216,362.675 201.433,363.911C216.597,365.745 223.207,364.981 255.087,362.75L255.087,362.751Z" style="fill:rgb(254,254,254);"/>
            <path d="M248.373,317.702C245.499,317.242 245.488,317.468 198.031,317.468C174.67,317.468 171.65,312.547 168.377,313.946C162.923,316.279 186.39,318.557 187.665,319.699C188.517,320.462 188.139,326.28 188.068,326.488C187.161,329.159 166.657,323.974 166.216,324.366C162.264,327.878 187.238,329.344 187.748,329.846C188.378,330.466 188.19,334.658 188.067,335.005C187.623,336.254 176.958,335.718 180.362,337.982C182.146,339.168 188.152,335.202 188.174,340.87C188.181,342.577 188.151,344.285 188.171,345.992C188.213,349.594 184.905,347.024 178.45,346.615C161.897,345.567 162.087,344.409 131.486,336.882C129.104,336.296 129.785,331.825 129.893,331.503C131.066,327.994 132.207,329.197 135.851,329.766C166.959,334.629 173.417,337.109 173.356,334.906C173.303,332.982 144.411,329.344 134.965,327.372C128.397,326.001 131.565,320.621 132.567,319.769C134.479,318.143 160.319,327.281 162.009,325.305C164.268,322.664 156.222,324.005 134.991,317.03C133.455,316.525 131.702,312.224 135.09,309.495C136.98,307.973 156.441,314.344 158.926,313.811C166.967,312.088 136.351,308.009 135.926,305.918C133.709,295.014 145.821,300.978 146.909,301.068C150.055,301.33 150.17,300.812 152.897,302.516C154.894,303.763 157.679,302.845 159.685,303.433C160.366,303.632 166.389,305.398 168.12,306.165C173.53,308.563 174.107,306.471 179.479,308.946C181.999,310.107 183.531,307.755 186.669,309.753C189.128,311.319 189.241,310.831 192.072,310.532C192.533,310.483 195.505,311.418 196.329,311.419C199.894,311.424 199.813,309.807 203.206,310.78C205.406,311.411 206.815,308.892 210.622,310.617C214.252,312.262 214.781,309.904 217.623,310.216C223.107,310.818 223.111,310.161 223.582,310.237C227.038,310.793 227.072,311.439 230.392,310.175C232.667,309.309 234.754,311.496 237.096,310.693C240.974,309.364 241.017,312.243 244.939,311.228C249.305,310.098 249.847,312.161 253.557,309.58C255.988,307.889 257.935,310.297 261.13,308.604C265.147,306.476 265.605,308.719 269.457,307.295C278.056,304.117 278.128,304.342 278.845,303.996C282.758,302.107 284.575,304.233 287.343,302.345C290.579,300.138 291.158,302.231 294.275,300.796C296.696,299.682 296.755,300.078 299.346,299.664C299.968,299.565 306.727,298.484 303.91,306.078C303.403,307.445 281.701,311.352 280.765,312.053C275.056,316.333 298.385,310.125 301.938,309.272C305.338,308.456 308.137,311.346 306.056,316.053C304.738,319.035 277.757,322.702 277.76,324.697C277.763,326.458 285.223,324.493 285.714,324.388C305.53,320.189 308.164,317.083 308.816,322.123C309.603,328.208 302.634,327.636 301.068,327.903C267.85,333.561 264.94,333.907 267.071,335.709C267.815,336.338 300.888,330.068 307.065,329.199C310.094,328.772 312.036,336.067 308.01,336.974C287.253,341.646 283.397,344.328 272.097,345.619C250.521,348.084 250.57,348.485 248.684,348.437C248.751,342.61 248.729,340.69 248.721,340.017C248.699,338.061 248.891,337.627 250.801,337.79C253.585,338.028 259.213,338.131 259.283,338.105C264.763,336.088 249.476,335.484 249.433,335.471C248.355,335.129 248.758,321.503 248.793,320.288C251.506,319.246 270.282,316.382 271.154,315.888C279.219,311.325 254.045,317.383 248.374,317.701L248.373,317.702Z" style="fill:rgb(252,252,252);"/>
            <path d="M340.598,372.037C351.971,381.388 355.072,391.972 367.239,413.462C370.211,418.711 372.338,419.181 368.866,424.103C362.648,432.916 373.926,449.696 372.429,452.355C370.542,455.705 369.775,454.987 359.056,464.422C355.847,467.247 354.561,468.835 352.621,465.031C346.681,453.383 337.909,427.936 329.791,412.558C309.459,374.044 289.432,354.855 290.252,353.748C291.284,352.356 306.083,349.728 312.171,348.501C316.364,347.656 319.783,357.415 326.606,362.237C330.859,365.242 334.724,367.173 340.598,372.037Z" style="fill:rgb(254,254,254);"/>
            <path d="M99.085,372.227C104.463,368.107 104.194,367.851 110.115,364.418C118.355,359.641 120.374,353.173 125.789,348.807C127.079,347.767 143.798,351.558 148.495,353.135C151.611,354.181 147.128,357.539 144.547,360.619C119.141,390.949 106.1,421.163 105.843,421.695C96.108,441.837 91.376,458.991 86.238,466.778C85.166,468.403 81.938,465.354 80.621,464.22C68.633,453.891 68.37,454.119 67.573,452.528C66.11,449.607 76.457,433.147 71.808,425.288C70.184,422.544 67.916,422.159 71.881,414.935C90.052,381.827 89.192,381.021 99.085,372.228L99.085,372.227Z" style="fill:rgb(254,254,254);"/>
            <path d="M248.704,351.184C254.882,349.543 260.526,348.893 261.115,348.84C284.961,346.7 284.453,344.281 307.932,339.244C311.723,338.431 315.936,345.52 311.246,346.488C293.062,350.243 293.2,350.464 275.473,355.903C263.92,359.071 262.24,359.412 261.074,359.649C254.788,360.927 219.296,363.108 218.477,363.006C209.785,361.923 185.346,361.479 175.02,358.803C151.942,352.822 152.392,351.35 129.091,346.539C125.481,345.794 125.816,343.265 129.082,340.077C129.819,339.358 131.167,338.042 141.872,341.54C166.851,349.702 176.982,347.675 186.926,350.302C189.261,350.919 187.524,355.909 188.862,356.752C190.164,357.572 241.184,357.095 245.734,357.052C249.787,357.014 248.506,355.178 248.704,351.183L248.704,351.184Z" style="fill:rgb(252,252,252);"/>
            <path d="M224.612,326.2C232.781,328.052 232.544,328.716 234.371,330.139C237.393,332.493 236.987,332.848 237.297,336.595C237.059,338.574 237.543,342.604 230.415,346.008C229.597,346.275 222.629,350.013 213.571,348.237C208.18,347.18 193.184,340.719 203.215,329.917C204.327,328.72 215.493,323.592 224.612,326.2Z" style="fill:rgb(13,13,13);"/>
            <path d="M211.579,324.193C218.09,323.3 218.031,323.475 224.529,324.079L225.624,324.257C225.175,324.703 225.091,324.465 224.633,324.918C224.56,324.99 224.631,325.013 224.611,326.2C215.492,323.592 204.326,328.72 203.214,329.917C193.183,340.719 208.179,347.18 213.57,348.237C222.628,350.012 229.596,346.274 230.414,346.008C237.541,342.604 237.058,338.574 237.296,336.595C237.846,336.897 238.396,337.2 238.946,337.502C239.672,345.313 228.986,349.122 228.634,349.215C218.111,351.981 214.494,350.232 209.897,349.23C209.386,349.215 208.875,349.199 208.364,349.184C203.78,347.247 194.789,340.304 198.274,333.396C198.524,333.182 198.774,332.967 199.024,332.753C201.615,327.478 205.435,326.644 205.814,326.454C205.867,326.154 205.919,325.853 205.972,325.553C205.338,324.235 204.567,323.785 205.586,323.669C207.239,323.482 206.682,325.151 208.297,325.008C208.857,324.958 209.37,324.639 209.93,324.589C210.479,324.457 211.029,324.325 211.578,324.193L211.579,324.193Z" style="fill:rgb(171,171,171);"/>
            <path d="M215.862,330.39C216.096,330.579 215.46,331.338 218.334,332.124C218.274,332.41 217.749,334.92 219.459,335.595C222.525,336.804 219.726,339.939 222.993,340.394C223.177,340.432 225.298,340.87 225.298,340.87C225.591,341.015 225.522,341.558 225.815,341.704C227.604,346.975 223.798,343.273 223.656,343.158C222.092,342.083 222.056,342.278 220.249,341.561C217.886,340.52 217.766,341.447 217.477,341.601C216.968,341.631 216.459,341.661 215.951,341.692C213.266,340.39 214.167,339.629 213.115,337.632C212.169,335.836 211.504,340.359 210.615,343.338L209.974,344.349C209.754,344.336 209.702,344.805 209.482,344.792C208.53,344.735 209.328,343.245 208.995,339.215L208.612,338.268C208.479,337.985 208.442,338.015 206.85,334.782C205.97,333.365 202.617,330.72 205.7,330.601C206.994,330.551 211.954,333.006 213.453,331.588C214.578,330.523 215.827,330.409 215.864,330.391L215.862,330.39Z" style="fill:rgb(214,214,214);"/>
            <path d="M223.574,329.375C223.556,330.071 223.538,330.768 223.521,331.464C223.498,331.865 223.285,335.558 224.439,336.396C225.656,337.28 225.038,335.843 225.092,332.358C225.489,331.935 225.887,331.513 226.284,331.09C229.516,331.177 231.714,327.465 230.984,330.612C230.491,332.739 229.152,333.913 232.002,334.395C233.017,334.567 233.114,336.034 232.02,336.432C229.839,337.225 230.466,337.874 231.069,340.05C231.23,340.63 230.51,343.123 230.337,343.386C230.156,343.662 229.635,343.559 229.454,343.836C227.728,342.39 229.047,336.044 226.986,337.454C226.796,337.584 226.768,337.603 226.565,340.3C225.698,338.956 225.355,338.129 224.535,338.571C224.535,338.571 223.348,339.239 223.244,339.297C221.38,332.713 221.607,332.553 221.087,332.282C220.18,331.808 220.175,332.037 218.335,332.123C215.461,331.337 216.097,330.577 215.863,330.389C219.438,328.704 219.647,330.092 223.575,329.374L223.574,329.375Z" style="fill:rgb(228,228,228);"/>
            <path d="M249.966,329.569C249.956,329.433 249.837,327.871 249.837,327.871C249.888,326.873 250.361,327.39 251.7,327.357C263.205,327.075 273.285,324.015 273.678,324.188C275.458,324.973 274.167,328.44 249.966,329.569Z" style="fill:rgb(29,29,29);"/>
            <path d="M248.373,317.702C254.044,317.383 279.218,311.325 271.153,315.889C270.28,316.383 251.505,319.247 248.792,320.289C248.426,318.978 248.486,319.017 248.373,317.702Z" style="fill:rgb(28,28,28);"/>
            <path d="M225.625,324.257C226.066,324.163 226.506,324.069 226.947,323.976C227.746,324.344 228.545,324.713 229.344,325.081C230.054,325.68 229.966,325.731 231.412,326.129C238.451,330.004 238.308,330.546 239.595,335.775C239.379,336.351 239.163,336.927 238.947,337.503C238.397,337.201 237.847,336.898 237.297,336.596C236.987,332.849 237.393,332.493 234.371,330.14C232.544,328.717 232.781,328.053 224.612,326.201C224.632,325.014 224.561,324.991 224.634,324.919C225.091,324.466 225.175,324.703 225.625,324.258L225.625,324.257Z" style="fill:rgb(199,199,199);"/>
            <path d="M215.949,341.691C216.458,341.661 216.967,341.631 217.475,341.6C218.373,342.562 218.197,343.389 219.35,342.707C219.768,342.46 219.829,341.807 220.247,341.559C222.054,342.277 222.09,342.081 223.654,343.156C221.34,346.677 220.054,343.292 216.006,344.51C213.71,345.201 213.701,345.965 211.886,344.982C211.886,344.982 210.125,344.397 209.971,344.347L210.612,343.336C212.115,343.475 212.078,343.433 213.524,342.975C214.277,342.737 215.144,342.85 215.841,342.48C216.076,342.355 215.712,341.814 215.947,341.689L215.949,341.691Z" style="fill:rgb(166,166,166);"/>
            <path d="M218.334,332.124C220.174,332.038 220.179,331.809 221.086,332.283C221.606,332.555 221.379,332.715 223.243,339.298L222.992,340.393C219.725,339.938 222.524,336.803 219.458,335.594C217.749,334.92 218.274,332.409 218.333,332.123L218.334,332.124Z" style="fill:rgb(17,17,17);"/>
            <path d="M215.949,341.691C215.714,341.816 216.078,342.357 215.843,342.482C215.145,342.852 214.279,342.738 213.526,342.977C212.08,343.435 212.117,343.477 210.614,343.338C211.503,340.359 212.168,335.836 213.114,337.632C214.165,339.628 213.265,340.39 215.95,341.692L215.949,341.691Z" style="fill:rgb(6,6,6);"/>
            <path d="M204.769,335.371C206.904,337.364 206.631,337.531 208.168,340.019C207.811,340.071 207.763,340.736 207.406,340.788C207.148,340.826 204.45,341.219 204.57,339.184C204.682,337.289 202.85,337.302 203.947,335.729C204.118,335.484 204.598,335.615 204.769,335.37L204.769,335.371Z" style="fill:rgb(191,191,191);"/>
            <path d="M217.26,337.474C216.798,339.111 217.551,340.531 216.066,339.65C214.957,338.992 214.434,334.718 214.601,334.176C215.558,331.073 217.173,337.146 217.26,337.474Z" style="fill:rgb(18,18,18);"/>
            <path d="M206.849,334.781C208.441,338.014 208.478,337.984 208.611,338.267L208.994,339.214L208.168,340.02C206.631,337.532 206.904,337.365 204.769,335.372C205.462,335.175 206.155,334.978 206.849,334.782L206.849,334.781Z" style="fill:rgb(75,75,75);"/>
            <path d="M223.574,329.375C225.459,329.134 225.594,329.356 226.283,331.091C225.886,331.514 225.488,331.936 225.091,332.359L223.52,331.464C223.538,330.768 223.556,330.071 223.573,329.375L223.574,329.375Z" style="fill:rgb(153,153,153);"/>
            <path d="M223.52,331.465L225.091,332.36C225.037,335.844 225.655,337.281 224.438,336.398C223.284,335.56 223.497,331.867 223.52,331.466L223.52,331.465Z" style="fill:rgb(59,59,59);"/>
            <path d="M223.243,339.299C223.346,339.241 224.534,338.573 224.534,338.573C225.354,338.131 225.697,338.958 226.564,340.302C226.314,340.769 226.064,341.237 225.814,341.704C225.521,341.559 225.59,341.016 225.297,340.87C225.297,340.87 223.177,340.432 222.992,340.394L223.243,339.299Z" style="fill:rgb(141,141,141);"/>
            <path d="M224.529,324.08C225.265,321.466 225.188,321.485 225.276,321.27C226.727,317.702 226.938,323.722 226.947,323.976C226.506,324.07 226.066,324.164 225.625,324.257L224.53,324.079L224.529,324.08Z" style="fill:rgb(120,120,120);"/>
            <path d="M210.008,337.167C208.826,334.712 207.151,333.832 209.277,333.54C212.336,333.121 210.156,336.91 210.008,337.167Z" style="fill:rgb(29,29,29);"/>
            <path d="M229.344,325.081C230.743,323.59 231.486,321.805 231.816,323.846C231.994,324.948 231.023,324.613 230.968,325.707C230.958,325.911 231.423,325.925 231.412,326.128C229.966,325.731 230.054,325.679 229.344,325.08L229.344,325.081Z" style="fill:rgb(87,87,87);"/>
            <path d="M211.579,324.193C211.03,324.325 210.48,324.457 209.931,324.589C209.95,323.756 209.823,323.808 209.968,322.992C211.233,315.849 211.572,324.033 211.579,324.193Z" style="fill:rgb(78,78,78);"/>
            <path d="M239.595,335.775C242.888,336.287 242.361,337.18 242.208,337.371C242.028,337.597 242.046,337.485 240.429,337.077C239.386,336.814 239.04,337.476 238.947,337.503C239.163,336.927 239.379,336.351 239.595,335.775Z" style="fill:rgb(87,87,87);"/>
            <path d="M228.539,334.797C225.532,337.615 227.065,332.356 228.34,332.766C228.787,332.91 228.545,333.081 228.539,334.797Z" style="fill:rgb(39,39,39);"/>
            <path d="M199.025,332.754C198.775,332.968 198.525,333.183 198.275,333.397C196.915,331.789 196.091,331.977 196.69,330.815C196.801,330.599 197.379,329.912 199.025,332.754Z" style="fill:rgb(58,58,58);"/>
            <path d="M217.476,341.6C217.765,341.445 217.885,340.519 220.248,341.56C219.83,341.807 219.769,342.46 219.351,342.708C218.198,343.39 218.374,342.563 217.476,341.601L217.476,341.6Z" style="fill:rgb(62,62,62);"/>
            <path d="M208.365,349.185C208.876,349.2 209.387,349.216 209.898,349.231L209.394,350.242C208.546,350.682 208.587,350.746 208.546,350.682C208.546,350.682 208.379,349.305 208.365,349.186L208.365,349.185Z" style="fill:rgb(114,114,114);"/>
        </g>
    </g>
</svg>
