<?xml version="1.0" encoding="UTF-8" standalone="no"?>
<!DOCTYPE svg PUBLIC "-//W3C//DTD SVG 1.1//EN" "http://www.w3.org/Graphics/SVG/1.1/DTD/svg11.dtd">
<svg width="100%" height="100%" viewBox="0 0 304 235" version="1.1" xmlns="http://www.w3.org/2000/svg" xmlns:xlink="http://www.w3.org/1999/xlink" xml:space="preserve" xmlns:serif="http://www.serif.com/" style="fill-rule:evenodd;clip-rule:evenodd;stroke-linejoin:round;stroke-miterlimit:2;">
    <g id="Mesa-de-trabajo1" serif:id="Mesa de trabajo1" transform="matrix(0.690909,0,0,0.245084,0,0)">
        <rect x="0" y="0" width="440" height="956" style="fill:none;"/>
    </g>
    <g id="Mesa-de-trabajo11" serif:id="Mesa de trabajo1" transform="matrix(0.858378,0,0,0.857871,-36.841894,-246.501106)">
        <g>
            <path d="M192.5,559.461C190.635,560.874 190.519,559.852 188.262,559.1C171.037,553.356 171.916,551.517 155.217,544.361C145.332,540.125 99.178,516.775 73.046,491.346C66.084,484.571 41.099,468.44 43.026,462.729C47.567,449.272 53.809,441.562 46.057,431.646C43.244,428.048 45.814,427.554 64.104,392.481C78.321,365.218 95.36,364.746 102.142,354.467C107.508,346.334 110.777,346.003 111.012,343.944C111.124,342.965 109.61,340.47 113.187,336.154C115.253,333.662 115.114,333.496 114.62,330.327C113.683,324.325 117.506,323.433 117.124,321.61C116.543,318.839 114.387,316.313 118.113,311.861C120.816,308.631 116.655,306.118 119.302,302.267C121.728,298.737 121.431,298.579 121.283,294.345C121.015,286.672 128.91,287.73 129.756,287.844C132.891,288.264 132.984,287.737 135.818,289.131C137.671,290.043 140.013,288.138 143.369,290.547C147.541,293.542 148.426,290.596 153.068,292.657C158.329,294.993 158.605,294.092 163.82,296.448C167.017,297.893 169.943,296.354 172.541,297.511C176.25,299.163 176.442,297.761 180.415,298.355C182.217,298.624 184.289,300.689 185.283,300.658C186.272,300.627 187.239,300.349 188.225,300.266C189.86,300.129 192.494,301.99 194.942,300.913C197.849,299.634 197.873,299.38 200.839,300.315C203.436,301.134 205.764,298.767 208.778,299.883C212.056,301.097 212.071,300.536 215.446,299.964C216.063,299.859 216.07,300.414 223.264,299.872C227.207,299.575 227.277,301.506 231.012,300.056C235.227,298.42 235.481,301.373 240.696,299.832C243.966,298.866 244.854,302.137 248.566,301.069C251.481,300.23 251.436,300.331 254.384,300.591C256.901,300.813 258.006,297.899 261.238,298.305C264.768,298.749 264.749,298.718 268.086,297.341C270.771,296.234 272.703,298.342 277.611,295.918C279.999,294.739 289.731,291.958 290.434,291.947C294.603,291.883 294.499,291.493 298.336,289.692C300.252,288.793 303.082,289.684 304.021,289.288C322.121,281.66 318.291,298.829 319.085,299.907C322.269,304.236 321.506,304.582 321.032,309.905C320.936,310.981 325.618,314.024 323.808,319.735C322.27,324.585 326.032,324.261 325.644,329.399C325.358,333.191 324.706,333.496 327.246,336.38C330.963,340.6 328.214,343.325 329.615,344.846C333.753,349.338 334.341,348.74 338.605,355.363C343.662,363.217 360.834,365.037 375.225,390.693C376.897,393.674 393.877,423.946 394.883,428.626C395.843,433.089 388.412,432.944 391.173,445.152C394.619,460.39 402.097,462.681 391.969,470.915C373.405,486.01 355.57,502.268 345.999,508.606C326.347,521.619 327.106,522.747 295.521,539.104C281.34,546.448 280.916,545.445 266.931,553.055C261.862,555.813 253.589,558.565 252.398,558.961C251.374,559.302 249.641,561.543 247.97,559.806C222.102,532.907 222.368,525.136 217.531,531.016C202.141,549.729 194.632,557.304 192.498,559.457L192.5,559.461Z" style="fill:rgb(16,16,16);"/>
            <path d="M218.441,526.081C199.078,548.615 192.681,557.623 190.178,557.076C186.947,556.37 185.433,556.038 152.354,540.389C106.069,518.492 79.742,494.207 74.249,489.14C67.712,483.11 44.329,466.977 45.557,462.869C48.915,451.637 57.114,442.765 48.341,430.46C46.278,427.567 70.536,385.656 74.727,380.346C84.411,368.074 97.118,365.731 103.963,355.972C111.953,344.581 115.067,346.214 116.109,346.411C155.955,353.95 154.55,361.53 195.047,363.256C203.386,363.611 203.275,364.582 211.593,364.524C218.646,364.475 217.713,366.823 217.722,367.351C218.139,390.298 217.574,515.584 218.652,522.117C219.001,524.231 218.896,524.18 218.44,526.082L218.441,526.081Z" style="fill:rgb(254,254,254);"/>
            <path d="M252.467,310.941C242.662,309.75 189.837,312.277 177.658,309.462C176.371,309.165 153.968,303.985 161.17,308.638C162.985,309.811 183.01,312.092 183.635,313.713C183.756,314.026 184.67,321.577 182.496,321.893C178.35,322.496 161.789,318.785 160.012,318.387C158.277,317.998 157.382,320.059 159.895,320.857C176.947,326.267 183.612,322.111 183.789,326.447C183.832,327.502 184.817,331.521 181.435,331.619C180.866,331.636 172.466,331.88 174.763,334.077C175.884,335.149 183.686,332.146 183.785,336.185C183.807,337.079 184.672,345.974 182.333,345.561C161.977,341.962 161.505,344.737 134.767,336.862C133.454,336.475 133.589,336.119 119.225,332.958C115.629,332.167 116.241,323.361 121.086,324.142C135.224,326.422 160.43,330.951 163.847,331.565C167.67,332.252 166.762,329.79 165.777,329.505C163.27,328.779 163.228,329.023 133.672,323.725C125.72,322.3 117.539,323.112 118.552,315.84C119.408,309.691 129.043,315.125 133.652,316.04C142.62,317.82 157.882,322.179 153.732,318.148C152.583,317.032 123.014,312.409 121.506,308.718C121.324,308.273 118.577,299.223 127.766,301.567C146.972,306.467 151.848,307.452 151.313,305.02C151.091,304.013 139.663,302.055 130.853,299.882C124.679,298.359 121.897,298.447 124.049,292.436C125.977,287.049 134.213,292.334 138.641,291.837C142.153,291.443 143.316,294.526 146.361,294.456C147.473,294.43 150.635,294.358 159.958,297.349C164.387,298.77 164.158,299.776 168.796,299.577C173.748,299.364 173.548,301.637 178.451,300.886C181.786,300.375 182.82,303.523 185.31,303.273C188.799,302.922 188.78,302.91 192.184,303.755C196.214,304.756 196.197,301.096 200.07,302.741C204.191,304.491 204.701,300.588 209.679,303.039C212.391,304.374 215.554,302.353 216.468,302.394C220.36,302.565 220.313,302.012 224.196,302.439C227.877,302.844 227.876,303.889 231.297,302.589C235.903,300.839 236.209,304.038 240.9,302.389C242.845,301.705 245.393,304.508 248.467,303.666C251.866,302.735 251.861,303.533 255.411,303.243C257.687,303.057 258.784,300.545 261.262,300.83C265.203,301.284 265.202,301.165 268.895,299.782C270.424,299.209 273.978,300.27 276.735,299.009C277.783,298.53 278.804,297.993 279.849,297.509C280.493,297.211 280.733,298.156 288.332,294.903C291.354,293.61 294.103,295.081 296.115,293.957C299.396,292.124 299.358,291.788 303.118,292.04C303.673,292.077 318.809,285.205 316.273,297.192C315.637,300.197 279.122,304.764 290.339,306.508C293.997,307.077 314.822,299.113 317.722,302.127C321.203,305.745 318.697,309.706 316.886,310.293C296.85,316.794 277.077,318.999 287.455,320.019C289.507,320.221 306.339,316.127 307.968,315.731C317.731,313.357 319.026,310.734 321.363,314.905C322.037,316.108 321.793,320.698 319.579,321.456C315.306,322.918 273.944,328.412 273.627,330.271C273.018,333.853 275.866,330.895 318.636,324.228C324.935,323.246 323.779,332.319 321.401,332.889C303.867,337.094 304.254,338.377 286.502,341.798C272.964,344.407 272.713,342.453 256.381,345.987C254.668,346.358 254.692,346.23 252.937,345.853C253.008,335.57 252.652,333.942 254.352,333.914C256.622,333.876 267.623,335.42 265.731,332.627C264.285,330.493 253.214,333.313 252.994,329.443C252.55,321.621 252.805,321.674 252.887,313.867C258.921,312.187 270.098,310.881 277.822,309.046C280.658,308.372 279.528,306.346 277.791,306.606C275.911,306.887 258.82,309.447 254.418,310.866C253.392,311.197 253.461,311.261 252.462,310.944L252.467,310.941Z" style="fill:rgb(253,253,253);"/>
            <path d="M253.46,348.87C264.72,346.674 266.914,346.517 268.099,346.433C296.878,344.374 300.18,339.604 319.76,335.714C320.399,335.587 325.03,334.667 326.66,340.045C327.92,344.204 322.604,344.146 321.688,344.342C277.212,353.834 278.255,358.543 259.222,360.074C257.127,360.243 233.983,362.105 233.031,362.081C222.179,361.815 222.249,362.68 221.313,362.616C189.343,360.432 179.8,362.338 145.294,351.111C117.752,342.15 110.384,345.96 114.108,339.061C117.223,333.29 122.854,336.052 133.698,339.157C164.591,348.006 168.52,345.297 180.492,347.656C187.501,349.037 181.396,355.32 185.253,355.903C185.825,355.989 251.025,356.027 251.563,355.891C252.127,355.749 252.8,355.581 253.459,348.87L253.46,348.87Z" style="fill:rgb(252,252,252);"/>
            <path d="M225.388,320.484C227.777,321.176 227.712,321.193 230.104,321.715C231.045,322.057 231.986,322.399 232.927,322.742C239.603,326.926 239.668,328.587 239.698,329.343C239.902,334.537 241.115,337.304 233.941,342.352C227.453,346.918 216.085,346.022 214.51,345.898C212.665,345.557 193.806,342.069 197.834,329.405C198.862,327.773 199.248,325.843 202.957,323.694L204.681,322.869C205.631,322.563 215.106,318.377 225.388,320.484Z" style="fill:rgb(12,12,12);"/>
            <path d="M232.162,323.803C232.665,325.157 232.83,325.144 232.415,326.533C231.078,331.009 233.936,330.089 234.109,330.127C234.566,330.226 236.138,332.015 233.073,332.43C230.1,332.832 233.458,335.24 232.692,338.057C230.194,347.248 229.731,334.094 229.542,333.827C228.114,331.817 228.373,334.32 227.006,339.161C225.63,337.851 225.8,337.747 224.093,336.973C222.418,330.693 224.744,328.191 218.38,326.919C217.633,326.301 216.886,325.683 216.139,325.064C218.585,323.924 218.65,324.541 221.33,324.808C224.249,325.098 225.786,322.093 227.284,326.19L228.152,326.451C228.324,327.946 228.374,327.871 228.051,329.356C227.576,331.538 230.059,331.614 230.034,329.392C230.011,327.334 229.436,327.568 228.994,326.223C230.686,325.078 230.494,324.981 232.163,323.804L232.162,323.803Z" style="fill:rgb(221,221,221);"/>
            <path d="M230.969,319.758L233.104,320.528C241.067,324.677 241.542,326.474 242.635,331.368C242.564,331.898 242.494,332.428 242.423,332.958C241.266,335.327 242.251,338.344 238.97,341.226C228.068,350.8 219.947,348.522 213.511,347.996C214.071,346.576 213.943,346.561 214.511,345.9C216.086,346.024 227.454,346.92 233.942,342.354C241.116,337.306 239.903,334.539 239.699,329.345C239.669,328.589 239.604,326.928 232.928,322.744C231.987,322.402 231.046,322.06 230.105,321.717L230.969,319.759L230.969,319.758Z" style="fill:rgb(161,161,161);"/>
            <path d="M216.138,325.064C216.885,325.682 217.632,326.3 218.379,326.919C216.764,330.814 220.583,330.866 220.9,332.535C221.45,335.435 220.524,336.843 224.093,336.973C225.8,337.747 225.629,337.851 227.006,339.161C227.644,340.885 227.699,340.864 227.695,341.023C227.644,342.883 226.765,341.429 224.316,339.932C222.35,338.996 222.446,338.974 220.338,338.2C220.002,337.981 218.957,337.298 215.329,338.327L214.541,338.144C214.407,337.975 212.86,336.029 212.86,336.029C212.574,335.23 212.881,334.101 212.225,333.565C211.796,333.214 211.157,334.637 210.728,334.287C210.709,333.612 210.689,332.937 210.67,332.261C210.871,331.51 211.692,331.71 211.412,329.492C211.39,329.314 211.355,329.335 210.645,327.379C213.533,326.448 213.309,326.126 216.138,325.066L216.138,325.064Z" style="fill:rgb(197,197,197);"/>
            <path d="M195.422,328.718L196.014,328.417L197.836,329.405C193.808,342.07 212.667,345.557 214.512,345.898C213.944,346.559 214.072,346.574 213.512,347.994C211.911,347.664 210.31,347.333 208.71,347.003C208.059,346.955 207.408,346.907 206.756,346.859C200.941,344.509 191.449,336.363 195.423,328.718L195.422,328.718Z" style="fill:rgb(185,185,185);"/>
            <path d="M255.412,321.992C278.98,320.124 278.719,318.227 280.767,318.314C293.93,318.872 259.391,325.933 254.426,324.46C254.426,324.46 254.341,322.399 254.334,322.22C254.693,322.144 255.053,322.068 255.412,321.992Z" style="fill:rgb(31,31,31);"/>
            <path d="M210.645,327.377C211.355,329.334 211.389,329.312 211.412,329.49C211.691,331.708 210.871,331.508 210.67,332.259C210.689,332.934 210.709,333.609 210.728,334.285C209.285,340.633 209.52,340.791 208.768,341.397C207.108,342.734 207.731,337.501 207.772,337.155C207.575,335.577 207.55,335.686 207.03,334.241C206.852,333.857 205.132,330.15 204.619,329.528C204.022,328.804 199.54,324.88 205.814,326.265C208.264,326.806 208.198,326.814 210.646,327.378L210.645,327.377Z" style="fill:rgb(238,238,238);"/>
            <path d="M252.467,310.941C253.466,311.259 253.397,311.194 254.423,310.863C258.825,309.444 275.916,306.885 277.796,306.603C279.533,306.343 280.663,308.37 277.827,309.043C270.103,310.877 258.926,312.184 252.892,313.864C252.88,313.628 252.728,313.662 252.467,310.941Z" style="fill:rgb(36,36,36);"/>
            <path d="M211.575,318.186C217.926,317.517 217.871,317.531 224.246,317.879C227.027,318.031 224.742,314.36 227.243,314.535C227.553,314.557 227.899,314.581 228.202,318.294C224.247,318.491 225.489,320.127 225.388,320.483C215.105,318.376 205.63,322.561 204.681,322.868C204.747,322.135 204.812,321.401 204.878,320.668C205.005,320.545 205.063,320.647 206.655,319.361C207.335,319.159 208.015,318.957 208.695,318.755C209.216,318.651 209.142,318.791 209.645,318.69C209.801,318.659 209.788,318.653 211.574,318.185L211.575,318.186Z" style="fill:rgb(163,163,163);"/>
            <path d="M214.542,338.143L215.33,338.326C215.832,338.464 215.787,339.42 216.288,339.558C216.787,339.696 217.22,339.051 217.734,338.988C219.466,338.779 219.346,339.323 219.469,339.256C219.869,339.037 219.939,338.419 220.339,338.199C222.446,338.973 222.35,338.995 224.317,339.931C222.079,343.674 220.73,340.276 216.548,341.366C212.171,342.507 211.322,343.766 210.985,341.895C210.691,340.264 214.408,339.295 214.523,339.141C214.722,338.874 214.343,338.41 214.542,338.143Z" style="fill:rgb(176,176,176);"/>
            <path d="M218.379,326.918C224.744,328.19 222.417,330.692 224.092,336.972C220.523,336.841 221.449,335.433 220.899,332.534C220.583,330.865 216.764,330.814 218.378,326.918L218.379,326.918Z" style="fill:rgb(13,13,13);"/>
            <path d="M207.03,334.24C207.55,335.685 207.575,335.575 207.772,337.154C207.329,337.199 202.472,337.689 202.544,335.259C202.576,334.178 200.809,328.972 203.698,331.709C203.858,331.861 203.766,331.896 205.113,334.08C205.194,334.211 205.251,334.092 207.029,334.242L207.03,334.24Z" style="fill:rgb(176,176,176);"/>
            <path d="M203.678,323.056L202.958,323.694C199.249,325.843 198.863,327.773 197.835,329.405L196.013,328.417C197.59,325.215 198.815,324.091 199.144,323.789C199.396,323.558 202.128,321.051 202.734,321.482C203.233,321.836 203.179,322.702 203.677,323.056L203.678,323.056Z" style="fill:rgb(115,115,115);"/>
            <path d="M217.006,333.311C216.52,335.4 216.596,337.281 215.246,335.573C213.131,332.898 214.295,326.019 216.021,329.719C216.147,329.989 216.094,329.985 217.006,333.31L217.006,333.311Z" style="fill:rgb(16,16,16);"/>
            <path d="M228.202,318.295C229.764,318.779 229.791,318.658 230.969,319.758L230.105,321.716C227.713,321.194 227.778,321.176 225.389,320.485C225.49,320.128 224.247,318.492 228.203,318.296L228.202,318.295Z" style="fill:rgb(217,217,217);"/>
            <path d="M226.23,326.725C226.094,329.522 226.073,329.439 226.014,332.188C225.612,331.925 225.01,332.72 224.495,331.197C224.379,330.854 224.069,328.153 224.105,327.384C224.174,325.904 224.824,326.569 226.231,326.725L226.23,326.725Z" style="fill:rgb(63,63,63);"/>
            <path d="M210.67,332.259C209.149,332.924 208.717,333.619 207.99,332.062C207.89,331.848 206.708,329.319 207.529,329.139C207.875,329.063 208.658,328.891 210.67,332.259Z" style="fill:rgb(40,40,40);"/>
            <path d="M228.15,326.451L228.992,326.222C229.434,327.567 230.009,327.333 230.032,329.391C230.057,331.613 227.574,331.537 228.049,329.355C228.372,327.87 228.322,327.946 228.15,326.45L228.15,326.451Z" style="fill:rgb(74,74,74);"/>
            <path d="M215.329,338.326C218.957,337.297 220.002,337.98 220.338,338.199C219.938,338.418 219.868,339.036 219.468,339.256C219.345,339.324 219.465,338.779 217.733,338.988C217.219,339.05 216.786,339.695 216.287,339.558C215.785,339.42 215.83,338.464 215.329,338.326Z" style="fill:rgb(105,105,105);"/>
            <path d="M242.634,331.367C245.205,331.852 245.464,332.155 245.628,332.346C246.514,333.382 245.504,334.319 242.422,332.956C242.493,332.426 242.563,331.896 242.634,331.366L242.634,331.367Z" style="fill:rgb(96,96,96);"/>
            <path d="M230.969,319.758C230.98,319.733 231.673,316.839 232.966,317.061C234.702,317.359 232.923,318.055 232.618,319.8C232.568,320.087 233.155,320.24 233.104,320.528L230.969,319.758Z" style="fill:rgb(84,84,84);"/>
            <path d="M211.575,318.186C209.788,318.654 209.802,318.66 209.646,318.691C209.143,318.792 209.217,318.652 208.696,318.756C208.698,318.521 208.741,313.056 211.576,318.186L211.575,318.186Z" style="fill:rgb(83,83,83);"/>
            <path d="M206.655,319.362C205.063,320.648 205.005,320.546 204.878,320.669C203.275,318.465 202.993,318.485 203.244,317.941C203.368,317.673 203.665,317.029 206.655,319.362Z" style="fill:rgb(111,111,111);"/>
            <path d="M206.754,346.859C207.405,346.907 208.056,346.955 208.708,347.003L208.045,347.894C207.391,348.274 207.473,349.16 207.041,348.477C207.041,348.477 206.777,346.988 206.754,346.858L206.754,346.859Z" style="fill:rgb(120,120,120);"/>
            <path d="M194.489,327.527C194.339,326.438 193.179,325.969 194.27,325.934C194.831,325.916 194.899,326.408 194.908,326.475C194.998,327.13 194.404,326.912 194.489,327.527Z" style="fill:rgb(46,46,46);"/>
            <path d="M203.678,323.056L204.681,322.869L202.957,323.694L203.677,323.056L203.678,323.056Z" style="fill:rgb(52,52,52);"/>
        </g>
    </g>
</svg>
