<?xml version="1.0" encoding="UTF-8" standalone="no"?>
<!DOCTYPE svg PUBLIC "-//W3C//DTD SVG 1.1//EN" "http://www.w3.org/Graphics/SVG/1.1/DTD/svg11.dtd">
<svg width="100%" height="100%" viewBox="0 0 304 235" version="1.1" xmlns="http://www.w3.org/2000/svg" xmlns:xlink="http://www.w3.org/1999/xlink" xml:space="preserve" xmlns:serif="http://www.serif.com/" style="fill-rule:evenodd;clip-rule:evenodd;stroke-linejoin:round;stroke-miterlimit:2;">
    <g id="Mesa-de-trabajo1" serif:id="Mesa de trabajo1" transform="matrix(0.690909,0,0,0.245084,0,0)">
        <rect x="0" y="0" width="440" height="956" style="fill:none;"/>
    </g>
    <g id="Mesa-de-trabajo11" serif:id="Mesa de trabajo1">
        <g transform="matrix(1.001719,0,0,1.026789,-68.377863,-343.14639)">
            <path d="M223.901,543.66C218.793,538.131 218.99,538.068 218.534,537.608C214.514,533.553 214.91,539.072 194.28,560.909C192.341,562.961 191.96,562.19 189.36,561.29C176.353,556.792 176.873,555.538 169.779,552.353C119.573,529.813 105.915,515.142 93.05,504.309C82.38,495.324 82.134,495.729 71.439,486.71C66.113,482.219 68.556,481.024 71.016,474.468C77.585,456.959 70.747,455.855 70.261,453.487C69.745,450.969 84.114,424.931 89.547,416.133C99.861,399.43 113.267,396.662 116.62,392.013C124.247,381.437 125.296,382.058 125.34,380.931C125.501,376.803 125.631,376.759 128.29,373.515C129.917,371.529 126.67,368.156 129.323,364.725C132.137,361.086 127.349,358.802 130.854,354.875C133.678,351.711 130.311,350.033 131.981,346.873C133.475,344.045 134.178,344.218 133.906,340.998C132.968,329.891 145.705,335.781 148.755,335.548C151.768,335.318 152.976,337.792 155.253,337.797C159.095,337.805 158.969,338.191 162.587,339.353C165.956,340.435 166.038,340.013 169.264,341.481C172.281,342.854 174.511,341.363 177.24,342.64C181.62,344.688 182.359,341.798 185.148,343.798C187.376,345.396 187.617,344.513 190.321,344.722C193.783,344.989 193.885,346.033 196.968,344.551C199.574,343.298 199.68,345.632 202.445,344.842C203.02,344.678 203.582,344.473 204.158,344.31C207.479,343.368 208.037,345.979 210.686,345.134C217.107,343.085 223.036,345.717 224.537,345.126C227.702,343.878 227.768,344.087 231.06,344.93C232.653,345.339 234.13,343.639 235.863,344.382C238.991,345.723 239.071,345.658 242.371,344.804C244.355,344.291 245.275,346.027 247.385,344.327C250.785,341.59 252.361,344.403 255.293,343.048C259.517,341.097 260.019,343.305 263.542,341.636C267.388,339.814 267.654,340.672 271.562,338.994C276.152,337.024 276.859,339.253 280.984,336.497C283.767,334.638 285.387,336.314 287.287,335.351C289.558,334.2 289.645,334.698 292.118,334.345C302.217,332.901 298.161,342.376 299.408,344.282C301.804,347.944 301.944,348.063 301.148,352.398C300.819,354.191 302.845,354.838 303.43,356.506C304.302,358.99 302.781,362.905 302.784,362.98C302.854,364.717 305.939,364.124 304.611,371.184C303.811,375.438 308.015,374.214 308.023,378.481C308.03,382.453 308.637,382.307 311.448,385.22C314.929,388.827 315.65,390.864 316.784,392.145C323.638,399.89 333.81,397.32 347.806,423.138C358.892,443.588 364.547,451.983 362.063,454.925C357.402,460.444 358.733,465.532 363.994,478.613C366.767,485.507 361.039,486.817 341.801,503.083C332.485,510.96 332.642,511.018 323.01,518.492C293.695,541.24 243.576,561.371 242.145,562.224C239.101,564.039 229.334,549.604 223.902,543.661L223.901,543.66Z" style="fill:rgb(17,17,17);"/>
            <path d="M215.021,534.251C208.885,540.938 208.932,542.127 207.558,541.118C188.312,526.985 190.329,524.401 170.13,511.769C163.93,507.892 154.477,500.528 153.155,499.498C148.427,495.815 132.116,478.058 129.892,467.293C129.561,465.693 127.82,457.265 128.482,446.915C129.148,436.495 138.625,411.592 139.761,408.606C144.103,397.195 148.715,388.518 149.585,388.336C153.797,387.453 163.387,395.488 189.476,397.148C199.28,397.772 199.179,398.56 209.023,398.484C215.159,398.437 215.136,399.47 221.228,398.642C222.263,398.501 222.306,399.409 234.266,397.882C243.273,396.732 250.5,397.949 265.152,393.614C276.394,390.288 282.715,387.799 283.673,389.306C290.549,400.125 303.967,439.21 303.815,447.721C303.651,456.899 306.199,467.713 291.745,486.489C280.041,501.692 257.355,513.367 244.071,525.131C235.148,533.034 225.429,541.871 223.746,540.529C223.699,540.491 219.493,535.83 219.124,535.421C217.37,533.477 217.064,532.654 215.022,534.251L215.021,534.251Z" style="fill:rgb(254,254,254);"/>
            <path d="M296.966,384.679C304.556,383.2 304.501,383.172 305.163,383.082C307.912,382.707 312.494,389.409 312.968,390.102C320.007,400.398 327.443,399.926 336.602,409.723C343.077,416.649 359.118,448.565 360.278,451.109C362.035,454.961 352.094,456.318 361.403,477.859C363.607,482.958 362.429,483.388 358.209,486.918C328.673,511.621 328.367,511.854 325.676,513.901C313.85,522.899 313.541,522.405 308.534,526.097C295.538,535.682 250.501,556.653 246.4,558.24C241.541,560.121 240.57,560.538 235.212,554.357C234.669,553.731 229.503,547.77 228.75,546.261C228.169,545.097 243.018,534.012 246.166,531.256C264.774,514.966 281.912,508.11 291.333,496.618C310.49,473.251 309.73,470.937 309.716,446.905C309.708,433.401 306.703,433.996 303.398,420.865C302.29,416.461 293.993,396.226 289.231,387.323C288.364,385.702 296.26,384.819 296.966,384.679Z" style="fill:rgb(254,254,254);"/>
            <path d="M100.62,406.111C105.846,401.748 110.868,398.765 112.641,397.657C120.743,392.596 118.955,390.719 125.858,384.096C126.807,383.185 127.388,382.628 142.21,385.816C143.744,386.146 143.52,386.727 142.637,388.009C139.174,393.035 140.201,394.109 137.543,399.748C130.653,414.362 131.475,414.62 126.035,429.837C120.876,444.267 122.595,444.609 122.604,459.94C122.618,481.117 144.421,502.362 162.72,514.314C176.486,523.305 176.431,523.261 189.213,533.618C190.395,534.576 203.865,545.491 203.968,545.614C205.032,546.892 194.46,558.47 192.767,559.403C189.945,560.958 180.06,555.502 179.05,554.944C152.356,540.211 149.945,544.383 111.946,517.164C102.64,510.498 71.851,484.582 70.737,482.644C69.516,480.521 79.761,463.295 74.534,455.909C71.676,451.871 72.505,451.396 74.81,447.024C96.201,406.458 98.538,407.97 100.621,406.111L100.62,406.111Z" style="fill:rgb(254,254,254);"/>
            <path d="M244.072,362.168C244.091,356.138 243.904,356.144 244.093,355.659C244.139,355.54 244.22,355.859 245.686,355.591C265.382,351.994 265.504,352.213 266.066,351.582C268.947,348.348 254.327,352.122 249.707,352.9C245.212,353.656 244.92,353.705 192.733,353.495C177.591,353.434 168.473,348.719 166.993,350.295C164.73,352.706 180.562,354.055 185.154,355.226C186.381,355.539 186.323,360.866 186.318,361.366C186.302,362.801 185.996,362.857 184.57,362.807C171.466,362.345 162.602,358.17 165.079,361.323C166.312,362.892 183.584,364.77 185.21,364.947C186.456,365.082 186.313,369.137 186.299,369.512C186.205,372.163 179.471,370.163 178.423,372.103C177.655,373.525 179.039,372.884 185.241,373.113C185.936,373.139 186.7,373.308 186.298,381.743C186.233,383.116 185.378,382.739 169.156,380.596C166.101,380.193 160.936,379.51 131.627,371.944C130.547,371.665 129.215,367.138 131.853,364.983C133.29,363.809 170.053,371.639 171.448,370.933C176,368.629 153.303,366.345 147.972,365.205C133.845,362.185 132.284,363.451 131.677,359.716C130.685,353.61 136.757,355.632 137.275,355.804C147.379,359.168 160.285,361.408 160.852,361.143C165.242,359.088 150.231,358.249 135.05,352.946C134.148,352.631 132.32,348.738 135.057,346.104C137.348,343.9 156.778,350.987 158.474,349.882C161.418,347.964 153.504,347.311 143.899,344.859C137.624,343.258 136.525,344.284 136.188,341.87C134.803,331.936 143.02,338.083 148.726,337.641C151.49,337.427 152.14,340.01 155.234,339.914C159.889,339.768 159.666,340.92 164.225,341.727C167.593,342.323 168.947,344.344 172.361,344.229C177.386,344.06 177.231,345.868 182.149,345.178C185.293,344.737 184.645,347.704 187.802,347.221C192.273,346.537 192.487,348.977 196.636,347.122C199.474,345.854 199.641,347.782 202.593,346.977C205.958,346.058 205.953,346.469 209.037,347.448C210.034,347.764 216.162,345.25 222.154,347.25C224.643,348.081 226.63,345.944 228.639,346.404C234.691,347.788 234.645,346.319 235.144,346.466C238.767,347.532 238.764,347.874 242.477,346.944C243.977,346.568 245.958,347.938 247.996,346.505C251.268,344.205 251.917,346.755 255.527,345.188C259.779,343.342 260.284,345.523 264.464,343.507C268.772,341.429 269.04,342.308 273.456,340.329C276.43,338.997 277.749,341.074 280.997,338.924C284.524,336.59 285.158,338.815 287.917,337.435C293.454,334.665 298.923,336.393 296.893,342.559C296.428,343.972 275.148,347.526 274.426,348.494C271.958,351.804 286.382,347.671 294.527,345.697C299.3,344.541 300.405,348.291 299.081,352.085C298.251,354.462 272.671,358.933 272.003,359.865C268.883,364.219 295.028,356.079 296.964,355.476C302.542,353.739 301.897,359.959 300.765,361.853C299.825,363.427 262.156,368.249 261.395,369.641C259.988,372.213 262.957,371.245 297.761,365.102C306.542,363.552 302.378,371.778 301.129,372.065C282.075,376.453 272.298,380.275 261.184,381.067C245.096,382.215 244.264,383.888 244.125,382.525C244.053,381.814 243.532,376.711 244.131,373.592C244.426,372.053 253.577,373.626 254.418,373.17C258.157,371.146 245.71,370.699 245.588,370.674C243.064,370.154 244.056,363.413 244.069,362.169L244.072,362.168Z" style="fill:rgb(252,252,252);"/>
            <path d="M244.198,385.835C252.581,383.751 252.582,384.187 261.139,383.096C296.796,378.552 300.103,370.035 304.81,376.348C308.8,381.699 301.362,381.692 301.1,381.742C273.604,386.988 263.887,393.687 249.76,394.699C220.397,396.804 212.015,397.489 200.816,395.972C185.101,393.842 184.484,397.075 150.261,386.071C132.242,380.278 122.46,382.768 129.374,375.409C130.03,374.71 131.346,373.31 141.324,376.311C171.233,385.31 171.958,381.636 183.67,384.469C189.017,385.762 184.325,391.001 187.856,391.38C188.051,391.401 241.901,391.392 242.423,391.38C244.681,391.325 244.177,386.809 244.199,385.834L244.198,385.835Z" style="fill:rgb(253,253,253);"/>
            <path d="M220.982,361.497C223.131,362.71 223.181,362.362 225.301,362.835C225.727,362.959 228.305,363.707 230.19,365.451C232.978,368.031 232.953,368.175 233.292,372.005C233.2,372.419 232.36,372.347 232.268,372.761C232.196,373.085 232.837,373.164 232.967,373.469C233.245,374.122 232.142,377.117 230.176,378.424C225.169,381.75 218.93,385.899 205.711,381.274C194.79,376.781 194.598,367.535 204.209,363.554C208.172,363.097 207.807,360.091 220.982,361.497Z" style="fill:rgb(12,12,12);"/>
            <path d="M223.025,366.652C223.532,368.441 223.623,368.432 223.572,368.584C223.133,369.903 223.101,370.03 224.246,370.898L224.227,372.268C223.844,372.505 223.46,372.743 223.077,372.98C222.56,373.355 221.779,373.22 221.262,373.595C221.045,373.752 220.458,374.177 222.17,376.819C222.485,378.889 222.973,379.41 222.065,379.299C222.065,379.299 220.624,378.378 220.498,378.297C219.343,377.368 219.33,377.476 217.965,376.899C214.51,375.38 214.468,376.339 213.703,376.627C213.486,376.566 213.547,376.727 213.255,376.646C213.159,376.619 213.167,376.618 212.07,376.272C211.034,375.393 210.815,375.59 210.473,374.485C208.921,369.468 208.284,376.667 207.967,377.602C207.556,378.816 207.431,378.974 206.183,378.742C206.221,377.912 206.503,371.808 203.214,368.792C198.517,364.485 205.557,366.591 207.411,366.997C209.553,367.466 209.455,366.928 211.418,366.115C216.213,364.13 217.214,365.556 218.768,365.258C220.867,364.855 221.763,363.637 223.026,366.651L223.025,366.652Z" style="fill:rgb(213,213,213);"/>
            <path d="M204.303,361.455C204.171,363.104 204.121,363.079 204.209,363.553C194.598,367.534 194.789,376.78 205.711,381.273C218.931,385.898 225.17,381.749 230.176,378.423C232.142,377.117 233.245,374.122 232.967,373.468C232.837,373.163 232.196,373.084 232.268,372.76C232.36,372.346 233.2,372.418 233.292,372.004C233.872,372.233 234.452,372.463 235.032,372.692C234.523,381.626 222.089,387.17 211.158,384.561C210.694,384.45 210.724,384.845 205.239,383.797C205.187,383.787 198.108,379.813 196.79,376.84C194.533,371.749 194.312,369.758 198.679,364.819C200.46,362.805 203.02,362.301 203.446,362.217L204.301,361.454L204.303,361.455Z" style="fill:rgb(165,165,165);"/>
            <path d="M245.687,362.94C267.129,361.869 268.244,358.743 268.375,360.564C268.607,363.768 246.018,365.367 245.624,364.824C245.535,364.702 245.629,364.684 245.687,362.94Z" style="fill:rgb(28,28,28);"/>
            <path d="M206.804,360.081C207.256,360.032 207.708,359.983 208.16,359.934C209.129,359.783 216.168,358.683 220.413,359.419C220.828,359.491 221.058,360.036 221.473,360.108L221.739,360.201L220.983,361.496C207.807,360.09 208.173,363.096 204.21,363.553C204.123,363.079 204.173,363.104 204.304,361.455C204.531,361.219 204.757,360.982 204.984,360.746C205.979,360.515 205.926,360.537 206.805,360.081L206.804,360.081Z" style="fill:rgb(159,159,159);"/>
            <path d="M225.246,360.643C225.397,360.479 228.048,357.6 227.874,359.723C227.781,360.866 226.882,360.399 226.776,361.47C226.64,362.842 233.351,360.915 235.614,371.194C235.42,371.694 235.226,372.194 235.033,372.693C234.453,372.464 233.873,372.234 233.293,372.005C232.954,368.175 232.979,368.031 230.191,365.451C228.306,363.707 225.728,362.959 225.302,362.835C225.5,361.722 225.392,361.777 225.246,360.643Z" style="fill:rgb(165,165,165);"/>
            <path d="M226.474,369.142C229.126,369.961 229.03,370.686 228.997,370.931C228.866,371.914 225.736,370.877 226.738,373.68C227.423,375.597 227.198,375.578 226.85,377.612C226.329,377.907 225.808,378.202 225.287,378.497C224.667,373.541 224.392,372.745 224.226,372.267L224.245,370.897C225.17,369.764 225.17,369.852 226.474,369.141L226.474,369.142Z" style="fill:rgb(228,228,228);"/>
            <path d="M217.965,376.901C219.33,377.478 219.343,377.369 220.498,378.299C217.151,381.032 216.493,378.343 212.348,379.464C212.098,379.532 207.546,380.764 209.207,378.686C209.85,377.882 211.995,377.595 212.253,377.561L213.075,377.56C214.729,377.619 214.701,377.368 216.359,377.677C217.612,377.911 217.905,376.93 217.966,376.901L217.965,376.901Z" style="fill:rgb(177,177,177);"/>
            <path d="M214.784,367.251C219.322,367.51 218.36,369.163 219.473,373.629C220.235,376.687 217.747,375.236 217.536,374.186C217.093,371.972 217.145,371.944 215.608,370.263C214.715,369.286 215.069,369.153 214.784,367.251Z" style="fill:rgb(13,13,13);"/>
            <path d="M223.025,366.652C226.644,365.595 226.352,364.816 226.628,364.975C227.353,365.392 226.968,365.569 226.474,369.143C225.17,369.854 225.17,369.766 224.245,370.899C223.1,370.031 223.132,369.904 223.571,368.585C223.622,368.433 223.53,368.442 223.024,366.653L223.025,366.652Z" style="fill:rgb(154,154,154);"/>
            <path d="M204.963,375.728C204.681,375.695 201.551,375.324 201.668,374.391C201.859,372.871 201.925,372.885 201.785,372.711C200.527,371.156 202.006,369.694 203.156,371.388C203.328,371.641 205.05,374.177 205.19,374.632C205.3,374.988 204.853,375.371 204.963,375.728Z" style="fill:rgb(197,197,197);"/>
            <path d="M214.057,372.76C213.628,376.406 212.205,373.819 212.15,373.66C210.647,369.314 211.8,367.366 212.895,368.86C213.402,369.551 213.992,372.441 214.057,372.76Z" style="fill:rgb(9,9,9);"/>
            <path d="M223.665,359.826C224.192,360.098 224.719,360.371 225.245,360.643C225.391,361.776 225.498,361.722 225.301,362.835C223.181,362.362 223.131,362.71 220.982,361.497L221.738,360.202C222.75,359.919 222.678,359.958 223.665,359.826Z" style="fill:rgb(224,224,224);"/>
            <path d="M221.109,371.709C220.891,371.275 220.034,371.424 219.894,367.973C219.727,363.865 223.085,369.081 221.109,371.709Z" style="fill:rgb(71,71,71);"/>
            <path d="M221.473,360.109C221.419,357.355 221.655,357.106 221.831,356.92C222.02,356.721 222.743,356.409 223.665,359.826C222.678,359.958 222.75,359.92 221.738,360.202L221.472,360.109L221.473,360.109Z" style="fill:rgb(99,99,99);"/>
            <path d="M213.703,376.629C214.467,376.341 214.51,375.382 217.965,376.901C217.904,376.93 217.612,377.91 216.358,377.677C214.7,377.368 214.728,377.619 213.074,377.56L213.703,376.629Z" style="fill:rgb(78,78,78);"/>
            <path d="M223.076,372.98C223.068,375.023 223.145,375.017 222.169,376.819C220.457,374.177 221.044,373.752 221.261,373.595C221.778,373.22 222.559,373.355 223.076,372.98Z" style="fill:rgb(127,127,127);"/>
            <path d="M207.54,369.373C207.571,369.509 207.955,375.519 206.032,370.25C205.557,368.949 206.28,368.81 207.54,369.373Z" style="fill:rgb(35,35,35);"/>
            <path d="M204.983,360.746C204.756,360.982 204.53,361.219 204.303,361.455L203.448,362.218C203.062,361.316 203.17,361.337 202.72,360.517C200.724,356.882 204.848,360.624 204.983,360.746Z" style="fill:rgb(104,104,104);"/>
            <path d="M235.614,371.194C238.643,371.431 237.899,372.775 237.546,372.764C236.695,372.737 236.773,372.508 235.915,372.484C235.419,372.47 235.517,372.707 235.033,372.694C235.227,372.194 235.421,371.694 235.614,371.195L235.614,371.194Z" style="fill:rgb(83,83,83);"/>
            <path d="M206.804,360.081C207.021,359.205 206.864,356.26 208.267,358.91L208.16,359.935C207.708,359.984 207.256,360.033 206.804,360.082L206.804,360.081Z" style="fill:rgb(87,87,87);"/>
            <path d="M371.739,353.888C371.593,353.913 366.815,354.724 370.444,352.573C371.492,351.952 371.254,352.794 371.739,353.888Z" style="fill:rgb(173,173,173);"/>
            <path d="M226.851,377.613C226.77,377.794 227.052,380.824 225.288,378.498C225.809,378.203 226.33,377.908 226.851,377.613Z" style="fill:rgb(114,114,114);"/>
            <path d="M212.069,376.274C213.166,376.62 213.158,376.621 213.254,376.648C213.546,376.73 213.485,376.569 213.702,376.629L213.073,377.56L212.251,377.561C212.19,377.132 212.13,376.703 212.069,376.274Z" style="fill:rgb(100,100,100);"/>
        </g>
    </g>
</svg>
