<?xml version="1.0" encoding="UTF-8" standalone="no"?>
<!DOCTYPE svg PUBLIC "-//W3C//DTD SVG 1.1//EN" "http://www.w3.org/Graphics/SVG/1.1/DTD/svg11.dtd">
<svg width="100%" height="100%" viewBox="0 0 305 235" version="1.1" xmlns="http://www.w3.org/2000/svg" xmlns:xlink="http://www.w3.org/1999/xlink" xml:space="preserve" xmlns:serif="http://www.serif.com/" style="fill-rule:evenodd;clip-rule:evenodd;stroke-linejoin:round;stroke-miterlimit:2;">
    <g id="Mesa-de-trabajo1" serif:id="Mesa de trabajo1" transform="matrix(0.690909,0,0,0.245084,0,0)">
        <rect x="0" y="0" width="440" height="956" style="fill:none;"/>
    </g>
    <g id="Mesa-de-trabajo11" serif:id="Mesa de trabajo1" transform="matrix(1.021548,0,0,1.044969,-71.740917,-382.34543)">
        <g>
            <path d="M120.343,419.952C125.572,413.247 126.831,413.948 126.91,411.935C127.068,407.882 127.196,407.84 129.806,404.654C131.715,402.324 127.643,399.986 131.169,395.673C133.43,392.908 128.476,390.551 132.732,386.016C134.967,383.634 130.988,381.723 134.3,377.263C137.155,373.42 133.09,367.403 139.405,366.033C140.336,365.831 145.502,366.29 145.827,366.443C149.423,368.137 150.002,366.245 153.305,368.375C156.934,370.714 159.379,368.362 170.028,373.207C172.99,374.555 175.179,373.092 177.858,374.345C181.64,376.113 182.069,373.782 185.05,375.156C187.367,376.224 187.238,376.779 189.826,376.409C191.762,376.133 193.155,377.833 195.591,377.044C198.303,376.165 198.327,375.815 201.095,376.608C202.509,377.013 204.864,375.041 207.366,376.143C210.446,377.499 210.53,376.022 213.859,376.065C215.159,376.082 215.061,376.345 216.284,376.336C223.684,376.282 223.691,377.019 224.287,376.784C227.394,375.559 227.459,375.764 230.69,376.592C232.254,376.993 233.704,375.324 235.405,376.054C238.475,377.371 238.554,377.307 241.794,376.469C243.741,375.965 244.645,377.669 246.717,376.001C250.054,373.314 251.602,376.075 254.481,374.745C258.627,372.83 259.12,374.997 262.579,373.359C266.354,371.571 266.615,372.412 270.452,370.766C274.958,368.832 275.652,371.02 279.701,368.315C282.433,366.49 284.023,368.135 285.888,367.19C290.842,364.678 297.095,365.854 297.667,370.346C298.157,374.188 296.85,374.557 299.125,377.715C301.877,381.535 297.741,382.917 300.827,386.511C304.236,390.482 299.122,392.123 302.325,396.143C305.189,399.737 300.498,401.746 304.121,405.629C307.967,409.75 305.011,411.535 306.801,413.374C311.177,417.87 310.675,418.227 314.844,422.941C321.569,430.545 331.548,428.006 345.297,453.368C356.191,473.463 361.727,481.689 359.293,484.573C354.717,489.991 356.024,494.985 361.189,507.827C363.754,514.204 360.069,513.879 332.201,538.242C299.899,566.482 242.521,589.34 241.572,589.905C238.561,591.701 226.593,574.639 219.144,566.536C215.407,562.471 214.866,565.919 211.105,569.97C204.128,577.484 195.606,588.855 192.993,590.096C192.371,590.392 180.549,585.489 178.745,584.542C151.705,570.348 150.593,572.469 122.009,554.088C117.876,551.43 111.148,547.104 73.997,515.777C68.075,510.783 72.898,509.454 76.346,493.51C77.828,486.659 71.426,484.655 73.295,480.794C84.419,457.81 90.924,447.932 92.706,445.224C105.034,426.5 112.096,431.857 120.344,419.953L120.343,419.952Z" style="fill:rgb(18,18,18);"/>
            <path d="M122.974,420.703C123.226,420.088 124.905,415.989 128.274,414.299C129.545,413.662 143.313,416.479 149.069,418.334C184.393,429.718 184.892,427.644 210.679,429.2C215.942,429.518 215.879,430.024 221.042,429.322C222.058,429.184 222.1,430.075 233.841,428.576C242.709,427.443 249.758,428.647 264.161,424.387C268.839,423.003 302.429,412.289 304.95,414.455C310.547,419.267 308.731,420.256 308.828,422.325C309.089,427.891 323.444,436.965 320.113,440.595C316.798,444.207 313.336,434.184 312.975,439.097C312.901,440.106 314.497,446.886 317.867,450.283C323.139,455.597 343.058,462.064 337.493,476.551C335.654,481.339 329.03,482.605 327.794,479.737C324.038,471.022 322.32,458.546 313.839,456.722C304.51,454.715 303.369,454.744 300.696,451.447C297.515,447.522 299.233,462.012 308.294,467.003C314.963,470.676 316.299,470.087 317.984,477.468C319.681,484.904 310.539,489.925 305.955,482.223C302.53,476.468 301.111,481.626 301.621,483.936C305.343,500.795 325.322,494.736 317.664,510.217C313.586,518.461 305.201,522.981 301.113,515.055C297.572,508.189 297.628,506.71 289.845,506.741C282.167,506.772 284.23,499.064 281.324,501.056C279.354,502.407 280.24,510.528 286.816,514.837C293.04,518.915 293.259,519.746 291.959,527.016C291.073,531.969 279.904,534.25 277.375,530.836C272.222,523.878 272.331,511.779 261.056,510.978C256.555,510.658 256.48,511.097 252.361,509.2C250.89,508.522 249.886,510.25 252.387,511.654C254.761,512.986 254.677,513.011 256.952,514.483C259.766,516.3 268.262,521.295 263.48,529.508C261.243,533.35 255.37,533.072 254.269,528.786C252.359,521.351 250.723,528.402 250.743,528.683C251.625,541.371 259.608,538.478 259.936,547.097C260.162,553.034 259.74,560.615 249.833,560.117C244.367,559.843 246.483,550.254 240.269,550.524C237.109,550.661 231.266,551.549 230.052,550.802C225.559,548.036 228.242,558.014 233.017,559.209C239.156,560.745 240.5,561.803 238.297,567.749C236.266,573.234 229.887,575.753 228.342,574.141C222.489,568.034 217.283,559.521 215.217,562.095C215.02,562.34 204.657,574.279 204.347,574.437C198.732,577.286 185.707,562.344 197.808,559.543C205.373,557.792 205.215,548.854 202.642,550.247C196.488,553.579 190.384,546.277 187.029,554.436C185.873,557.247 185.939,561.306 177.883,559.829C172.46,558.834 169.306,546.083 174.978,541.005C175.893,540.186 183.205,533.64 181.304,527.022C179.794,521.763 178.058,528.433 177.983,528.722C175.444,538.478 158.752,526.049 172.556,516.224C177.24,512.89 183.631,509.91 180.96,508.962C179.945,508.602 178.297,510.609 175.432,510.784C161.452,511.64 162.391,515.012 156.704,527.739C156.383,528.456 153.47,536.602 142.067,529.977C139.952,528.748 137.092,520.085 142.934,516.251C144.054,515.516 154.299,508.791 151.152,501.655C149.16,497.136 149.77,506.481 142.671,506.744C134.74,507.038 134.67,508.223 130.921,515.218C123.685,528.722 106.471,504.259 114.881,499.422C116.43,498.531 130.066,492.761 130.603,483.09C131.003,475.88 126.541,481.797 126.329,482.077C119.529,491.093 111.185,483.528 114.919,475.22C117.589,469.28 118.416,469.868 124.148,466.834C128.185,464.697 131.313,457.734 131.724,456.818C131.831,456.489 134.719,447.579 130.611,452.646C127.795,456.118 115.488,455.005 112.301,460.715C103.343,476.765 106.433,484.315 98.097,480.307C93.484,478.09 89.851,468.64 101.06,459.073C102.403,457.926 119.107,450.753 119.172,439.137C119.193,435.465 115.91,441.775 113.142,441.124C106.928,439.664 120.824,427.69 121.793,426.252C123.457,423.784 123.057,423.632 122.974,420.704L122.974,420.703Z" style="fill:rgb(254,254,254);"/>
            <path d="M122.974,420.703C123.058,423.631 123.458,423.783 121.793,426.251C120.824,427.689 106.928,439.663 113.142,441.123C115.91,441.773 119.193,435.464 119.172,439.136C119.107,450.751 102.403,457.925 101.06,459.072C89.851,468.639 93.485,478.089 98.097,480.306C106.434,484.314 103.343,476.764 112.301,460.714C115.488,455.004 127.796,456.117 130.611,452.645C134.719,447.579 131.831,456.489 131.724,456.817C131.063,456.547 130.402,456.277 129.741,456.006C128.51,456.121 128.596,456.143 127.435,456.513C123.5,457.764 123.533,457.582 117.819,458.88C110.216,460.607 108.427,481.892 103.497,483.149C95.713,485.134 89.654,475.066 91.86,468.831C97.267,453.549 110.726,455.098 115.478,444.705C116.971,441.44 109.51,444.932 109.554,439.888C109.623,431.897 120.823,428.537 121.145,422.106C121.298,422.057 123.06,421.498 123.06,421.498C123.235,421.297 122.797,420.904 122.972,420.703L122.974,420.703Z" style="fill:rgb(25,25,25);"/>
            <path d="M243.466,393.516C243.485,387.597 243.301,387.602 243.486,387.126C243.531,387.009 243.611,387.322 245.05,387.059C264.385,383.528 264.505,383.743 265.057,383.123C267.885,379.949 253.533,383.653 248.997,384.417C244.584,385.159 244.297,385.208 193.067,385.001C178.203,384.941 169.251,380.313 167.799,381.86C165.578,384.227 181.119,385.551 185.628,386.7C186.833,387.007 186.776,392.237 186.771,392.727C186.756,394.135 186.455,394.191 185.055,394.142C172.191,393.689 163.49,389.59 165.922,392.685C167.132,394.225 184.088,396.069 185.684,396.242C186.907,396.375 186.766,400.355 186.753,400.724C186.661,403.327 180.05,401.363 179.022,403.267C178.268,404.663 179.626,404.034 185.715,404.258C186.397,404.283 187.147,404.449 186.752,412.73C186.688,414.078 185.849,413.707 169.924,411.604C166.925,411.208 161.854,410.538 133.083,403.11C132.023,402.836 130.715,398.392 133.305,396.277C134.716,395.124 170.805,402.811 172.174,402.118C176.642,399.857 154.362,397.614 149.128,396.495C135.26,393.53 133.727,394.773 133.132,391.107C132.158,385.113 138.119,387.097 138.628,387.267C148.547,390.569 161.216,392.768 161.773,392.508C166.082,390.491 151.346,389.667 136.444,384.462C135.558,384.153 133.764,380.331 136.451,377.746C138.7,375.582 157.774,382.54 159.439,381.455C162.329,379.572 154.561,378.931 145.131,376.524C138.971,374.952 137.892,375.96 137.562,373.589C136.202,363.837 144.269,369.871 149.871,369.437C152.585,369.227 153.222,371.763 156.26,371.668C160.83,371.525 160.611,372.656 165.086,373.448C168.392,374.033 169.721,376.017 173.073,375.904C178.006,375.738 177.854,377.513 182.681,376.835C185.768,376.402 185.131,379.314 188.231,378.84C192.621,378.169 192.83,380.563 196.903,378.743C199.689,377.498 199.853,379.391 202.75,378.6C206.053,377.698 206.048,378.102 209.076,379.062C210.055,379.372 216.07,376.905 221.953,378.868C224.396,379.683 226.347,377.586 228.319,378.037C234.26,379.396 234.215,377.954 234.705,378.098C238.262,379.145 238.259,379.48 241.903,378.567C243.375,378.198 245.32,379.543 247.321,378.136C250.533,375.878 251.171,378.381 254.714,376.843C258.888,375.031 259.384,377.172 263.487,375.193C267.716,373.153 267.98,374.016 272.314,372.074C275.233,370.766 276.529,372.805 279.717,370.695C283.179,368.404 283.802,370.588 286.51,369.233C291.946,366.513 297.314,368.21 295.321,374.263C294.865,375.65 273.974,379.139 273.266,380.089C270.843,383.339 285.003,379.281 292.999,377.344C297.684,376.209 298.77,379.89 297.47,383.615C296.656,385.948 271.544,390.337 270.888,391.253C267.826,395.528 293.491,387.536 295.392,386.944C300.867,385.239 300.234,391.345 299.124,393.204C298.201,394.749 261.223,399.483 260.475,400.85C259.094,403.375 262.008,402.424 296.175,396.394C304.795,394.873 300.707,402.947 299.481,403.23C280.776,407.538 271.179,411.289 260.269,412.067C244.476,413.194 243.66,414.836 243.523,413.498C243.452,412.8 242.941,407.791 243.529,404.728C243.819,403.218 252.802,404.761 253.627,404.314C257.297,402.327 245.079,401.888 244.959,401.863C242.481,401.352 243.455,394.735 243.468,393.513L243.466,393.516Z" style="fill:rgb(252,252,252);"/>
            <path d="M243.59,416.749C251.819,414.703 251.82,415.131 260.22,414.06C295.223,409.599 298.47,401.239 303.09,407.436C307.007,412.689 299.705,412.682 299.448,412.731C270.257,418.301 271.348,423.433 241.812,425.947C223.472,427.508 223.455,426.976 221.869,427.174C215.494,427.967 215.526,427.02 209.064,427.106C202.604,427.192 202.699,426.407 196.272,426.126C171.982,425.062 172.353,422.915 148.999,416.189C133.242,411.651 124.228,413.584 130.87,406.515C131.514,405.829 132.806,404.454 142.601,407.401C171.948,416.23 172.658,412.625 184.171,415.409C189.42,416.679 184.814,421.822 188.281,422.194C188.473,422.215 241.335,422.206 241.848,422.194C244.065,422.14 243.569,417.707 243.591,416.75L243.59,416.749Z" style="fill:rgb(253,253,253);"/>
            <path d="M220.799,392.857C222.909,394.048 222.958,393.706 225.039,394.171C225.457,394.292 227.988,395.027 229.838,396.739C232.575,399.272 232.551,399.413 232.883,403.173C232.793,403.58 231.968,403.508 231.878,403.915C231.807,404.233 232.437,404.31 232.564,404.61C232.837,405.251 231.754,408.192 229.824,409.474C224.909,412.739 218.784,416.812 205.807,412.271C195.086,407.86 194.898,398.783 204.333,394.876C208.224,394.427 207.865,391.477 220.799,392.857Z" style="fill:rgb(12,12,12);"/>
            <path d="M222.805,397.918C223.302,399.674 223.392,399.665 223.342,399.815C222.911,401.11 222.88,401.235 224.003,402.087L223.984,403.432C223.608,403.665 223.231,403.898 222.855,404.131C222.347,404.499 221.581,404.367 221.073,404.735C220.86,404.889 220.284,405.307 221.964,407.9C222.273,409.932 222.753,410.444 221.86,410.335C221.86,410.335 220.445,409.43 220.322,409.352C219.188,408.44 219.176,408.546 217.836,407.98C214.444,406.489 214.403,407.43 213.652,407.713C213.439,407.653 213.499,407.811 213.212,407.731C213.118,407.705 213.126,407.704 212.049,407.364C211.032,406.501 210.817,406.694 210.481,405.61C208.957,400.685 208.332,407.752 208.021,408.67C207.617,409.862 207.495,410.017 206.27,409.789C206.308,408.974 206.584,402.982 203.355,400.021C198.744,395.793 205.655,397.86 207.475,398.259C209.578,398.72 209.482,398.191 211.409,397.393C216.116,395.445 217.099,396.845 218.624,396.552C220.685,396.156 221.564,394.961 222.804,397.919L222.805,397.918Z" style="fill:rgb(213,213,213);"/>
            <path d="M204.426,392.816C204.297,394.435 204.248,394.41 204.333,394.876C194.898,398.784 195.086,407.86 205.807,412.271C218.784,416.811 224.909,412.739 229.824,409.474C231.754,408.192 232.837,405.251 232.564,404.61C232.437,404.31 231.807,404.233 231.878,403.915C231.968,403.508 232.793,403.58 232.883,403.173C233.452,403.398 234.022,403.623 234.591,403.848C234.091,412.618 221.885,418.061 211.155,415.499C210.699,415.39 210.729,415.778 205.345,414.749C205.294,414.739 198.345,410.838 197.051,407.92C194.835,402.922 194.618,400.968 198.906,396.12C200.654,394.143 203.167,393.648 203.586,393.566L204.426,392.817L204.426,392.816Z" style="fill:rgb(165,165,165);"/>
            <path d="M245.051,394.273C266.1,393.222 267.194,390.153 267.323,391.94C267.551,395.086 245.376,396.654 244.989,396.122C244.902,396.002 244.994,395.985 245.051,394.273Z" style="fill:rgb(28,28,28);"/>
            <path d="M206.881,391.467C207.325,391.419 207.768,391.371 208.212,391.323C209.164,391.174 216.073,390.095 220.24,390.818C220.648,390.889 220.873,391.424 221.281,391.494L221.542,391.586L220.799,392.857C207.865,391.477 208.224,394.427 204.333,394.876C204.247,394.411 204.296,394.435 204.426,392.816C204.648,392.584 204.871,392.352 205.093,392.12C206.07,391.893 206.018,391.915 206.881,391.467Z" style="fill:rgb(159,159,159);"/>
            <path d="M224.985,392.019C225.133,391.858 227.735,389.031 227.565,391.115C227.473,392.237 226.591,391.779 226.487,392.83C226.354,394.177 232.941,392.285 235.163,402.376C234.973,402.867 234.783,403.357 234.592,403.848C234.023,403.623 233.453,403.398 232.884,403.173C232.551,399.413 232.575,399.272 229.839,396.739C227.989,395.027 225.458,394.292 225.04,394.171C225.234,393.078 225.129,393.132 224.985,392.019Z" style="fill:rgb(165,165,165);"/>
            <path d="M226.191,400.362C228.795,401.166 228.7,401.878 228.668,402.119C228.54,403.084 225.467,402.066 226.45,404.818C227.122,406.699 226.901,406.681 226.56,408.678C226.049,408.968 225.537,409.257 225.026,409.547C224.418,404.682 224.147,403.9 223.985,403.431L224.004,402.086C224.912,400.974 224.912,401.06 226.192,400.362L226.191,400.362Z" style="fill:rgb(228,228,228);"/>
            <path d="M217.837,407.978C219.177,408.545 219.189,408.438 220.323,409.35C217.037,412.033 216.391,409.393 212.322,410.494C212.077,410.56 207.608,411.77 209.238,409.731C209.869,408.942 211.975,408.66 212.228,408.626L213.035,408.625C214.659,408.683 214.631,408.436 216.259,408.74C217.49,408.969 217.777,408.007 217.836,407.978L217.837,407.978Z" style="fill:rgb(177,177,177);"/>
            <path d="M214.715,398.505C219.169,398.759 218.225,400.382 219.318,404.766C220.066,407.768 217.623,406.344 217.417,405.313C216.982,403.14 217.033,403.113 215.524,401.462C214.648,400.503 214.995,400.373 214.715,398.505Z" style="fill:rgb(13,13,13);"/>
            <path d="M222.805,397.918C226.358,396.881 226.071,396.116 226.342,396.271C227.054,396.68 226.676,396.854 226.191,400.362C224.911,401.06 224.911,400.974 224.003,402.086C222.879,401.234 222.91,401.109 223.342,399.814C223.392,399.664 223.302,399.673 222.805,397.917L222.805,397.918Z" style="fill:rgb(154,154,154);"/>
            <path d="M205.074,406.827C204.797,406.794 201.724,406.43 201.839,405.515C202.027,404.023 202.091,404.037 201.953,403.866C200.718,402.339 202.17,400.905 203.299,402.567C203.468,402.816 205.159,405.305 205.296,405.751C205.404,406.101 204.965,406.477 205.073,406.827L205.074,406.827Z" style="fill:rgb(197,197,197);"/>
            <path d="M214.001,403.914C213.58,407.493 212.183,404.954 212.129,404.797C210.654,400.531 211.785,398.619 212.861,400.085C213.359,400.764 213.937,403.601 214.001,403.914Z" style="fill:rgb(9,9,9);"/>
            <path d="M223.433,391.216C223.95,391.483 224.467,391.751 224.984,392.018C225.127,393.131 225.233,393.077 225.039,394.17C222.958,393.705 222.909,394.047 220.799,392.856L221.542,391.585C222.535,391.307 222.465,391.345 223.433,391.216Z" style="fill:rgb(224,224,224);"/>
            <path d="M220.923,402.882C220.709,402.455 219.868,402.602 219.731,399.214C219.567,395.182 222.864,400.302 220.923,402.882Z" style="fill:rgb(71,71,71);"/>
            <path d="M221.281,391.494C221.228,388.791 221.459,388.546 221.633,388.364C221.819,388.168 222.528,387.862 223.433,391.217C222.464,391.347 222.535,391.309 221.542,391.586L221.281,391.494Z" style="fill:rgb(99,99,99);"/>
            <path d="M213.653,407.711C214.403,407.428 214.445,406.487 217.837,407.978C217.777,408.007 217.49,408.969 216.26,408.74C214.632,408.437 214.66,408.683 213.036,408.625L213.654,407.711L213.653,407.711Z" style="fill:rgb(78,78,78);"/>
            <path d="M222.855,404.13C222.847,406.136 222.923,406.13 221.964,407.899C220.284,405.306 220.86,404.889 221.073,404.734C221.581,404.366 222.347,404.498 222.855,404.13Z" style="fill:rgb(127,127,127);"/>
            <path d="M207.603,400.588C207.633,400.722 208.011,406.622 206.123,401.449C205.657,400.172 206.367,400.035 207.603,400.588Z" style="fill:rgb(35,35,35);"/>
            <path d="M205.093,392.12C204.871,392.352 204.648,392.584 204.426,392.816L203.586,393.565C203.207,392.679 203.313,392.7 202.872,391.895C200.913,388.326 204.961,392 205.093,392.12Z" style="fill:rgb(104,104,104);"/>
            <path d="M235.163,402.376C238.136,402.609 237.406,403.928 237.06,403.917C236.225,403.891 236.301,403.666 235.459,403.642C234.972,403.628 235.069,403.861 234.593,403.848C234.783,403.357 234.973,402.867 235.164,402.376L235.163,402.376Z" style="fill:rgb(83,83,83);"/>
            <path d="M206.881,391.467C207.095,390.607 206.94,387.716 208.317,390.317L208.212,391.323C207.768,391.371 207.325,391.419 206.881,391.467Z" style="fill:rgb(87,87,87);"/>
            <path d="M368.794,385.388C368.651,385.412 363.961,386.209 367.523,384.097C368.552,383.487 368.318,384.313 368.794,385.388Z" style="fill:rgb(173,173,173);"/>
            <path d="M226.56,408.678C226.48,408.855 226.757,411.83 225.026,409.547C225.537,409.257 226.049,408.968 226.56,408.678Z" style="fill:rgb(114,114,114);"/>
            <path d="M212.05,407.363C213.127,407.703 213.119,407.703 213.213,407.73C213.5,407.81 213.44,407.652 213.653,407.712L213.035,408.626L212.228,408.627C212.168,408.206 212.109,407.785 212.049,407.364L212.05,407.363Z" style="fill:rgb(100,100,100);"/>
        </g>
    </g>
</svg>
