<?xml version="1.0" encoding="UTF-8" standalone="no"?>
<!DOCTYPE svg PUBLIC "-//W3C//DTD SVG 1.1//EN" "http://www.w3.org/Graphics/SVG/1.1/DTD/svg11.dtd">
<svg width="100%" height="100%" viewBox="0 0 292 76" version="1.1" xmlns="http://www.w3.org/2000/svg" xmlns:xlink="http://www.w3.org/1999/xlink" xml:space="preserve" xmlns:serif="http://www.serif.com/" style="fill-rule:evenodd;clip-rule:evenodd;stroke-linejoin:round;stroke-miterlimit:2;">
    <g id="Mesa-de-trabajo1" serif:id="Mesa de trabajo1" transform="matrix(0.661364,0,0,0.079393,0,0)">
        <rect x="0" y="0" width="440" height="956" style="fill:none;"/>
    </g>
    <g transform="matrix(1,0,0,1,-74.490192,-402.057238)">
        <g id="Mesa-de-trabajo11" serif:id="Mesa de trabajo1">
            <path d="M157.933,456.873C158.015,467.405 165.822,478.009 163.583,478C162.107,477.994 152.649,470.397 151.331,460.18C150.581,454.369 147.291,460.065 140.168,458.605C131.542,456.837 132.767,454.537 133.292,454.144C133.49,453.996 143.434,457.062 149.428,449.453C151.33,447.038 153.042,436.146 141.978,432.222C132.332,428.801 130.429,444.166 140.175,440.938C140.806,440.729 145.232,437.976 144.383,441.851C142.433,450.752 124.659,455.507 115.182,445.17C111.789,441.469 113.42,439.567 114.828,440.448C115.649,440.962 117.242,442.854 121.061,444.492C121.951,444.873 127.723,445.677 126.74,442.894C125.019,438.021 125.522,437.977 125.502,434.924C125.489,432.994 122.365,434.693 115.296,429.298C110.41,425.569 111.671,431.87 108.921,432.446C103.805,433.518 113.513,421.431 88.964,408.636C78.412,403.136 72.763,406.994 74.96,403.617C75.454,402.858 89.647,400.665 103.406,410.102C108.703,413.735 103.787,404.906 103.57,404.516C102.605,402.783 103.968,401.666 106.007,403.133C110.156,406.12 109.258,409.468 113.929,407.555C120.567,404.838 127.064,409.514 122.864,409.964C109.026,411.447 119.197,430.163 131.543,426.349C137.372,424.549 135.023,415.534 126.296,416.075C111.794,416.975 139.387,403.173 147.991,412.344C150.721,415.254 149.623,416.46 149.448,416.451C149.362,416.447 137.974,412.414 141.239,416.541C143.53,419.436 158.565,415.729 169.559,429.008C172.37,432.403 174.565,437.154 171.688,435.459C169.839,434.369 165.524,425.564 145.428,423.499C140.939,423.038 143.381,425.485 143.593,425.542C144.755,425.854 152.513,427.935 156.057,433.949C158.229,437.636 160.182,429.127 161.291,432.168C162.03,434.194 156.135,442.711 171.662,460.91C173.528,463.098 184.07,472.54 195.013,471.416C195.268,471.39 202.166,470.681 197.652,473.237C195.297,474.571 184.592,474.042 181.014,472.563C178.83,471.661 164.231,466.524 159.695,458.041C159.14,457.003 159.118,456.9 157.933,456.873ZM291.04,416.357C290.965,416.147 289.631,416.036 290.896,414.142C298.717,402.432 322.992,414.515 316.791,416.373C316.212,416.547 314.74,415.716 310.698,416.311C306.787,416.887 298.606,428.459 315.96,426.155C324.109,425.073 326.6,411.361 319.349,410.061C310.239,408.428 320.48,406.358 323.84,406.821C325.463,407.044 328.57,409.149 329.704,407.797C330.136,407.281 337.419,398.597 336.998,403.61C336.956,404.11 332.531,410.285 335.118,411.145C336.041,411.452 345.77,401.422 363.777,403.076C366.041,403.284 366.114,405.159 363.844,405.406C358.569,405.979 355.247,405.399 345.406,412.069C328.95,423.221 334.695,436.01 330.857,432.2C329.934,431.284 327.932,427.065 326.449,428.035C321.366,431.36 321.714,432.047 315.812,433.67C313.516,434.301 315.706,435.588 313.987,441.819C312.95,445.579 314.829,445.727 318.624,444.684C321.92,443.778 329.886,436.551 326.618,442.863C325.754,444.532 317.46,454.882 304.598,449.878C303.661,449.513 295.269,446.248 295.712,440.991C296.029,437.232 305.655,445.822 306.618,437.568C308.079,425.055 283.374,434.738 290.54,448.966C290.955,449.789 295.631,454.522 299.457,454.707C301.701,454.816 311.285,452.912 306.245,456.471C300.147,460.777 289.586,457.454 289.242,457.775C287.772,459.147 291.868,462.434 281.074,474.877C278.151,478.247 275.776,478.515 276.035,476.706C276.203,475.532 278.491,475.884 282.482,458.426C282.781,457.12 281.437,456.368 280.583,457.785C279.443,459.675 274.519,467.844 257.639,473.105C254.548,474.069 239.364,474.807 243.076,471.715C244.732,470.335 255.916,474.047 268.709,460.792C271.391,458.013 281.473,444.31 279.601,434.905C278.305,428.393 282.51,435.276 282.86,435.319C284.319,435.496 283.959,431.879 290.961,427.466C292.623,426.419 300.626,424.629 296.866,423.534C296.055,423.298 282.372,424.115 274.505,430.109C272.885,431.344 265.715,438.62 267.19,434.042C268.654,429.497 280.664,418.772 289.852,418.336C294.23,418.128 300.125,418.158 299.462,414.9C299.228,413.751 296.938,414.845 291.037,416.359L291.04,416.357Z" style="fill:rgb(6,6,6);"/>
        </g>
    </g>
</svg>
