<?xml version="1.0" encoding="UTF-8" standalone="no"?>
<!DOCTYPE svg PUBLIC "-//W3C//DTD SVG 1.1//EN" "http://www.w3.org/Graphics/SVG/1.1/DTD/svg11.dtd">
<svg width="100%" height="100%" viewBox="0 0 332 84" version="1.1" xmlns="http://www.w3.org/2000/svg" xmlns:xlink="http://www.w3.org/1999/xlink" xml:space="preserve" xmlns:serif="http://www.serif.com/" style="fill-rule:evenodd;clip-rule:evenodd;stroke-linejoin:round;stroke-miterlimit:2;">
    <g id="Mesa-de-trabajo1" serif:id="Mesa de trabajo1" transform="matrix(0.752273,0,0,0.087343,0,0)">
        <rect x="0" y="0" width="440" height="956" style="fill:none;"/>
    </g>
    <g id="Mesa-de-trabajo11" serif:id="Mesa de trabajo1">
        <g transform="matrix(1,0,0,1,-49.55805,-377.731025)">
            <path d="M334.02,411.941C334.303,412.263 334.586,412.586 334.869,412.908C343.027,409.991 342.154,408.259 342.897,408.259C346.524,408.258 338.054,416.211 335.953,418.789C323.323,427.674 312.967,421.502 308.446,420.956C308.14,420.919 292.958,419.592 305.891,423.842C312.853,426.13 300.871,427.476 300.716,432.589C300.612,436.004 308.025,426.041 319.841,429.321C329.03,431.872 316.861,431.867 316.526,431.867C303.383,431.862 306.342,445.066 303.854,445.301C298.821,445.776 295.038,435.086 292.597,438.53C287.719,445.411 291.432,449.978 291.297,451.006C291.225,451.554 290.799,452.331 284.607,449.301C283.687,448.851 282.857,448.229 281.927,447.801C279.967,446.9 277.959,449.61 276.224,450.871C270.66,454.914 261.089,453.414 260.362,453.017C255.537,450.377 263.275,452.465 271.841,447.748C276.561,445.149 272.363,441.943 265.982,444.137C246.372,450.88 248.45,465.34 245.613,460.057C245.14,459.177 249.269,451.568 249.652,450.862C257.8,435.846 265.221,438.123 268.14,434.797C274.582,427.457 274.251,427.143 282.182,421.395C289.672,415.967 289.839,420.175 290.268,420.549C299.631,415.559 301.321,414.955 313.002,417.809C323.499,420.374 327.454,417.198 324.725,416.307C323.207,415.811 321.621,415.537 320.112,415.013C313.657,412.773 322.769,412.426 325.336,406.155C326.849,402.459 322.362,405.97 322.162,406.127C313.518,412.893 304.507,409.482 304.399,409.276C302.032,404.798 317.84,410.85 321.934,396.944C323.159,392.783 326.601,394.406 329.473,400.312C332.195,405.91 337.501,396.306 336.241,392.369C333.401,383.494 342.634,392.312 344.755,390.748C346.073,389.776 357.716,381.191 364.389,384.97C369.339,387.773 356.982,387.069 353.464,390.424C345.478,398.039 371.005,395.523 378.038,380.674C381.472,373.423 380.448,381.828 380.373,382.03C371.916,404.729 360.59,399.766 358.28,403.105C354.246,408.935 354.896,409.654 340.757,419.348C340.756,419.264 339.209,418.227 340.737,416.72C352.998,404.63 350.89,402.629 349.612,402.15C344.871,400.375 343.711,399.236 341.197,403.649C337.565,410.026 335.98,408.632 334.021,411.942L334.02,411.941Z" style="fill:rgb(8,8,8);"/>
            <path d="M89.071,419.127C79.026,411.791 78.78,412.037 71.803,402.917C70.183,400.799 66.969,402.546 61.913,398.994C48.554,389.608 46.857,370.92 52.871,381.813C61.44,397.335 88.219,396.881 75.254,389.323C72.817,387.902 60.924,387.213 66.425,384.843C67.013,384.59 76.031,383.235 83.58,388.852C85.793,390.499 85.735,391.765 88.227,390.487C88.693,390.248 95.226,386.896 94.763,390.143C94.624,391.118 93.218,400.972 98.294,401.941C102.067,402.661 104.998,387.293 108.675,398.198C112.702,410.138 134.65,406.665 124.91,409.847C114.958,413.098 107.611,405.739 106.532,404.658C104.221,402.343 103.513,407.077 108.831,410.646C111.608,412.51 113.679,413.391 110.683,414.846C106.605,416.826 101.545,416.173 105.552,418.341C113.196,422.476 120.891,410.133 139.597,420.229C144.604,416.232 144.996,419.383 150.296,422.926C161.564,430.459 158.767,433.677 163.802,436.084C166,437.135 171.215,437.42 178.285,446.731C178.803,447.414 184.804,458.415 184.847,459.019C185.227,464.382 181.006,457.193 180.821,456.879C170.57,439.424 148.276,442.104 159.431,448.286C164.875,451.303 173.537,450.6 170.408,452.837C169.421,453.543 159.119,454.88 153.761,450.633C150.227,447.831 149.81,447.038 145.285,449.504C144.864,449.733 138.309,453.306 139.303,449.818C139.574,448.868 141.794,441.078 137.103,437.668C135.467,436.479 128.678,448.524 125.468,444.436C124.707,443.467 127.071,432.978 114.37,431.897C109.523,431.485 107.551,432.324 108.8,430.359C110.357,427.911 121.067,428.468 124.551,430.782C127.719,432.886 128.241,435.071 129.497,432.654C129.608,432.441 129.153,428.907 124.652,427.164C117.103,424.24 129.126,423.76 127.947,421.334C125.908,417.137 107.681,430.144 94.016,418.371C93.562,417.861 79.888,402.471 90.444,410.618C90.674,410.795 104.821,418.422 93.913,409.565C88.124,404.865 89.513,399.48 85.855,400.744C81.215,402.348 77.78,401.797 80.591,405.864C84.539,411.576 84.436,411.597 89.287,416.475C91.312,418.511 89.103,418.731 89.071,419.125L89.071,419.127Z" style="fill:rgb(8,8,8);"/>
            <path d="M141.933,422.355C142.65,421.995 142.476,420.136 144.551,421.818C145.67,422.725 151.759,427.662 155.45,436.157C155.775,436.906 148.798,442.536 146.036,436.293C141.808,426.738 125.641,426.236 136.114,425.328C145.849,424.483 149.032,435.046 148.981,430.402C148.957,428.203 142.592,422.903 141.934,422.355L141.933,422.355Z" style="fill:rgb(246,246,246);"/>
            <path d="M288.11,422.587C287.465,423.147 278.275,431.121 282.043,431.376C283.005,431.441 288.298,423.57 294.831,425.444C302.481,427.638 288.953,426.132 284.033,437.101C282.778,439.899 281.96,438.901 276.373,438.036C273.022,437.517 277.386,431.801 280.321,427.497C280.725,426.905 284.702,421.07 286.618,421.126C287.314,421.146 287.414,422.568 288.109,422.588L288.11,422.587Z" style="fill:rgb(246,246,246);"/>
            <path d="M89.071,419.127C89.103,418.734 91.312,418.513 89.287,416.477C84.436,411.599 84.539,411.579 80.591,405.866C77.78,401.798 81.214,402.349 85.855,400.746C89.513,399.482 88.125,404.867 93.913,409.567C104.822,418.424 90.674,410.797 90.444,410.62C79.888,402.472 93.562,417.862 94.016,418.373C92.326,420.885 91.741,420.585 89.07,419.127L89.071,419.127Z" style="fill:rgb(232,232,232);"/>
            <path d="M334.02,411.941C335.979,408.631 337.564,410.025 341.196,403.648C343.71,399.235 344.87,400.374 349.611,402.149C350.889,402.628 352.997,404.63 340.736,416.719C339.208,418.226 340.755,419.263 340.756,419.347C337.722,421.335 337.616,419.977 335.953,418.789C338.053,416.212 346.524,408.258 342.897,408.259C342.155,408.259 343.027,409.992 334.869,412.908C334.586,412.586 334.303,412.263 334.02,411.941Z" style="fill:rgb(237,237,237);"/>
        </g>
    </g>
</svg>
